%TF.GenerationSoftware,KiCad,Pcbnew,(6.0.11)*%
%TF.CreationDate,2024-07-28T13:45:38-05:00*%
%TF.ProjectId,iecprinter,69656370-7269-46e7-9465-722e6b696361,rev?*%
%TF.SameCoordinates,Original*%
%TF.FileFunction,Soldermask,Top*%
%TF.FilePolarity,Negative*%
%FSLAX46Y46*%
G04 Gerber Fmt 4.6, Leading zero omitted, Abs format (unit mm)*
G04 Created by KiCad (PCBNEW (6.0.11)) date 2024-07-28 13:45:38*
%MOMM*%
%LPD*%
G01*
G04 APERTURE LIST*
%ADD10R,1.700000X1.700000*%
%ADD11O,1.700000X1.700000*%
%ADD12C,1.400000*%
%ADD13O,1.400000X1.400000*%
%ADD14C,2.400000*%
%ADD15C,1.950000*%
%ADD16C,1.600000*%
%ADD17C,3.200000*%
%ADD18R,1.600000X1.600000*%
%ADD19O,1.600000X1.600000*%
G04 APERTURE END LIST*
D10*
%TO.C,U5*%
X99010000Y-53112500D03*
D11*
X99010000Y-55652500D03*
X99010000Y-58192500D03*
X99010000Y-60732500D03*
X99010000Y-63272500D03*
X99010000Y-65812500D03*
X99010000Y-68352500D03*
X99010000Y-70892500D03*
X99010000Y-73432500D03*
X99010000Y-75972500D03*
X99010000Y-78512500D03*
X99010000Y-81052500D03*
X99010000Y-83592500D03*
X99010000Y-86132500D03*
X99010000Y-88672500D03*
X124450000Y-88672500D03*
X124450000Y-86132500D03*
X124450000Y-83592500D03*
X124450000Y-81052500D03*
X124450000Y-78512500D03*
X124450000Y-75972500D03*
X124450000Y-73432500D03*
X124450000Y-70892500D03*
X124450000Y-68352500D03*
X124450000Y-65812500D03*
X124450000Y-63272500D03*
X124450000Y-60732500D03*
X124450000Y-58192500D03*
X124450000Y-55652500D03*
X124450000Y-53112500D03*
%TD*%
D12*
%TO.C,R6*%
X170815000Y-83185000D03*
D13*
X170815000Y-88265000D03*
%TD*%
D12*
%TO.C,R5*%
X149225000Y-67945000D03*
D13*
X144145000Y-67945000D03*
%TD*%
D12*
%TO.C,R4*%
X186690000Y-73025000D03*
D13*
X186690000Y-78105000D03*
%TD*%
D10*
%TO.C,J6*%
X139700000Y-67960000D03*
D11*
X139700000Y-70500000D03*
X139700000Y-73040000D03*
%TD*%
D10*
%TO.C,J5*%
X170815000Y-93975000D03*
D11*
X170815000Y-96515000D03*
%TD*%
D10*
%TO.C,J4*%
X186690000Y-83815000D03*
D11*
X186690000Y-86355000D03*
%TD*%
D10*
%TO.C,J3*%
X179070000Y-93975000D03*
D11*
X179070000Y-96515000D03*
%TD*%
D14*
%TO.C,J1*%
X136422500Y-49050000D03*
X151422500Y-49050000D03*
D15*
X136422500Y-54050000D03*
X138922500Y-56550000D03*
X143922500Y-54050000D03*
X148922500Y-56550000D03*
X151422500Y-54050000D03*
X143922500Y-59050000D03*
X146422500Y-44050000D03*
X141422500Y-44050000D03*
%TD*%
D16*
%TO.C,C1*%
X162520000Y-74295000D03*
X157520000Y-74295000D03*
%TD*%
D10*
%TO.C,U1*%
X138310000Y-83687500D03*
D11*
X138310000Y-86227500D03*
X138310000Y-88767500D03*
X138310000Y-91307500D03*
X138310000Y-93847500D03*
X138310000Y-96387500D03*
X148510000Y-96387500D03*
X148510000Y-93887500D03*
X148510000Y-91347500D03*
X148510000Y-88807500D03*
X148510000Y-86267500D03*
X148510000Y-83727500D03*
%TD*%
D12*
%TO.C,R1*%
X176530000Y-71120000D03*
D13*
X176530000Y-66040000D03*
%TD*%
D17*
%TO.C,H3*%
X95500000Y-46000000D03*
%TD*%
D12*
%TO.C,R3*%
X182245000Y-71120000D03*
D13*
X182245000Y-66040000D03*
%TD*%
D18*
%TO.C,U6*%
X156210000Y-81280000D03*
D19*
X156210000Y-83820000D03*
X156210000Y-86360000D03*
X156210000Y-88900000D03*
X156210000Y-91440000D03*
X156210000Y-93980000D03*
X156210000Y-96520000D03*
X163830000Y-96520000D03*
X163830000Y-93980000D03*
X163830000Y-91440000D03*
X163830000Y-88900000D03*
X163830000Y-86360000D03*
X163830000Y-83820000D03*
X163830000Y-81280000D03*
%TD*%
D17*
%TO.C,H1*%
X95500000Y-96000000D03*
%TD*%
%TO.C,H4*%
X186000000Y-46000000D03*
%TD*%
D14*
%TO.C,J2*%
X178950000Y-48975000D03*
X163950000Y-48975000D03*
D15*
X163950000Y-53975000D03*
X166450000Y-56475000D03*
X171450000Y-53975000D03*
X176450000Y-56475000D03*
X178950000Y-53975000D03*
X171450000Y-58975000D03*
X173950000Y-43975000D03*
X168950000Y-43975000D03*
%TD*%
D12*
%TO.C,R2*%
X179070000Y-83185000D03*
D13*
X179070000Y-88265000D03*
%TD*%
D17*
%TO.C,H2*%
X186000000Y-96000000D03*
%TD*%
M02*
