M48
; DRILL file {KiCad (6.0.11)} date Sun Jul 28 13:45:35 2024
; FORMAT={-:-/ absolute / inch / decimal}
; #@! TF.CreationDate,2024-07-28T13:45:35-05:00
; #@! TF.GenerationSoftware,Kicad,Pcbnew,(6.0.11)
; #@! TF.FileFunction,Plated,1,2,PTH
FMAT,2
INCH
; #@! TA.AperFunction,Plated,PTH,ViaDrill
T1C0.0157
; #@! TA.AperFunction,Plated,PTH,ComponentDrill
T2C0.0276
; #@! TA.AperFunction,Plated,PTH,ComponentDrill
T3C0.0315
; #@! TA.AperFunction,Plated,PTH,ComponentDrill
T4C0.0394
; #@! TA.AperFunction,Plated,PTH,ComponentDrill
T5C0.0512
%
G90
G05
T1
X4.991Y-3.6536
X5.8196Y-3.1107
T2
X5.675Y-2.675
X5.875Y-2.675
X6.725Y-3.275
X6.725Y-3.475
X6.95Y-2.6
X6.95Y-2.8
X7.05Y-3.275
X7.05Y-3.475
X7.175Y-2.6
X7.175Y-2.8
X7.35Y-2.875
X7.35Y-3.075
T3
X6.15Y-3.2
X6.15Y-3.3
X6.15Y-3.4
X6.15Y-3.5
X6.15Y-3.6
X6.15Y-3.7
X6.15Y-3.8
X6.2016Y-2.925
X6.3984Y-2.925
X6.45Y-3.2
X6.45Y-3.3
X6.45Y-3.4
X6.45Y-3.5
X6.45Y-3.6
X6.45Y-3.7
X6.45Y-3.8
T4
X3.898Y-2.091
X3.898Y-2.191
X3.898Y-2.291
X3.898Y-2.391
X3.898Y-2.491
X3.898Y-2.591
X3.898Y-2.691
X3.898Y-2.791
X3.898Y-2.891
X3.898Y-2.991
X3.898Y-3.091
X3.898Y-3.191
X3.898Y-3.291
X3.898Y-3.391
X3.898Y-3.491
X4.8996Y-2.091
X4.8996Y-2.191
X4.8996Y-2.291
X4.8996Y-2.391
X4.8996Y-2.491
X4.8996Y-2.591
X4.8996Y-2.691
X4.8996Y-2.791
X4.8996Y-2.891
X4.8996Y-2.991
X4.8996Y-3.091
X4.8996Y-3.191
X4.8996Y-3.291
X4.8996Y-3.391
X4.8996Y-3.491
X5.4453Y-3.2948
X5.4453Y-3.3948
X5.4453Y-3.4948
X5.4453Y-3.5948
X5.4453Y-3.6948
X5.4453Y-3.7948
X5.5Y-2.6756
X5.5Y-2.7756
X5.5Y-2.8756
X5.8469Y-3.2964
X5.8469Y-3.3964
X5.8469Y-3.4964
X5.8469Y-3.5964
X5.8469Y-3.6964
X5.8469Y-3.7948
X6.725Y-3.6998
X6.725Y-3.7998
X7.05Y-3.6998
X7.05Y-3.7998
X7.35Y-3.2998
X7.35Y-3.3998
T5
X5.371Y-2.128
X5.4694Y-2.2264
X5.5678Y-1.7343
X5.6662Y-2.128
X5.6662Y-2.3248
X5.7647Y-1.7343
X5.8631Y-2.2264
X5.9615Y-2.128
X6.4547Y-2.125
X6.5531Y-2.2234
X6.6516Y-1.7313
X6.75Y-2.125
X6.75Y-2.3219
X6.8484Y-1.7313
X6.9469Y-2.2234
X7.0453Y-2.125
T0
M30
