%TF.GenerationSoftware,KiCad,Pcbnew,(6.0.11)*%
%TF.CreationDate,2024-07-28T13:45:38-05:00*%
%TF.ProjectId,iecprinter,69656370-7269-46e7-9465-722e6b696361,rev?*%
%TF.SameCoordinates,Original*%
%TF.FileFunction,Legend,Bot*%
%TF.FilePolarity,Positive*%
%FSLAX46Y46*%
G04 Gerber Fmt 4.6, Leading zero omitted, Abs format (unit mm)*
G04 Created by KiCad (PCBNEW (6.0.11)) date 2024-07-28 13:45:38*
%MOMM*%
%LPD*%
G01*
G04 APERTURE LIST*
%ADD10C,0.108000*%
%ADD11C,0.150000*%
G04 APERTURE END LIST*
D10*
%TO.C,R6*%
X171140714Y-85605000D02*
X170797857Y-85365000D01*
X171140714Y-85193571D02*
X170420714Y-85193571D01*
X170420714Y-85467857D01*
X170455000Y-85536428D01*
X170489285Y-85570714D01*
X170557857Y-85605000D01*
X170660714Y-85605000D01*
X170729285Y-85570714D01*
X170763571Y-85536428D01*
X170797857Y-85467857D01*
X170797857Y-85193571D01*
X170420714Y-86222142D02*
X170420714Y-86085000D01*
X170455000Y-86016428D01*
X170489285Y-85982142D01*
X170592142Y-85913571D01*
X170729285Y-85879285D01*
X171003571Y-85879285D01*
X171072142Y-85913571D01*
X171106428Y-85947857D01*
X171140714Y-86016428D01*
X171140714Y-86153571D01*
X171106428Y-86222142D01*
X171072142Y-86256428D01*
X171003571Y-86290714D01*
X170832142Y-86290714D01*
X170763571Y-86256428D01*
X170729285Y-86222142D01*
X170695000Y-86153571D01*
X170695000Y-86016428D01*
X170729285Y-85947857D01*
X170763571Y-85913571D01*
X170832142Y-85879285D01*
%TO.C,R5*%
X146805000Y-68270714D02*
X147045000Y-67927857D01*
X147216428Y-68270714D02*
X147216428Y-67550714D01*
X146942142Y-67550714D01*
X146873571Y-67585000D01*
X146839285Y-67619285D01*
X146805000Y-67687857D01*
X146805000Y-67790714D01*
X146839285Y-67859285D01*
X146873571Y-67893571D01*
X146942142Y-67927857D01*
X147216428Y-67927857D01*
X146153571Y-67550714D02*
X146496428Y-67550714D01*
X146530714Y-67893571D01*
X146496428Y-67859285D01*
X146427857Y-67825000D01*
X146256428Y-67825000D01*
X146187857Y-67859285D01*
X146153571Y-67893571D01*
X146119285Y-67962142D01*
X146119285Y-68133571D01*
X146153571Y-68202142D01*
X146187857Y-68236428D01*
X146256428Y-68270714D01*
X146427857Y-68270714D01*
X146496428Y-68236428D01*
X146530714Y-68202142D01*
%TO.C,R4*%
X187015714Y-75445000D02*
X186672857Y-75205000D01*
X187015714Y-75033571D02*
X186295714Y-75033571D01*
X186295714Y-75307857D01*
X186330000Y-75376428D01*
X186364285Y-75410714D01*
X186432857Y-75445000D01*
X186535714Y-75445000D01*
X186604285Y-75410714D01*
X186638571Y-75376428D01*
X186672857Y-75307857D01*
X186672857Y-75033571D01*
X186535714Y-76062142D02*
X187015714Y-76062142D01*
X186261428Y-75890714D02*
X186775714Y-75719285D01*
X186775714Y-76165000D01*
D11*
%TO.C,J6*%
X139152380Y-70166666D02*
X139866666Y-70166666D01*
X140009523Y-70119047D01*
X140104761Y-70023809D01*
X140152380Y-69880952D01*
X140152380Y-69785714D01*
X139152380Y-71071428D02*
X139152380Y-70880952D01*
X139200000Y-70785714D01*
X139247619Y-70738095D01*
X139390476Y-70642857D01*
X139580952Y-70595238D01*
X139961904Y-70595238D01*
X140057142Y-70642857D01*
X140104761Y-70690476D01*
X140152380Y-70785714D01*
X140152380Y-70976190D01*
X140104761Y-71071428D01*
X140057142Y-71119047D01*
X139961904Y-71166666D01*
X139723809Y-71166666D01*
X139628571Y-71119047D01*
X139580952Y-71071428D01*
X139533333Y-70976190D01*
X139533333Y-70785714D01*
X139580952Y-70690476D01*
X139628571Y-70642857D01*
X139723809Y-70595238D01*
%TO.C,J5*%
X170267380Y-94911666D02*
X170981666Y-94911666D01*
X171124523Y-94864047D01*
X171219761Y-94768809D01*
X171267380Y-94625952D01*
X171267380Y-94530714D01*
X170267380Y-95864047D02*
X170267380Y-95387857D01*
X170743571Y-95340238D01*
X170695952Y-95387857D01*
X170648333Y-95483095D01*
X170648333Y-95721190D01*
X170695952Y-95816428D01*
X170743571Y-95864047D01*
X170838809Y-95911666D01*
X171076904Y-95911666D01*
X171172142Y-95864047D01*
X171219761Y-95816428D01*
X171267380Y-95721190D01*
X171267380Y-95483095D01*
X171219761Y-95387857D01*
X171172142Y-95340238D01*
%TO.C,J4*%
X186142380Y-84751666D02*
X186856666Y-84751666D01*
X186999523Y-84704047D01*
X187094761Y-84608809D01*
X187142380Y-84465952D01*
X187142380Y-84370714D01*
X186475714Y-85656428D02*
X187142380Y-85656428D01*
X186094761Y-85418333D02*
X186809047Y-85180238D01*
X186809047Y-85799285D01*
%TO.C,J3*%
X178522380Y-94911666D02*
X179236666Y-94911666D01*
X179379523Y-94864047D01*
X179474761Y-94768809D01*
X179522380Y-94625952D01*
X179522380Y-94530714D01*
X178522380Y-95292619D02*
X178522380Y-95911666D01*
X178903333Y-95578333D01*
X178903333Y-95721190D01*
X178950952Y-95816428D01*
X178998571Y-95864047D01*
X179093809Y-95911666D01*
X179331904Y-95911666D01*
X179427142Y-95864047D01*
X179474761Y-95816428D01*
X179522380Y-95721190D01*
X179522380Y-95435476D01*
X179474761Y-95340238D01*
X179427142Y-95292619D01*
%TO.C,C1*%
X160186666Y-74652142D02*
X160234285Y-74699761D01*
X160377142Y-74747380D01*
X160472380Y-74747380D01*
X160615238Y-74699761D01*
X160710476Y-74604523D01*
X160758095Y-74509285D01*
X160805714Y-74318809D01*
X160805714Y-74175952D01*
X160758095Y-73985476D01*
X160710476Y-73890238D01*
X160615238Y-73795000D01*
X160472380Y-73747380D01*
X160377142Y-73747380D01*
X160234285Y-73795000D01*
X160186666Y-73842619D01*
X159234285Y-74747380D02*
X159805714Y-74747380D01*
X159520000Y-74747380D02*
X159520000Y-73747380D01*
X159615238Y-73890238D01*
X159710476Y-73985476D01*
X159805714Y-74033095D01*
%TO.C,U1*%
X142962380Y-88138095D02*
X143771904Y-88138095D01*
X143867142Y-88185714D01*
X143914761Y-88233333D01*
X143962380Y-88328571D01*
X143962380Y-88519047D01*
X143914761Y-88614285D01*
X143867142Y-88661904D01*
X143771904Y-88709523D01*
X142962380Y-88709523D01*
X143962380Y-89709523D02*
X143962380Y-89138095D01*
X143962380Y-89423809D02*
X142962380Y-89423809D01*
X143105238Y-89328571D01*
X143200476Y-89233333D01*
X143248095Y-89138095D01*
D10*
%TO.C,R1*%
X176855714Y-68460000D02*
X176512857Y-68220000D01*
X176855714Y-68048571D02*
X176135714Y-68048571D01*
X176135714Y-68322857D01*
X176170000Y-68391428D01*
X176204285Y-68425714D01*
X176272857Y-68460000D01*
X176375714Y-68460000D01*
X176444285Y-68425714D01*
X176478571Y-68391428D01*
X176512857Y-68322857D01*
X176512857Y-68048571D01*
X176855714Y-69145714D02*
X176855714Y-68734285D01*
X176855714Y-68940000D02*
X176135714Y-68940000D01*
X176238571Y-68871428D01*
X176307142Y-68802857D01*
X176341428Y-68734285D01*
%TO.C,R3*%
X182570714Y-68460000D02*
X182227857Y-68220000D01*
X182570714Y-68048571D02*
X181850714Y-68048571D01*
X181850714Y-68322857D01*
X181885000Y-68391428D01*
X181919285Y-68425714D01*
X181987857Y-68460000D01*
X182090714Y-68460000D01*
X182159285Y-68425714D01*
X182193571Y-68391428D01*
X182227857Y-68322857D01*
X182227857Y-68048571D01*
X181850714Y-68700000D02*
X181850714Y-69145714D01*
X182125000Y-68905714D01*
X182125000Y-69008571D01*
X182159285Y-69077142D01*
X182193571Y-69111428D01*
X182262142Y-69145714D01*
X182433571Y-69145714D01*
X182502142Y-69111428D01*
X182536428Y-69077142D01*
X182570714Y-69008571D01*
X182570714Y-68802857D01*
X182536428Y-68734285D01*
X182502142Y-68700000D01*
D11*
%TO.C,U6*%
X160781904Y-88352380D02*
X160781904Y-89161904D01*
X160734285Y-89257142D01*
X160686666Y-89304761D01*
X160591428Y-89352380D01*
X160400952Y-89352380D01*
X160305714Y-89304761D01*
X160258095Y-89257142D01*
X160210476Y-89161904D01*
X160210476Y-88352380D01*
X159305714Y-88352380D02*
X159496190Y-88352380D01*
X159591428Y-88400000D01*
X159639047Y-88447619D01*
X159734285Y-88590476D01*
X159781904Y-88780952D01*
X159781904Y-89161904D01*
X159734285Y-89257142D01*
X159686666Y-89304761D01*
X159591428Y-89352380D01*
X159400952Y-89352380D01*
X159305714Y-89304761D01*
X159258095Y-89257142D01*
X159210476Y-89161904D01*
X159210476Y-88923809D01*
X159258095Y-88828571D01*
X159305714Y-88780952D01*
X159400952Y-88733333D01*
X159591428Y-88733333D01*
X159686666Y-88780952D01*
X159734285Y-88828571D01*
X159781904Y-88923809D01*
D10*
%TO.C,R2*%
X179395714Y-85605000D02*
X179052857Y-85365000D01*
X179395714Y-85193571D02*
X178675714Y-85193571D01*
X178675714Y-85467857D01*
X178710000Y-85536428D01*
X178744285Y-85570714D01*
X178812857Y-85605000D01*
X178915714Y-85605000D01*
X178984285Y-85570714D01*
X179018571Y-85536428D01*
X179052857Y-85467857D01*
X179052857Y-85193571D01*
X178744285Y-85879285D02*
X178710000Y-85913571D01*
X178675714Y-85982142D01*
X178675714Y-86153571D01*
X178710000Y-86222142D01*
X178744285Y-86256428D01*
X178812857Y-86290714D01*
X178881428Y-86290714D01*
X178984285Y-86256428D01*
X179395714Y-85845000D01*
X179395714Y-86290714D01*
%TD*%
M02*
