%TF.GenerationSoftware,KiCad,Pcbnew,(6.0.11)*%
%TF.CreationDate,2024-07-28T13:45:36-05:00*%
%TF.ProjectId,iecprinter,69656370-7269-46e7-9465-722e6b696361,rev?*%
%TF.SameCoordinates,Original*%
%TF.FileFunction,Drillmap*%
%TF.FilePolarity,Positive*%
%FSLAX45Y45*%
G04 Gerber Fmt 4.5, Leading zero omitted, Abs format (unit mm)*
G04 Created by KiCad (PCBNEW (6.0.11)) date 2024-07-28 13:45:36*
%MOMM*%
%LPD*%
G01*
G04 APERTURE LIST*
%ADD10C,0.200000*%
%ADD11C,0.240000*%
%ADD12C,0.320000*%
G04 APERTURE END LIST*
D10*
X9100000Y-4100000D02*
X19100000Y-4100000D01*
X19100000Y-4100000D02*
X19100000Y-10100000D01*
X19100000Y-10100000D02*
X9100000Y-10100000D01*
X9100000Y-10100000D02*
X9100000Y-4100000D01*
D11*
X13522250Y-4785000D02*
X13762250Y-5025000D01*
X13762250Y-4785000D02*
X13522250Y-5025000D01*
X15022250Y-4785000D02*
X15262250Y-5025000D01*
X15262250Y-4785000D02*
X15022250Y-5025000D01*
X16275000Y-4777500D02*
X16515000Y-5017500D01*
X16515000Y-4777500D02*
X16275000Y-5017500D01*
X17775000Y-4777500D02*
X18015000Y-5017500D01*
X18015000Y-4777500D02*
X17775000Y-5017500D01*
D12*
X9710000Y-4600000D02*
G75*
G03*
X9710000Y-4600000I-160000J0D01*
G01*
X9710000Y-9600000D02*
G75*
G03*
X9710000Y-9600000I-160000J0D01*
G01*
X18760000Y-4600000D02*
G75*
G03*
X18760000Y-4600000I-160000J0D01*
G01*
X18760000Y-9600000D02*
G75*
G03*
X18760000Y-9600000I-160000J0D01*
G01*
D10*
X9347619Y-10420476D02*
X9347619Y-10220476D01*
X9395238Y-10220476D01*
X9423810Y-10230000D01*
X9442857Y-10249048D01*
X9452381Y-10268095D01*
X9461905Y-10306190D01*
X9461905Y-10334762D01*
X9452381Y-10372857D01*
X9442857Y-10391905D01*
X9423810Y-10410952D01*
X9395238Y-10420476D01*
X9347619Y-10420476D01*
X9547619Y-10420476D02*
X9547619Y-10287143D01*
X9547619Y-10325238D02*
X9557143Y-10306190D01*
X9566667Y-10296667D01*
X9585714Y-10287143D01*
X9604762Y-10287143D01*
X9671429Y-10420476D02*
X9671429Y-10287143D01*
X9671429Y-10220476D02*
X9661905Y-10230000D01*
X9671429Y-10239524D01*
X9680952Y-10230000D01*
X9671429Y-10220476D01*
X9671429Y-10239524D01*
X9795238Y-10420476D02*
X9776190Y-10410952D01*
X9766667Y-10391905D01*
X9766667Y-10220476D01*
X9900000Y-10420476D02*
X9880952Y-10410952D01*
X9871429Y-10391905D01*
X9871429Y-10220476D01*
X10128571Y-10420476D02*
X10128571Y-10220476D01*
X10195238Y-10363333D01*
X10261905Y-10220476D01*
X10261905Y-10420476D01*
X10442857Y-10420476D02*
X10442857Y-10315714D01*
X10433333Y-10296667D01*
X10414286Y-10287143D01*
X10376190Y-10287143D01*
X10357143Y-10296667D01*
X10442857Y-10410952D02*
X10423810Y-10420476D01*
X10376190Y-10420476D01*
X10357143Y-10410952D01*
X10347619Y-10391905D01*
X10347619Y-10372857D01*
X10357143Y-10353810D01*
X10376190Y-10344286D01*
X10423810Y-10344286D01*
X10442857Y-10334762D01*
X10538095Y-10287143D02*
X10538095Y-10487143D01*
X10538095Y-10296667D02*
X10557143Y-10287143D01*
X10595238Y-10287143D01*
X10614286Y-10296667D01*
X10623810Y-10306190D01*
X10633333Y-10325238D01*
X10633333Y-10382381D01*
X10623810Y-10401429D01*
X10614286Y-10410952D01*
X10595238Y-10420476D01*
X10557143Y-10420476D01*
X10538095Y-10410952D01*
X10719048Y-10401429D02*
X10728571Y-10410952D01*
X10719048Y-10420476D01*
X10709524Y-10410952D01*
X10719048Y-10401429D01*
X10719048Y-10420476D01*
X10719048Y-10296667D02*
X10728571Y-10306190D01*
X10719048Y-10315714D01*
X10709524Y-10306190D01*
X10719048Y-10296667D01*
X10719048Y-10315714D01*
X8890000Y-10650000D02*
X9090000Y-10850000D01*
X9090000Y-10650000D02*
X8890000Y-10850000D01*
X9338095Y-10659524D02*
X9347619Y-10650000D01*
X9366667Y-10640476D01*
X9414286Y-10640476D01*
X9433333Y-10650000D01*
X9442857Y-10659524D01*
X9452381Y-10678571D01*
X9452381Y-10697619D01*
X9442857Y-10726190D01*
X9328571Y-10840476D01*
X9452381Y-10840476D01*
X9538095Y-10821429D02*
X9547619Y-10830952D01*
X9538095Y-10840476D01*
X9528571Y-10830952D01*
X9538095Y-10821429D01*
X9538095Y-10840476D01*
X9719048Y-10707143D02*
X9719048Y-10840476D01*
X9671429Y-10630952D02*
X9623810Y-10773810D01*
X9747619Y-10773810D01*
X9861905Y-10640476D02*
X9880952Y-10640476D01*
X9900000Y-10650000D01*
X9909524Y-10659524D01*
X9919048Y-10678571D01*
X9928571Y-10716667D01*
X9928571Y-10764286D01*
X9919048Y-10802381D01*
X9909524Y-10821429D01*
X9900000Y-10830952D01*
X9880952Y-10840476D01*
X9861905Y-10840476D01*
X9842857Y-10830952D01*
X9833333Y-10821429D01*
X9823810Y-10802381D01*
X9814286Y-10764286D01*
X9814286Y-10716667D01*
X9823810Y-10678571D01*
X9833333Y-10659524D01*
X9842857Y-10650000D01*
X9861905Y-10640476D01*
X10052381Y-10640476D02*
X10071429Y-10640476D01*
X10090476Y-10650000D01*
X10100000Y-10659524D01*
X10109524Y-10678571D01*
X10119048Y-10716667D01*
X10119048Y-10764286D01*
X10109524Y-10802381D01*
X10100000Y-10821429D01*
X10090476Y-10830952D01*
X10071429Y-10840476D01*
X10052381Y-10840476D01*
X10033333Y-10830952D01*
X10023810Y-10821429D01*
X10014286Y-10802381D01*
X10004762Y-10764286D01*
X10004762Y-10716667D01*
X10014286Y-10678571D01*
X10023810Y-10659524D01*
X10033333Y-10650000D01*
X10052381Y-10640476D01*
X10204762Y-10840476D02*
X10204762Y-10707143D01*
X10204762Y-10726190D02*
X10214286Y-10716667D01*
X10233333Y-10707143D01*
X10261905Y-10707143D01*
X10280952Y-10716667D01*
X10290476Y-10735714D01*
X10290476Y-10840476D01*
X10290476Y-10735714D02*
X10300000Y-10716667D01*
X10319048Y-10707143D01*
X10347619Y-10707143D01*
X10366667Y-10716667D01*
X10376190Y-10735714D01*
X10376190Y-10840476D01*
X10471429Y-10840476D02*
X10471429Y-10707143D01*
X10471429Y-10726190D02*
X10480952Y-10716667D01*
X10500000Y-10707143D01*
X10528571Y-10707143D01*
X10547619Y-10716667D01*
X10557143Y-10735714D01*
X10557143Y-10840476D01*
X10557143Y-10735714D02*
X10566667Y-10716667D01*
X10585714Y-10707143D01*
X10614286Y-10707143D01*
X10633333Y-10716667D01*
X10642857Y-10735714D01*
X10642857Y-10840476D01*
X11033333Y-10630952D02*
X10861905Y-10888095D01*
X11290476Y-10640476D02*
X11309524Y-10640476D01*
X11328571Y-10650000D01*
X11338095Y-10659524D01*
X11347619Y-10678571D01*
X11357143Y-10716667D01*
X11357143Y-10764286D01*
X11347619Y-10802381D01*
X11338095Y-10821429D01*
X11328571Y-10830952D01*
X11309524Y-10840476D01*
X11290476Y-10840476D01*
X11271428Y-10830952D01*
X11261905Y-10821429D01*
X11252381Y-10802381D01*
X11242857Y-10764286D01*
X11242857Y-10716667D01*
X11252381Y-10678571D01*
X11261905Y-10659524D01*
X11271428Y-10650000D01*
X11290476Y-10640476D01*
X11442857Y-10821429D02*
X11452381Y-10830952D01*
X11442857Y-10840476D01*
X11433333Y-10830952D01*
X11442857Y-10821429D01*
X11442857Y-10840476D01*
X11576190Y-10640476D02*
X11595238Y-10640476D01*
X11614286Y-10650000D01*
X11623809Y-10659524D01*
X11633333Y-10678571D01*
X11642857Y-10716667D01*
X11642857Y-10764286D01*
X11633333Y-10802381D01*
X11623809Y-10821429D01*
X11614286Y-10830952D01*
X11595238Y-10840476D01*
X11576190Y-10840476D01*
X11557143Y-10830952D01*
X11547619Y-10821429D01*
X11538095Y-10802381D01*
X11528571Y-10764286D01*
X11528571Y-10716667D01*
X11538095Y-10678571D01*
X11547619Y-10659524D01*
X11557143Y-10650000D01*
X11576190Y-10640476D01*
X11738095Y-10840476D02*
X11776190Y-10840476D01*
X11795238Y-10830952D01*
X11804762Y-10821429D01*
X11823809Y-10792857D01*
X11833333Y-10754762D01*
X11833333Y-10678571D01*
X11823809Y-10659524D01*
X11814286Y-10650000D01*
X11795238Y-10640476D01*
X11757143Y-10640476D01*
X11738095Y-10650000D01*
X11728571Y-10659524D01*
X11719048Y-10678571D01*
X11719048Y-10726190D01*
X11728571Y-10745238D01*
X11738095Y-10754762D01*
X11757143Y-10764286D01*
X11795238Y-10764286D01*
X11814286Y-10754762D01*
X11823809Y-10745238D01*
X11833333Y-10726190D01*
X12004762Y-10707143D02*
X12004762Y-10840476D01*
X11957143Y-10630952D02*
X11909524Y-10773810D01*
X12033333Y-10773810D01*
X12204762Y-10640476D02*
X12109524Y-10640476D01*
X12100000Y-10735714D01*
X12109524Y-10726190D01*
X12128571Y-10716667D01*
X12176190Y-10716667D01*
X12195238Y-10726190D01*
X12204762Y-10735714D01*
X12214286Y-10754762D01*
X12214286Y-10802381D01*
X12204762Y-10821429D01*
X12195238Y-10830952D01*
X12176190Y-10840476D01*
X12128571Y-10840476D01*
X12109524Y-10830952D01*
X12100000Y-10821429D01*
X12290476Y-10640476D02*
X12290476Y-10678571D01*
X12366667Y-10640476D02*
X12366667Y-10678571D01*
X12661905Y-10916667D02*
X12652381Y-10907143D01*
X12633333Y-10878571D01*
X12623809Y-10859524D01*
X12614286Y-10830952D01*
X12604762Y-10783333D01*
X12604762Y-10745238D01*
X12614286Y-10697619D01*
X12623809Y-10669048D01*
X12633333Y-10650000D01*
X12652381Y-10621429D01*
X12661905Y-10611905D01*
X12823809Y-10707143D02*
X12823809Y-10840476D01*
X12776190Y-10630952D02*
X12728571Y-10773810D01*
X12852381Y-10773810D01*
X13080952Y-10840476D02*
X13080952Y-10640476D01*
X13166667Y-10840476D02*
X13166667Y-10735714D01*
X13157143Y-10716667D01*
X13138095Y-10707143D01*
X13109524Y-10707143D01*
X13090476Y-10716667D01*
X13080952Y-10726190D01*
X13290476Y-10840476D02*
X13271428Y-10830952D01*
X13261905Y-10821429D01*
X13252381Y-10802381D01*
X13252381Y-10745238D01*
X13261905Y-10726190D01*
X13271428Y-10716667D01*
X13290476Y-10707143D01*
X13319048Y-10707143D01*
X13338095Y-10716667D01*
X13347619Y-10726190D01*
X13357143Y-10745238D01*
X13357143Y-10802381D01*
X13347619Y-10821429D01*
X13338095Y-10830952D01*
X13319048Y-10840476D01*
X13290476Y-10840476D01*
X13471428Y-10840476D02*
X13452381Y-10830952D01*
X13442857Y-10811905D01*
X13442857Y-10640476D01*
X13623809Y-10830952D02*
X13604762Y-10840476D01*
X13566667Y-10840476D01*
X13547619Y-10830952D01*
X13538095Y-10811905D01*
X13538095Y-10735714D01*
X13547619Y-10716667D01*
X13566667Y-10707143D01*
X13604762Y-10707143D01*
X13623809Y-10716667D01*
X13633333Y-10735714D01*
X13633333Y-10754762D01*
X13538095Y-10773810D01*
X13709524Y-10830952D02*
X13728571Y-10840476D01*
X13766667Y-10840476D01*
X13785714Y-10830952D01*
X13795238Y-10811905D01*
X13795238Y-10802381D01*
X13785714Y-10783333D01*
X13766667Y-10773810D01*
X13738095Y-10773810D01*
X13719048Y-10764286D01*
X13709524Y-10745238D01*
X13709524Y-10735714D01*
X13719048Y-10716667D01*
X13738095Y-10707143D01*
X13766667Y-10707143D01*
X13785714Y-10716667D01*
X13861905Y-10916667D02*
X13871428Y-10907143D01*
X13890476Y-10878571D01*
X13900000Y-10859524D01*
X13909524Y-10830952D01*
X13919048Y-10783333D01*
X13919048Y-10745238D01*
X13909524Y-10697619D01*
X13900000Y-10669048D01*
X13890476Y-10650000D01*
X13871428Y-10621429D01*
X13861905Y-10611905D01*
X14223809Y-10916667D02*
X14214286Y-10907143D01*
X14195238Y-10878571D01*
X14185714Y-10859524D01*
X14176190Y-10830952D01*
X14166667Y-10783333D01*
X14166667Y-10745238D01*
X14176190Y-10697619D01*
X14185714Y-10669048D01*
X14195238Y-10650000D01*
X14214286Y-10621429D01*
X14223809Y-10611905D01*
X14300000Y-10707143D02*
X14300000Y-10840476D01*
X14300000Y-10726190D02*
X14309524Y-10716667D01*
X14328571Y-10707143D01*
X14357143Y-10707143D01*
X14376190Y-10716667D01*
X14385714Y-10735714D01*
X14385714Y-10840476D01*
X14509524Y-10840476D02*
X14490476Y-10830952D01*
X14480952Y-10821429D01*
X14471428Y-10802381D01*
X14471428Y-10745238D01*
X14480952Y-10726190D01*
X14490476Y-10716667D01*
X14509524Y-10707143D01*
X14538095Y-10707143D01*
X14557143Y-10716667D01*
X14566667Y-10726190D01*
X14576190Y-10745238D01*
X14576190Y-10802381D01*
X14566667Y-10821429D01*
X14557143Y-10830952D01*
X14538095Y-10840476D01*
X14509524Y-10840476D01*
X14633333Y-10707143D02*
X14709524Y-10707143D01*
X14661905Y-10640476D02*
X14661905Y-10811905D01*
X14671428Y-10830952D01*
X14690476Y-10840476D01*
X14709524Y-10840476D01*
X14928571Y-10707143D02*
X14928571Y-10907143D01*
X14928571Y-10716667D02*
X14947619Y-10707143D01*
X14985714Y-10707143D01*
X15004762Y-10716667D01*
X15014286Y-10726190D01*
X15023809Y-10745238D01*
X15023809Y-10802381D01*
X15014286Y-10821429D01*
X15004762Y-10830952D01*
X14985714Y-10840476D01*
X14947619Y-10840476D01*
X14928571Y-10830952D01*
X15138095Y-10840476D02*
X15119048Y-10830952D01*
X15109524Y-10811905D01*
X15109524Y-10640476D01*
X15300000Y-10840476D02*
X15300000Y-10735714D01*
X15290476Y-10716667D01*
X15271428Y-10707143D01*
X15233333Y-10707143D01*
X15214286Y-10716667D01*
X15300000Y-10830952D02*
X15280952Y-10840476D01*
X15233333Y-10840476D01*
X15214286Y-10830952D01*
X15204762Y-10811905D01*
X15204762Y-10792857D01*
X15214286Y-10773810D01*
X15233333Y-10764286D01*
X15280952Y-10764286D01*
X15300000Y-10754762D01*
X15366667Y-10707143D02*
X15442857Y-10707143D01*
X15395238Y-10640476D02*
X15395238Y-10811905D01*
X15404762Y-10830952D01*
X15423809Y-10840476D01*
X15442857Y-10840476D01*
X15585714Y-10830952D02*
X15566667Y-10840476D01*
X15528571Y-10840476D01*
X15509524Y-10830952D01*
X15500000Y-10811905D01*
X15500000Y-10735714D01*
X15509524Y-10716667D01*
X15528571Y-10707143D01*
X15566667Y-10707143D01*
X15585714Y-10716667D01*
X15595238Y-10735714D01*
X15595238Y-10754762D01*
X15500000Y-10773810D01*
X15766667Y-10840476D02*
X15766667Y-10640476D01*
X15766667Y-10830952D02*
X15747619Y-10840476D01*
X15709524Y-10840476D01*
X15690476Y-10830952D01*
X15680952Y-10821429D01*
X15671428Y-10802381D01*
X15671428Y-10745238D01*
X15680952Y-10726190D01*
X15690476Y-10716667D01*
X15709524Y-10707143D01*
X15747619Y-10707143D01*
X15766667Y-10716667D01*
X15842857Y-10916667D02*
X15852381Y-10907143D01*
X15871428Y-10878571D01*
X15880952Y-10859524D01*
X15890476Y-10830952D01*
X15900000Y-10783333D01*
X15900000Y-10745238D01*
X15890476Y-10697619D01*
X15880952Y-10669048D01*
X15871428Y-10650000D01*
X15852381Y-10621429D01*
X15842857Y-10611905D01*
X9090000Y-11070000D02*
G75*
G03*
X9090000Y-11070000I-100000J0D01*
G01*
X9328571Y-10960476D02*
X9452381Y-10960476D01*
X9385714Y-11036667D01*
X9414286Y-11036667D01*
X9433333Y-11046190D01*
X9442857Y-11055714D01*
X9452381Y-11074762D01*
X9452381Y-11122381D01*
X9442857Y-11141429D01*
X9433333Y-11150952D01*
X9414286Y-11160476D01*
X9357143Y-11160476D01*
X9338095Y-11150952D01*
X9328571Y-11141429D01*
X9538095Y-11141429D02*
X9547619Y-11150952D01*
X9538095Y-11160476D01*
X9528571Y-11150952D01*
X9538095Y-11141429D01*
X9538095Y-11160476D01*
X9623810Y-10979524D02*
X9633333Y-10970000D01*
X9652381Y-10960476D01*
X9700000Y-10960476D01*
X9719048Y-10970000D01*
X9728571Y-10979524D01*
X9738095Y-10998571D01*
X9738095Y-11017619D01*
X9728571Y-11046190D01*
X9614286Y-11160476D01*
X9738095Y-11160476D01*
X9861905Y-10960476D02*
X9880952Y-10960476D01*
X9900000Y-10970000D01*
X9909524Y-10979524D01*
X9919048Y-10998571D01*
X9928571Y-11036667D01*
X9928571Y-11084286D01*
X9919048Y-11122381D01*
X9909524Y-11141429D01*
X9900000Y-11150952D01*
X9880952Y-11160476D01*
X9861905Y-11160476D01*
X9842857Y-11150952D01*
X9833333Y-11141429D01*
X9823810Y-11122381D01*
X9814286Y-11084286D01*
X9814286Y-11036667D01*
X9823810Y-10998571D01*
X9833333Y-10979524D01*
X9842857Y-10970000D01*
X9861905Y-10960476D01*
X10052381Y-10960476D02*
X10071429Y-10960476D01*
X10090476Y-10970000D01*
X10100000Y-10979524D01*
X10109524Y-10998571D01*
X10119048Y-11036667D01*
X10119048Y-11084286D01*
X10109524Y-11122381D01*
X10100000Y-11141429D01*
X10090476Y-11150952D01*
X10071429Y-11160476D01*
X10052381Y-11160476D01*
X10033333Y-11150952D01*
X10023810Y-11141429D01*
X10014286Y-11122381D01*
X10004762Y-11084286D01*
X10004762Y-11036667D01*
X10014286Y-10998571D01*
X10023810Y-10979524D01*
X10033333Y-10970000D01*
X10052381Y-10960476D01*
X10204762Y-11160476D02*
X10204762Y-11027143D01*
X10204762Y-11046190D02*
X10214286Y-11036667D01*
X10233333Y-11027143D01*
X10261905Y-11027143D01*
X10280952Y-11036667D01*
X10290476Y-11055714D01*
X10290476Y-11160476D01*
X10290476Y-11055714D02*
X10300000Y-11036667D01*
X10319048Y-11027143D01*
X10347619Y-11027143D01*
X10366667Y-11036667D01*
X10376190Y-11055714D01*
X10376190Y-11160476D01*
X10471429Y-11160476D02*
X10471429Y-11027143D01*
X10471429Y-11046190D02*
X10480952Y-11036667D01*
X10500000Y-11027143D01*
X10528571Y-11027143D01*
X10547619Y-11036667D01*
X10557143Y-11055714D01*
X10557143Y-11160476D01*
X10557143Y-11055714D02*
X10566667Y-11036667D01*
X10585714Y-11027143D01*
X10614286Y-11027143D01*
X10633333Y-11036667D01*
X10642857Y-11055714D01*
X10642857Y-11160476D01*
X11033333Y-10950952D02*
X10861905Y-11208095D01*
X11290476Y-10960476D02*
X11309524Y-10960476D01*
X11328571Y-10970000D01*
X11338095Y-10979524D01*
X11347619Y-10998571D01*
X11357143Y-11036667D01*
X11357143Y-11084286D01*
X11347619Y-11122381D01*
X11338095Y-11141429D01*
X11328571Y-11150952D01*
X11309524Y-11160476D01*
X11290476Y-11160476D01*
X11271428Y-11150952D01*
X11261905Y-11141429D01*
X11252381Y-11122381D01*
X11242857Y-11084286D01*
X11242857Y-11036667D01*
X11252381Y-10998571D01*
X11261905Y-10979524D01*
X11271428Y-10970000D01*
X11290476Y-10960476D01*
X11442857Y-11141429D02*
X11452381Y-11150952D01*
X11442857Y-11160476D01*
X11433333Y-11150952D01*
X11442857Y-11141429D01*
X11442857Y-11160476D01*
X11642857Y-11160476D02*
X11528571Y-11160476D01*
X11585714Y-11160476D02*
X11585714Y-10960476D01*
X11566667Y-10989048D01*
X11547619Y-11008095D01*
X11528571Y-11017619D01*
X11719048Y-10979524D02*
X11728571Y-10970000D01*
X11747619Y-10960476D01*
X11795238Y-10960476D01*
X11814286Y-10970000D01*
X11823809Y-10979524D01*
X11833333Y-10998571D01*
X11833333Y-11017619D01*
X11823809Y-11046190D01*
X11709524Y-11160476D01*
X11833333Y-11160476D01*
X12004762Y-10960476D02*
X11966667Y-10960476D01*
X11947619Y-10970000D01*
X11938095Y-10979524D01*
X11919048Y-11008095D01*
X11909524Y-11046190D01*
X11909524Y-11122381D01*
X11919048Y-11141429D01*
X11928571Y-11150952D01*
X11947619Y-11160476D01*
X11985714Y-11160476D01*
X12004762Y-11150952D01*
X12014286Y-11141429D01*
X12023809Y-11122381D01*
X12023809Y-11074762D01*
X12014286Y-11055714D01*
X12004762Y-11046190D01*
X11985714Y-11036667D01*
X11947619Y-11036667D01*
X11928571Y-11046190D01*
X11919048Y-11055714D01*
X11909524Y-11074762D01*
X12147619Y-10960476D02*
X12166667Y-10960476D01*
X12185714Y-10970000D01*
X12195238Y-10979524D01*
X12204762Y-10998571D01*
X12214286Y-11036667D01*
X12214286Y-11084286D01*
X12204762Y-11122381D01*
X12195238Y-11141429D01*
X12185714Y-11150952D01*
X12166667Y-11160476D01*
X12147619Y-11160476D01*
X12128571Y-11150952D01*
X12119048Y-11141429D01*
X12109524Y-11122381D01*
X12100000Y-11084286D01*
X12100000Y-11036667D01*
X12109524Y-10998571D01*
X12119048Y-10979524D01*
X12128571Y-10970000D01*
X12147619Y-10960476D01*
X12290476Y-10960476D02*
X12290476Y-10998571D01*
X12366667Y-10960476D02*
X12366667Y-10998571D01*
X12661905Y-11236667D02*
X12652381Y-11227143D01*
X12633333Y-11198571D01*
X12623809Y-11179524D01*
X12614286Y-11150952D01*
X12604762Y-11103333D01*
X12604762Y-11065238D01*
X12614286Y-11017619D01*
X12623809Y-10989048D01*
X12633333Y-10970000D01*
X12652381Y-10941429D01*
X12661905Y-10931905D01*
X12823809Y-11027143D02*
X12823809Y-11160476D01*
X12776190Y-10950952D02*
X12728571Y-11093810D01*
X12852381Y-11093810D01*
X13080952Y-11160476D02*
X13080952Y-10960476D01*
X13166667Y-11160476D02*
X13166667Y-11055714D01*
X13157143Y-11036667D01*
X13138095Y-11027143D01*
X13109524Y-11027143D01*
X13090476Y-11036667D01*
X13080952Y-11046190D01*
X13290476Y-11160476D02*
X13271428Y-11150952D01*
X13261905Y-11141429D01*
X13252381Y-11122381D01*
X13252381Y-11065238D01*
X13261905Y-11046190D01*
X13271428Y-11036667D01*
X13290476Y-11027143D01*
X13319048Y-11027143D01*
X13338095Y-11036667D01*
X13347619Y-11046190D01*
X13357143Y-11065238D01*
X13357143Y-11122381D01*
X13347619Y-11141429D01*
X13338095Y-11150952D01*
X13319048Y-11160476D01*
X13290476Y-11160476D01*
X13471428Y-11160476D02*
X13452381Y-11150952D01*
X13442857Y-11131905D01*
X13442857Y-10960476D01*
X13623809Y-11150952D02*
X13604762Y-11160476D01*
X13566667Y-11160476D01*
X13547619Y-11150952D01*
X13538095Y-11131905D01*
X13538095Y-11055714D01*
X13547619Y-11036667D01*
X13566667Y-11027143D01*
X13604762Y-11027143D01*
X13623809Y-11036667D01*
X13633333Y-11055714D01*
X13633333Y-11074762D01*
X13538095Y-11093810D01*
X13709524Y-11150952D02*
X13728571Y-11160476D01*
X13766667Y-11160476D01*
X13785714Y-11150952D01*
X13795238Y-11131905D01*
X13795238Y-11122381D01*
X13785714Y-11103333D01*
X13766667Y-11093810D01*
X13738095Y-11093810D01*
X13719048Y-11084286D01*
X13709524Y-11065238D01*
X13709524Y-11055714D01*
X13719048Y-11036667D01*
X13738095Y-11027143D01*
X13766667Y-11027143D01*
X13785714Y-11036667D01*
X13861905Y-11236667D02*
X13871428Y-11227143D01*
X13890476Y-11198571D01*
X13900000Y-11179524D01*
X13909524Y-11150952D01*
X13919048Y-11103333D01*
X13919048Y-11065238D01*
X13909524Y-11017619D01*
X13900000Y-10989048D01*
X13890476Y-10970000D01*
X13871428Y-10941429D01*
X13861905Y-10931905D01*
X14223809Y-11236667D02*
X14214286Y-11227143D01*
X14195238Y-11198571D01*
X14185714Y-11179524D01*
X14176190Y-11150952D01*
X14166667Y-11103333D01*
X14166667Y-11065238D01*
X14176190Y-11017619D01*
X14185714Y-10989048D01*
X14195238Y-10970000D01*
X14214286Y-10941429D01*
X14223809Y-10931905D01*
X14300000Y-11027143D02*
X14300000Y-11160476D01*
X14300000Y-11046190D02*
X14309524Y-11036667D01*
X14328571Y-11027143D01*
X14357143Y-11027143D01*
X14376190Y-11036667D01*
X14385714Y-11055714D01*
X14385714Y-11160476D01*
X14509524Y-11160476D02*
X14490476Y-11150952D01*
X14480952Y-11141429D01*
X14471428Y-11122381D01*
X14471428Y-11065238D01*
X14480952Y-11046190D01*
X14490476Y-11036667D01*
X14509524Y-11027143D01*
X14538095Y-11027143D01*
X14557143Y-11036667D01*
X14566667Y-11046190D01*
X14576190Y-11065238D01*
X14576190Y-11122381D01*
X14566667Y-11141429D01*
X14557143Y-11150952D01*
X14538095Y-11160476D01*
X14509524Y-11160476D01*
X14633333Y-11027143D02*
X14709524Y-11027143D01*
X14661905Y-10960476D02*
X14661905Y-11131905D01*
X14671428Y-11150952D01*
X14690476Y-11160476D01*
X14709524Y-11160476D01*
X14928571Y-11027143D02*
X14928571Y-11227143D01*
X14928571Y-11036667D02*
X14947619Y-11027143D01*
X14985714Y-11027143D01*
X15004762Y-11036667D01*
X15014286Y-11046190D01*
X15023809Y-11065238D01*
X15023809Y-11122381D01*
X15014286Y-11141429D01*
X15004762Y-11150952D01*
X14985714Y-11160476D01*
X14947619Y-11160476D01*
X14928571Y-11150952D01*
X15138095Y-11160476D02*
X15119048Y-11150952D01*
X15109524Y-11131905D01*
X15109524Y-10960476D01*
X15300000Y-11160476D02*
X15300000Y-11055714D01*
X15290476Y-11036667D01*
X15271428Y-11027143D01*
X15233333Y-11027143D01*
X15214286Y-11036667D01*
X15300000Y-11150952D02*
X15280952Y-11160476D01*
X15233333Y-11160476D01*
X15214286Y-11150952D01*
X15204762Y-11131905D01*
X15204762Y-11112857D01*
X15214286Y-11093810D01*
X15233333Y-11084286D01*
X15280952Y-11084286D01*
X15300000Y-11074762D01*
X15366667Y-11027143D02*
X15442857Y-11027143D01*
X15395238Y-10960476D02*
X15395238Y-11131905D01*
X15404762Y-11150952D01*
X15423809Y-11160476D01*
X15442857Y-11160476D01*
X15585714Y-11150952D02*
X15566667Y-11160476D01*
X15528571Y-11160476D01*
X15509524Y-11150952D01*
X15500000Y-11131905D01*
X15500000Y-11055714D01*
X15509524Y-11036667D01*
X15528571Y-11027143D01*
X15566667Y-11027143D01*
X15585714Y-11036667D01*
X15595238Y-11055714D01*
X15595238Y-11074762D01*
X15500000Y-11093810D01*
X15766667Y-11160476D02*
X15766667Y-10960476D01*
X15766667Y-11150952D02*
X15747619Y-11160476D01*
X15709524Y-11160476D01*
X15690476Y-11150952D01*
X15680952Y-11141429D01*
X15671428Y-11122381D01*
X15671428Y-11065238D01*
X15680952Y-11046190D01*
X15690476Y-11036667D01*
X15709524Y-11027143D01*
X15747619Y-11027143D01*
X15766667Y-11036667D01*
X15842857Y-11236667D02*
X15852381Y-11227143D01*
X15871428Y-11198571D01*
X15880952Y-11179524D01*
X15890476Y-11150952D01*
X15900000Y-11103333D01*
X15900000Y-11065238D01*
X15890476Y-11017619D01*
X15880952Y-10989048D01*
X15871428Y-10970000D01*
X15852381Y-10941429D01*
X15842857Y-10931905D01*
M02*
