%TF.GenerationSoftware,KiCad,Pcbnew,(6.0.11)*%
%TF.CreationDate,2024-07-28T13:45:37-05:00*%
%TF.ProjectId,iecprinter,69656370-7269-46e7-9465-722e6b696361,rev?*%
%TF.SameCoordinates,Original*%
%TF.FileFunction,Copper,L1,Top*%
%TF.FilePolarity,Positive*%
%FSLAX46Y46*%
G04 Gerber Fmt 4.6, Leading zero omitted, Abs format (unit mm)*
G04 Created by KiCad (PCBNEW (6.0.11)) date 2024-07-28 13:45:37*
%MOMM*%
%LPD*%
G01*
G04 APERTURE LIST*
%TA.AperFunction,ComponentPad*%
%ADD10R,1.700000X1.700000*%
%TD*%
%TA.AperFunction,ComponentPad*%
%ADD11O,1.700000X1.700000*%
%TD*%
%TA.AperFunction,ComponentPad*%
%ADD12C,1.400000*%
%TD*%
%TA.AperFunction,ComponentPad*%
%ADD13O,1.400000X1.400000*%
%TD*%
%TA.AperFunction,ComponentPad*%
%ADD14C,1.950000*%
%TD*%
%TA.AperFunction,ComponentPad*%
%ADD15C,1.600000*%
%TD*%
%TA.AperFunction,ComponentPad*%
%ADD16R,1.600000X1.600000*%
%TD*%
%TA.AperFunction,ComponentPad*%
%ADD17O,1.600000X1.600000*%
%TD*%
%TA.AperFunction,ViaPad*%
%ADD18C,0.800000*%
%TD*%
%TA.AperFunction,Conductor*%
%ADD19C,0.250000*%
%TD*%
%TA.AperFunction,Conductor*%
%ADD20C,1.000000*%
%TD*%
G04 APERTURE END LIST*
D10*
%TO.P,U5,1,RESET*%
%TO.N,unconnected-(U5-Pad1)*%
X99010000Y-53112500D03*
D11*
%TO.P,U5,2,GPIO36*%
%TO.N,ADDRESS_SWITCH*%
X99010000Y-55652500D03*
%TO.P,U5,3,GPIO39*%
%TO.N,ONLINE_SWITCH*%
X99010000Y-58192500D03*
%TO.P,U5,4,GPIO34*%
%TO.N,unconnected-(U5-Pad4)*%
X99010000Y-60732500D03*
%TO.P,U5,5,GPIO35*%
%TO.N,unconnected-(U5-Pad5)*%
X99010000Y-63272500D03*
%TO.P,U5,6,GPIO32*%
%TO.N,unconnected-(U5-Pad6)*%
X99010000Y-65812500D03*
%TO.P,U5,7,GPIO33*%
%TO.N,ONLINE_LED*%
X99010000Y-68352500D03*
%TO.P,U5,8,GPIO25*%
%TO.N,unconnected-(U5-Pad8)*%
X99010000Y-70892500D03*
%TO.P,U5,9,GPIO26*%
%TO.N,unconnected-(U5-Pad9)*%
X99010000Y-73432500D03*
%TO.P,U5,10,GPIO27*%
%TO.N,unconnected-(U5-Pad10)*%
X99010000Y-75972500D03*
%TO.P,U5,11,GPIO14*%
%TO.N,unconnected-(U5-Pad11)*%
X99010000Y-78512500D03*
%TO.P,U5,12,GPIO12*%
%TO.N,unconnected-(U5-Pad12)*%
X99010000Y-81052500D03*
%TO.P,U5,13,GPIO13*%
%TO.N,unconnected-(U5-Pad13)*%
X99010000Y-83592500D03*
%TO.P,U5,14,GND*%
%TO.N,GND*%
X99010000Y-86132500D03*
%TO.P,U5,15,VIN*%
%TO.N,+5V*%
X99010000Y-88672500D03*
%TO.P,U5,16,3.3V*%
%TO.N,+3.3V*%
X124450000Y-88672500D03*
%TO.P,U5,17,GND*%
%TO.N,GND*%
X124450000Y-86132500D03*
%TO.P,U5,18,GPIO15*%
%TO.N,unconnected-(U5-Pad18)*%
X124450000Y-83592500D03*
%TO.P,U5,19,GPIO2*%
%TO.N,unconnected-(U5-Pad19)*%
X124450000Y-81052500D03*
%TO.P,U5,20,GPIO4*%
%TO.N,BUSY_LED*%
X124450000Y-78512500D03*
%TO.P,U5,21,GPIO16*%
%TO.N,LV_ATN*%
X124450000Y-75972500D03*
%TO.P,U5,22,GPIO17*%
%TO.N,LV_DATA_IN*%
X124450000Y-73432500D03*
%TO.P,U5,23,GPIO5*%
%TO.N,unconnected-(U5-Pad23)*%
X124450000Y-70892500D03*
%TO.P,U5,24,GPIO18*%
%TO.N,LV_CLOCK_IN*%
X124450000Y-68352500D03*
%TO.P,U5,25,GPIO19*%
%TO.N,LV_SRQIN*%
X124450000Y-65812500D03*
%TO.P,U5,26,GPIO21*%
%TO.N,unconnected-(U5-Pad26)*%
X124450000Y-63272500D03*
%TO.P,U5,27,GPIO3*%
%TO.N,unconnected-(U5-Pad27)*%
X124450000Y-60732500D03*
%TO.P,U5,28,GPIO1*%
%TO.N,unconnected-(U5-Pad28)*%
X124450000Y-58192500D03*
%TO.P,U5,29,GPIO22*%
%TO.N,CLOCK_OUT*%
X124450000Y-55652500D03*
%TO.P,U5,30,GPIO23*%
%TO.N,DATA_OUT*%
X124450000Y-53112500D03*
%TD*%
D12*
%TO.P,R6,1*%
%TO.N,+3.3V*%
X170815000Y-83185000D03*
D13*
%TO.P,R6,2*%
%TO.N,Net-(J5-Pad1)*%
X170815000Y-88265000D03*
%TD*%
D12*
%TO.P,R5,1*%
%TO.N,+3.3V*%
X149225000Y-67945000D03*
D13*
%TO.P,R5,2*%
%TO.N,Net-(J6-Pad1)*%
X144145000Y-67945000D03*
%TD*%
D12*
%TO.P,R4,1*%
%TO.N,+3.3V*%
X186690000Y-73025000D03*
D13*
%TO.P,R4,2*%
%TO.N,ONLINE_SWITCH*%
X186690000Y-78105000D03*
%TD*%
D10*
%TO.P,J6,1,Pin_1*%
%TO.N,Net-(J6-Pad1)*%
X139700000Y-67960000D03*
D11*
%TO.P,J6,2,Pin_2*%
%TO.N,ADDRESS_SWITCH*%
X139700000Y-70500000D03*
%TO.P,J6,3,Pin_3*%
%TO.N,GND*%
X139700000Y-73040000D03*
%TD*%
D10*
%TO.P,J5,1,Pin_1*%
%TO.N,Net-(J5-Pad1)*%
X170815000Y-93975000D03*
D11*
%TO.P,J5,2,Pin_2*%
%TO.N,BUSY_LED*%
X170815000Y-96515000D03*
%TD*%
D10*
%TO.P,J4,1,Pin_1*%
%TO.N,ONLINE_SWITCH*%
X186690000Y-83815000D03*
D11*
%TO.P,J4,2,Pin_2*%
%TO.N,GND*%
X186690000Y-86355000D03*
%TD*%
D10*
%TO.P,J3,1,Pin_1*%
%TO.N,Net-(J3-Pad1)*%
X179070000Y-93975000D03*
D11*
%TO.P,J3,2,Pin_2*%
%TO.N,ONLINE_LED*%
X179070000Y-96515000D03*
%TD*%
D14*
%TO.P,J1,1*%
%TO.N,SQRIN*%
X136422500Y-54050000D03*
%TO.P,J1,2*%
%TO.N,GND*%
X138922500Y-56550000D03*
%TO.P,J1,3*%
%TO.N,ATN*%
X143922500Y-54050000D03*
%TO.P,J1,4*%
%TO.N,CLOCK_IN*%
X148922500Y-56550000D03*
%TO.P,J1,5*%
%TO.N,DATA_IN*%
X151422500Y-54050000D03*
%TO.P,J1,6*%
%TO.N,RESET*%
X143922500Y-59050000D03*
%TO.P,J1,S1*%
%TO.N,N/C*%
X146422500Y-44050000D03*
%TO.P,J1,S2*%
X141422500Y-44050000D03*
%TD*%
D15*
%TO.P,C1,1*%
%TO.N,+5V*%
X162520000Y-74295000D03*
%TO.P,C1,2*%
%TO.N,GND*%
X157520000Y-74295000D03*
%TD*%
D10*
%TO.P,U1,1,HV4*%
%TO.N,SQRIN*%
X138310000Y-83687500D03*
D11*
%TO.P,U1,2,HV3*%
%TO.N,CLOCK_IN*%
X138310000Y-86227500D03*
%TO.P,U1,3,GND*%
%TO.N,GND*%
X138310000Y-88767500D03*
%TO.P,U1,4,HV*%
%TO.N,+5V*%
X138310000Y-91307500D03*
%TO.P,U1,5,HV2*%
%TO.N,DATA_IN*%
X138310000Y-93847500D03*
%TO.P,U1,6,HV1*%
%TO.N,ATN*%
X138310000Y-96387500D03*
%TO.P,U1,7,LV1*%
%TO.N,LV_ATN*%
X148510000Y-96387500D03*
%TO.P,U1,8,LV2*%
%TO.N,LV_DATA_IN*%
X148510000Y-93887500D03*
%TO.P,U1,9,LV*%
%TO.N,+3.3V*%
X148510000Y-91347500D03*
%TO.P,U1,10,GND*%
%TO.N,GND*%
X148510000Y-88807500D03*
%TO.P,U1,11,LV3*%
%TO.N,LV_CLOCK_IN*%
X148510000Y-86267500D03*
%TO.P,U1,12,LV4*%
%TO.N,LV_SRQIN*%
X148510000Y-83727500D03*
%TD*%
D12*
%TO.P,R1,1*%
%TO.N,+5V*%
X176530000Y-71120000D03*
D13*
%TO.P,R1,2*%
%TO.N,CLOCK_IN*%
X176530000Y-66040000D03*
%TD*%
D12*
%TO.P,R3,1*%
%TO.N,+5V*%
X182245000Y-71120000D03*
D13*
%TO.P,R3,2*%
%TO.N,DATA_IN*%
X182245000Y-66040000D03*
%TD*%
D16*
%TO.P,U6,1*%
%TO.N,DATA_OUT*%
X156210000Y-81280000D03*
D17*
%TO.P,U6,2*%
%TO.N,DATA_IN*%
X156210000Y-83820000D03*
%TO.P,U6,3*%
%TO.N,CLOCK_OUT*%
X156210000Y-86360000D03*
%TO.P,U6,4*%
%TO.N,CLOCK_IN*%
X156210000Y-88900000D03*
%TO.P,U6,5*%
%TO.N,unconnected-(U6-Pad5)*%
X156210000Y-91440000D03*
%TO.P,U6,6*%
%TO.N,unconnected-(U6-Pad6)*%
X156210000Y-93980000D03*
%TO.P,U6,7,GND*%
%TO.N,GND*%
X156210000Y-96520000D03*
%TO.P,U6,8*%
%TO.N,unconnected-(U6-Pad8)*%
X163830000Y-96520000D03*
%TO.P,U6,9*%
%TO.N,unconnected-(U6-Pad9)*%
X163830000Y-93980000D03*
%TO.P,U6,10*%
%TO.N,unconnected-(U6-Pad10)*%
X163830000Y-91440000D03*
%TO.P,U6,11*%
%TO.N,unconnected-(U6-Pad11)*%
X163830000Y-88900000D03*
%TO.P,U6,12*%
%TO.N,unconnected-(U6-Pad12)*%
X163830000Y-86360000D03*
%TO.P,U6,13*%
%TO.N,unconnected-(U6-Pad13)*%
X163830000Y-83820000D03*
%TO.P,U6,14,VCC*%
%TO.N,+5V*%
X163830000Y-81280000D03*
%TD*%
D14*
%TO.P,J2,1*%
%TO.N,SQRIN*%
X163950000Y-53975000D03*
%TO.P,J2,2*%
%TO.N,GND*%
X166450000Y-56475000D03*
%TO.P,J2,3*%
%TO.N,ATN*%
X171450000Y-53975000D03*
%TO.P,J2,4*%
%TO.N,CLOCK_IN*%
X176450000Y-56475000D03*
%TO.P,J2,5*%
%TO.N,DATA_IN*%
X178950000Y-53975000D03*
%TO.P,J2,6*%
%TO.N,RESET*%
X171450000Y-58975000D03*
%TO.P,J2,S1*%
%TO.N,N/C*%
X173950000Y-43975000D03*
%TO.P,J2,S2*%
X168950000Y-43975000D03*
%TD*%
D12*
%TO.P,R2,1*%
%TO.N,+3.3V*%
X179070000Y-83185000D03*
D13*
%TO.P,R2,2*%
%TO.N,Net-(J3-Pad1)*%
X179070000Y-88265000D03*
%TD*%
D18*
%TO.N,BUSY_LED*%
X126770500Y-92801900D03*
%TO.N,+5V*%
X147819000Y-79011200D03*
%TD*%
D19*
%TO.N,LV_SRQIN*%
X148510000Y-83727500D02*
X147334900Y-83727500D01*
X129419900Y-65812500D02*
X147334900Y-83727500D01*
X124450000Y-65812500D02*
X129419900Y-65812500D01*
%TO.N,LV_CLOCK_IN*%
X148510000Y-86267500D02*
X147334900Y-86267500D01*
X129419900Y-68352500D02*
X147334900Y-86267500D01*
X124450000Y-68352500D02*
X129419900Y-68352500D01*
%TO.N,ADDRESS_SWITCH*%
X101549900Y-57017300D02*
X100185100Y-55652500D01*
X125042200Y-57017300D02*
X101549900Y-57017300D01*
X138524900Y-70500000D02*
X125042200Y-57017300D01*
X139700000Y-70500000D02*
X138524900Y-70500000D01*
X99010000Y-55652500D02*
X100185100Y-55652500D01*
%TO.N,Net-(J6-Pad1)*%
X143104900Y-67960000D02*
X143119900Y-67945000D01*
X139700000Y-67960000D02*
X143104900Y-67960000D01*
X144145000Y-67945000D02*
X143119900Y-67945000D01*
%TO.N,BUSY_LED*%
X129086100Y-95117500D02*
X126770500Y-92801900D01*
X168242400Y-95117500D02*
X129086100Y-95117500D01*
X169639900Y-96515000D02*
X168242400Y-95117500D01*
X170815000Y-96515000D02*
X169639900Y-96515000D01*
%TO.N,ONLINE_SWITCH*%
X186690000Y-78105000D02*
X185664900Y-78105000D01*
X186690000Y-83815000D02*
X186690000Y-82639900D01*
X186690000Y-82639900D02*
X183960500Y-79910300D01*
X184034400Y-79836400D02*
X183960500Y-79910300D01*
X184034400Y-79735500D02*
X184034400Y-79836400D01*
X185664900Y-78105000D02*
X184034400Y-79735500D01*
X101549900Y-59557300D02*
X100185100Y-58192500D01*
X103453200Y-59557300D02*
X101549900Y-59557300D01*
X105898400Y-62002500D02*
X103453200Y-59557300D01*
X126552300Y-62002500D02*
X105898400Y-62002500D01*
X128547100Y-63997300D02*
X126552300Y-62002500D01*
X128973200Y-63997300D02*
X128547100Y-63997300D01*
X141594500Y-76618600D02*
X128973200Y-63997300D01*
X143182900Y-76618600D02*
X141594500Y-76618600D01*
X146400700Y-79836400D02*
X143182900Y-76618600D01*
X155535200Y-79836400D02*
X146400700Y-79836400D01*
X155609200Y-79910400D02*
X155535200Y-79836400D01*
X183960400Y-79910400D02*
X155609200Y-79910400D01*
X183960500Y-79910300D02*
X183960400Y-79910400D01*
X99010000Y-58192500D02*
X100185100Y-58192500D01*
%TO.N,ONLINE_LED*%
X99010000Y-68352500D02*
X100185100Y-68352500D01*
X177579900Y-96515000D02*
X179070000Y-96515000D01*
X166215300Y-85150400D02*
X177579900Y-96515000D01*
X166215300Y-84613100D02*
X166215300Y-85150400D01*
X164007400Y-82405200D02*
X166215300Y-84613100D01*
X146744200Y-82405200D02*
X164007400Y-82405200D01*
X128952600Y-64613600D02*
X146744200Y-82405200D01*
X103924000Y-64613600D02*
X128952600Y-64613600D01*
X100185100Y-68352500D02*
X103924000Y-64613600D01*
%TO.N,RESET*%
X143997500Y-58975000D02*
X143922500Y-59050000D01*
X171450000Y-58975000D02*
X143997500Y-58975000D01*
%TO.N,DATA_IN*%
X182245000Y-57270000D02*
X182245000Y-66040000D01*
X178950000Y-53975000D02*
X182245000Y-57270000D01*
X156443100Y-84945100D02*
X156210000Y-84945100D01*
X157351500Y-85853500D02*
X156443100Y-84945100D01*
X157351500Y-89350200D02*
X157351500Y-85853500D01*
X156531700Y-90170000D02*
X157351500Y-89350200D01*
X143162600Y-90170000D02*
X156531700Y-90170000D01*
X139485100Y-93847500D02*
X143162600Y-90170000D01*
X138310000Y-93847500D02*
X139485100Y-93847500D01*
X156210000Y-83820000D02*
X156210000Y-84945100D01*
%TO.N,CLOCK_IN*%
X176530000Y-66040000D02*
X176530000Y-65014900D01*
X150186900Y-57814400D02*
X148922500Y-56550000D01*
X170625600Y-57814400D02*
X150186900Y-57814400D01*
X170793000Y-57647000D02*
X170625600Y-57814400D01*
X175960200Y-57647000D02*
X170793000Y-57647000D01*
X175960200Y-56964800D02*
X175960200Y-57647000D01*
X176450000Y-56475000D02*
X175960200Y-56964800D01*
X175960200Y-64445100D02*
X176530000Y-65014900D01*
X175960200Y-57647000D02*
X175960200Y-64445100D01*
X140849900Y-87592300D02*
X139485100Y-86227500D01*
X153777200Y-87592300D02*
X140849900Y-87592300D01*
X155084900Y-88900000D02*
X153777200Y-87592300D01*
X156210000Y-88900000D02*
X155084900Y-88900000D01*
X138310000Y-86227500D02*
X139485100Y-86227500D01*
%TO.N,ATN*%
X145315900Y-52656600D02*
X143922500Y-54050000D01*
X170131600Y-52656600D02*
X145315900Y-52656600D01*
X171450000Y-53975000D02*
X170131600Y-52656600D01*
%TO.N,SQRIN*%
X140122400Y-54050000D02*
X136422500Y-54050000D01*
X141466400Y-55394000D02*
X140122400Y-54050000D01*
X145739800Y-55394000D02*
X141466400Y-55394000D01*
X145904900Y-55228900D02*
X145739800Y-55394000D01*
X149440200Y-55228900D02*
X145904900Y-55228900D01*
X149565100Y-55353800D02*
X149440200Y-55228900D01*
X162571200Y-55353800D02*
X149565100Y-55353800D01*
X163950000Y-53975000D02*
X162571200Y-55353800D01*
D20*
%TO.N,+3.3V*%
X181610000Y-67945000D02*
X149225000Y-67945000D01*
X186690000Y-73025000D02*
X181610000Y-67945000D01*
X179070000Y-83185000D02*
X170815000Y-83185000D01*
%TO.N,GND*%
X142505100Y-74295000D02*
X141250100Y-73040000D01*
X157520000Y-74295000D02*
X142505100Y-74295000D01*
X139700000Y-73040000D02*
X141250100Y-73040000D01*
X124450000Y-86132500D02*
X99010000Y-86132500D01*
X124450000Y-86132500D02*
X126000100Y-86132500D01*
X128635100Y-88767500D02*
X138310000Y-88767500D01*
X126000100Y-86132500D02*
X128635100Y-88767500D01*
X146919900Y-88767500D02*
X146959900Y-88807500D01*
X138310000Y-88767500D02*
X146919900Y-88767500D01*
X148510000Y-88807500D02*
X146959900Y-88807500D01*
%TO.N,+5V*%
X182245000Y-71120000D02*
X176530000Y-71120000D01*
X99010000Y-88672500D02*
X100560100Y-88672500D01*
X165695000Y-71120000D02*
X162520000Y-74295000D01*
X176530000Y-71120000D02*
X165695000Y-71120000D01*
X157803800Y-79011200D02*
X147819000Y-79011200D01*
X162520000Y-74295000D02*
X157803800Y-79011200D01*
X103195100Y-91307500D02*
X100560100Y-88672500D01*
X136759900Y-91307500D02*
X103195100Y-91307500D01*
X138310000Y-91307500D02*
X136759900Y-91307500D01*
%TD*%
%TA.AperFunction,Conductor*%
%TO.N,GND*%
G36*
X190433621Y-41528502D02*
G01*
X190480114Y-41582158D01*
X190491500Y-41634500D01*
X190491500Y-100204000D01*
X190471498Y-100272121D01*
X190417842Y-100318614D01*
X190365500Y-100330000D01*
X91634500Y-100330000D01*
X91566379Y-100309998D01*
X91519886Y-100256342D01*
X91508500Y-100204000D01*
X91508500Y-96132703D01*
X93390743Y-96132703D01*
X93391302Y-96136947D01*
X93391302Y-96136951D01*
X93395656Y-96170022D01*
X93428268Y-96417734D01*
X93429401Y-96421874D01*
X93429401Y-96421876D01*
X93450415Y-96498689D01*
X93504129Y-96695036D01*
X93505813Y-96698984D01*
X93603260Y-96927443D01*
X93616923Y-96959476D01*
X93660080Y-97031586D01*
X93756438Y-97192588D01*
X93764561Y-97206161D01*
X93944313Y-97430528D01*
X94048457Y-97529357D01*
X94137896Y-97614231D01*
X94152851Y-97628423D01*
X94282416Y-97721525D01*
X94369601Y-97784174D01*
X94386317Y-97796186D01*
X94390112Y-97798195D01*
X94390113Y-97798196D01*
X94411869Y-97809715D01*
X94640392Y-97930712D01*
X94910373Y-98029511D01*
X95191264Y-98090755D01*
X95219841Y-98093004D01*
X95414282Y-98108307D01*
X95414291Y-98108307D01*
X95416739Y-98108500D01*
X95572271Y-98108500D01*
X95574407Y-98108354D01*
X95574418Y-98108354D01*
X95782548Y-98094165D01*
X95782554Y-98094164D01*
X95786825Y-98093873D01*
X95791020Y-98093004D01*
X95791022Y-98093004D01*
X95927584Y-98064723D01*
X96068342Y-98035574D01*
X96339343Y-97939607D01*
X96594812Y-97807750D01*
X96598313Y-97805289D01*
X96598317Y-97805287D01*
X96805254Y-97659849D01*
X96830023Y-97642441D01*
X97040622Y-97446740D01*
X97222713Y-97224268D01*
X97372927Y-96979142D01*
X97375086Y-96974225D01*
X97486757Y-96719830D01*
X97488483Y-96715898D01*
X97567244Y-96439406D01*
X97607751Y-96154784D01*
X97607844Y-96137207D01*
X97609235Y-95871583D01*
X97609235Y-95871576D01*
X97609257Y-95867297D01*
X97605885Y-95841680D01*
X97585030Y-95683277D01*
X97571732Y-95582266D01*
X97495871Y-95304964D01*
X97383077Y-95040524D01*
X97235439Y-94793839D01*
X97055687Y-94569472D01*
X96857332Y-94381240D01*
X96850258Y-94374527D01*
X96850255Y-94374525D01*
X96847149Y-94371577D01*
X96627026Y-94213402D01*
X96617172Y-94206321D01*
X96617171Y-94206320D01*
X96613683Y-94203814D01*
X96591843Y-94192250D01*
X96550649Y-94170439D01*
X96359608Y-94069288D01*
X96089627Y-93970489D01*
X95808736Y-93909245D01*
X95777685Y-93906801D01*
X95585718Y-93891693D01*
X95585709Y-93891693D01*
X95583261Y-93891500D01*
X95427729Y-93891500D01*
X95425593Y-93891646D01*
X95425582Y-93891646D01*
X95217452Y-93905835D01*
X95217446Y-93905836D01*
X95213175Y-93906127D01*
X95208980Y-93906996D01*
X95208978Y-93906996D01*
X95072416Y-93935277D01*
X94931658Y-93964426D01*
X94660657Y-94060393D01*
X94405188Y-94192250D01*
X94401687Y-94194711D01*
X94401683Y-94194713D01*
X94322881Y-94250096D01*
X94169977Y-94357559D01*
X94144498Y-94381236D01*
X93999151Y-94516301D01*
X93959378Y-94553260D01*
X93777287Y-94775732D01*
X93627073Y-95020858D01*
X93511517Y-95284102D01*
X93432756Y-95560594D01*
X93392249Y-95845216D01*
X93392227Y-95849505D01*
X93392226Y-95849512D01*
X93391015Y-96080720D01*
X93390743Y-96132703D01*
X91508500Y-96132703D01*
X91508500Y-88639195D01*
X97647251Y-88639195D01*
X97647548Y-88644348D01*
X97647548Y-88644351D01*
X97653011Y-88739090D01*
X97660110Y-88862215D01*
X97661247Y-88867261D01*
X97661248Y-88867267D01*
X97667391Y-88894525D01*
X97709222Y-89080139D01*
X97755578Y-89194301D01*
X97787846Y-89273767D01*
X97793266Y-89287116D01*
X97839826Y-89363096D01*
X97907210Y-89473056D01*
X97909987Y-89477588D01*
X97913367Y-89481490D01*
X98041333Y-89629217D01*
X98056250Y-89646438D01*
X98228126Y-89789132D01*
X98421000Y-89901838D01*
X98425825Y-89903680D01*
X98425826Y-89903681D01*
X98440690Y-89909357D01*
X98629692Y-89981530D01*
X98634760Y-89982561D01*
X98634763Y-89982562D01*
X98742017Y-90004383D01*
X98848597Y-90026067D01*
X98853772Y-90026257D01*
X98853774Y-90026257D01*
X99066673Y-90034064D01*
X99066677Y-90034064D01*
X99071837Y-90034253D01*
X99076957Y-90033597D01*
X99076959Y-90033597D01*
X99288288Y-90006525D01*
X99288289Y-90006525D01*
X99293416Y-90005868D01*
X99347743Y-89989569D01*
X99502429Y-89943161D01*
X99502434Y-89943159D01*
X99507384Y-89941674D01*
X99707994Y-89843396D01*
X99889860Y-89713673D01*
X99892886Y-89710657D01*
X99957588Y-89682070D01*
X99973976Y-89681000D01*
X100090175Y-89681000D01*
X100158296Y-89701002D01*
X100179270Y-89717905D01*
X102438245Y-91976879D01*
X102447347Y-91987022D01*
X102471068Y-92016525D01*
X102475796Y-92020492D01*
X102509521Y-92048791D01*
X102513169Y-92051972D01*
X102514981Y-92053615D01*
X102517175Y-92055809D01*
X102550449Y-92083142D01*
X102551247Y-92083804D01*
X102622574Y-92143654D01*
X102627244Y-92146222D01*
X102631361Y-92149603D01*
X102708546Y-92190989D01*
X102713220Y-92193495D01*
X102714380Y-92194124D01*
X102790489Y-92235966D01*
X102790494Y-92235968D01*
X102795887Y-92238933D01*
X102800965Y-92240544D01*
X102805663Y-92243063D01*
X102894598Y-92270253D01*
X102895802Y-92270628D01*
X102984406Y-92298735D01*
X102989697Y-92299328D01*
X102994798Y-92300888D01*
X103087411Y-92310295D01*
X103088531Y-92310415D01*
X103138327Y-92316000D01*
X103141856Y-92316000D01*
X103142839Y-92316055D01*
X103148526Y-92316503D01*
X103168783Y-92318560D01*
X103185436Y-92320252D01*
X103185439Y-92320252D01*
X103191563Y-92320874D01*
X103237212Y-92316559D01*
X103249069Y-92316000D01*
X125799702Y-92316000D01*
X125867823Y-92336002D01*
X125914316Y-92389658D01*
X125924420Y-92459932D01*
X125919537Y-92480928D01*
X125876958Y-92611972D01*
X125876268Y-92618533D01*
X125876268Y-92618535D01*
X125866655Y-92710000D01*
X125856996Y-92801900D01*
X125876958Y-92991828D01*
X125935973Y-93173456D01*
X125939276Y-93179178D01*
X125939277Y-93179179D01*
X125959485Y-93214180D01*
X126031460Y-93338844D01*
X126159247Y-93480766D01*
X126313748Y-93593018D01*
X126319776Y-93595702D01*
X126319778Y-93595703D01*
X126482181Y-93668009D01*
X126488212Y-93670694D01*
X126581612Y-93690547D01*
X126668556Y-93709028D01*
X126668561Y-93709028D01*
X126675013Y-93710400D01*
X126730906Y-93710400D01*
X126799027Y-93730402D01*
X126820001Y-93747305D01*
X128582448Y-95509753D01*
X128589988Y-95518039D01*
X128594100Y-95524518D01*
X128599877Y-95529943D01*
X128643751Y-95571143D01*
X128646593Y-95573898D01*
X128666330Y-95593635D01*
X128669527Y-95596115D01*
X128678547Y-95603818D01*
X128710779Y-95634086D01*
X128717725Y-95637905D01*
X128717728Y-95637907D01*
X128728534Y-95643848D01*
X128745053Y-95654699D01*
X128761059Y-95667114D01*
X128768328Y-95670259D01*
X128768332Y-95670262D01*
X128801637Y-95684674D01*
X128812287Y-95689891D01*
X128851040Y-95711195D01*
X128858715Y-95713166D01*
X128858716Y-95713166D01*
X128870662Y-95716233D01*
X128889367Y-95722637D01*
X128907955Y-95730681D01*
X128915778Y-95731920D01*
X128915788Y-95731923D01*
X128951624Y-95737599D01*
X128963244Y-95740005D01*
X128998389Y-95749028D01*
X129006070Y-95751000D01*
X129026324Y-95751000D01*
X129046034Y-95752551D01*
X129066043Y-95755720D01*
X129073935Y-95754974D01*
X129110061Y-95751559D01*
X129121919Y-95751000D01*
X136911527Y-95751000D01*
X136979648Y-95771002D01*
X137026141Y-95824658D01*
X137036245Y-95894932D01*
X137030745Y-95916682D01*
X137030688Y-95916805D01*
X136970989Y-96132070D01*
X136947251Y-96354195D01*
X136947548Y-96359348D01*
X136947548Y-96359351D01*
X136953011Y-96454090D01*
X136960110Y-96577215D01*
X136961247Y-96582261D01*
X136961248Y-96582267D01*
X136981119Y-96670439D01*
X137009222Y-96795139D01*
X137093266Y-97002116D01*
X137123957Y-97052199D01*
X137185405Y-97152473D01*
X137209987Y-97192588D01*
X137356250Y-97361438D01*
X137528126Y-97504132D01*
X137721000Y-97616838D01*
X137725825Y-97618680D01*
X137725826Y-97618681D01*
X137766576Y-97634242D01*
X137929692Y-97696530D01*
X137934760Y-97697561D01*
X137934763Y-97697562D01*
X138042017Y-97719383D01*
X138148597Y-97741067D01*
X138153772Y-97741257D01*
X138153774Y-97741257D01*
X138366673Y-97749064D01*
X138366677Y-97749064D01*
X138371837Y-97749253D01*
X138376957Y-97748597D01*
X138376959Y-97748597D01*
X138588288Y-97721525D01*
X138588289Y-97721525D01*
X138593416Y-97720868D01*
X138598366Y-97719383D01*
X138802429Y-97658161D01*
X138802434Y-97658159D01*
X138807384Y-97656674D01*
X139007994Y-97558396D01*
X139189860Y-97428673D01*
X139224362Y-97394292D01*
X139298825Y-97320088D01*
X139348096Y-97270989D01*
X139383818Y-97221277D01*
X139475435Y-97093777D01*
X139478453Y-97089577D01*
X139480948Y-97084530D01*
X139575136Y-96893953D01*
X139575137Y-96893951D01*
X139577430Y-96889311D01*
X139622002Y-96742607D01*
X139640865Y-96680523D01*
X139640865Y-96680521D01*
X139642370Y-96675569D01*
X139671529Y-96454090D01*
X139673156Y-96387500D01*
X139654852Y-96164861D01*
X139600431Y-95948202D01*
X139591318Y-95927243D01*
X139582497Y-95856797D01*
X139613163Y-95792765D01*
X139673579Y-95755477D01*
X139706867Y-95751000D01*
X147111527Y-95751000D01*
X147179648Y-95771002D01*
X147226141Y-95824658D01*
X147236245Y-95894932D01*
X147230745Y-95916682D01*
X147230688Y-95916805D01*
X147170989Y-96132070D01*
X147147251Y-96354195D01*
X147147548Y-96359348D01*
X147147548Y-96359351D01*
X147153011Y-96454090D01*
X147160110Y-96577215D01*
X147161247Y-96582261D01*
X147161248Y-96582267D01*
X147181119Y-96670439D01*
X147209222Y-96795139D01*
X147293266Y-97002116D01*
X147323957Y-97052199D01*
X147385405Y-97152473D01*
X147409987Y-97192588D01*
X147556250Y-97361438D01*
X147728126Y-97504132D01*
X147921000Y-97616838D01*
X147925825Y-97618680D01*
X147925826Y-97618681D01*
X147966576Y-97634242D01*
X148129692Y-97696530D01*
X148134760Y-97697561D01*
X148134763Y-97697562D01*
X148242017Y-97719383D01*
X148348597Y-97741067D01*
X148353772Y-97741257D01*
X148353774Y-97741257D01*
X148566673Y-97749064D01*
X148566677Y-97749064D01*
X148571837Y-97749253D01*
X148576957Y-97748597D01*
X148576959Y-97748597D01*
X148788288Y-97721525D01*
X148788289Y-97721525D01*
X148793416Y-97720868D01*
X148798366Y-97719383D01*
X149002429Y-97658161D01*
X149002434Y-97658159D01*
X149007384Y-97656674D01*
X149207994Y-97558396D01*
X149389860Y-97428673D01*
X149424362Y-97394292D01*
X149498825Y-97320088D01*
X149548096Y-97270989D01*
X149583818Y-97221277D01*
X149675435Y-97093777D01*
X149678453Y-97089577D01*
X149680948Y-97084530D01*
X149775136Y-96893953D01*
X149775137Y-96893951D01*
X149777430Y-96889311D01*
X149808660Y-96786522D01*
X154927273Y-96786522D01*
X154974764Y-96963761D01*
X154978510Y-96974053D01*
X155070586Y-97171511D01*
X155076069Y-97181007D01*
X155201028Y-97359467D01*
X155208084Y-97367875D01*
X155362125Y-97521916D01*
X155370533Y-97528972D01*
X155548993Y-97653931D01*
X155558489Y-97659414D01*
X155755947Y-97751490D01*
X155766239Y-97755236D01*
X155938503Y-97801394D01*
X155952599Y-97801058D01*
X155956000Y-97793116D01*
X155956000Y-97787967D01*
X156464000Y-97787967D01*
X156467973Y-97801498D01*
X156476522Y-97802727D01*
X156653761Y-97755236D01*
X156664053Y-97751490D01*
X156861511Y-97659414D01*
X156871007Y-97653931D01*
X157049467Y-97528972D01*
X157057875Y-97521916D01*
X157211916Y-97367875D01*
X157218972Y-97359467D01*
X157343931Y-97181007D01*
X157349414Y-97171511D01*
X157441490Y-96974053D01*
X157445236Y-96963761D01*
X157491394Y-96791497D01*
X157491058Y-96777401D01*
X157483116Y-96774000D01*
X156482115Y-96774000D01*
X156466876Y-96778475D01*
X156465671Y-96779865D01*
X156464000Y-96787548D01*
X156464000Y-97787967D01*
X155956000Y-97787967D01*
X155956000Y-96792115D01*
X155951525Y-96776876D01*
X155950135Y-96775671D01*
X155942452Y-96774000D01*
X154942033Y-96774000D01*
X154928502Y-96777973D01*
X154927273Y-96786522D01*
X149808660Y-96786522D01*
X149822002Y-96742607D01*
X149840865Y-96680523D01*
X149840865Y-96680521D01*
X149842370Y-96675569D01*
X149871529Y-96454090D01*
X149873156Y-96387500D01*
X149854852Y-96164861D01*
X149800431Y-95948202D01*
X149791318Y-95927243D01*
X149782497Y-95856797D01*
X149813163Y-95792765D01*
X149873579Y-95755477D01*
X149906867Y-95751000D01*
X154927592Y-95751000D01*
X154995713Y-95771002D01*
X155042206Y-95824658D01*
X155052310Y-95894932D01*
X155041787Y-95930250D01*
X154978510Y-96065947D01*
X154974764Y-96076239D01*
X154928606Y-96248503D01*
X154928942Y-96262599D01*
X154936884Y-96266000D01*
X157477967Y-96266000D01*
X157491498Y-96262027D01*
X157492727Y-96253478D01*
X157445236Y-96076239D01*
X157441490Y-96065947D01*
X157378213Y-95930250D01*
X157367552Y-95860059D01*
X157396532Y-95795246D01*
X157455952Y-95756389D01*
X157492408Y-95751000D01*
X162547040Y-95751000D01*
X162615161Y-95771002D01*
X162661654Y-95824658D01*
X162671758Y-95894932D01*
X162661235Y-95930250D01*
X162595716Y-96070757D01*
X162594294Y-96076065D01*
X162594293Y-96076067D01*
X162570501Y-96164861D01*
X162536457Y-96291913D01*
X162516502Y-96520000D01*
X162536457Y-96748087D01*
X162537881Y-96753400D01*
X162537881Y-96753402D01*
X162584516Y-96927443D01*
X162595716Y-96969243D01*
X162598039Y-96974224D01*
X162598039Y-96974225D01*
X162690151Y-97171762D01*
X162690154Y-97171767D01*
X162692477Y-97176749D01*
X162728074Y-97227586D01*
X162795577Y-97323990D01*
X162823802Y-97364300D01*
X162985700Y-97526198D01*
X162990208Y-97529355D01*
X162990211Y-97529357D01*
X163031683Y-97558396D01*
X163173251Y-97657523D01*
X163178233Y-97659846D01*
X163178238Y-97659849D01*
X163369968Y-97749253D01*
X163380757Y-97754284D01*
X163386065Y-97755706D01*
X163386067Y-97755707D01*
X163596598Y-97812119D01*
X163596600Y-97812119D01*
X163601913Y-97813543D01*
X163830000Y-97833498D01*
X164058087Y-97813543D01*
X164063400Y-97812119D01*
X164063402Y-97812119D01*
X164273933Y-97755707D01*
X164273935Y-97755706D01*
X164279243Y-97754284D01*
X164290032Y-97749253D01*
X164481762Y-97659849D01*
X164481767Y-97659846D01*
X164486749Y-97657523D01*
X164628317Y-97558396D01*
X164669789Y-97529357D01*
X164669792Y-97529355D01*
X164674300Y-97526198D01*
X164836198Y-97364300D01*
X164864424Y-97323990D01*
X164931926Y-97227586D01*
X164967523Y-97176749D01*
X164969846Y-97171767D01*
X164969849Y-97171762D01*
X165061961Y-96974225D01*
X165061961Y-96974224D01*
X165064284Y-96969243D01*
X165075485Y-96927443D01*
X165122119Y-96753402D01*
X165122119Y-96753400D01*
X165123543Y-96748087D01*
X165143498Y-96520000D01*
X165123543Y-96291913D01*
X165089499Y-96164861D01*
X165065707Y-96076067D01*
X165065706Y-96076065D01*
X165064284Y-96070757D01*
X164998765Y-95930250D01*
X164988104Y-95860058D01*
X165017084Y-95795245D01*
X165076504Y-95756389D01*
X165112960Y-95751000D01*
X167927806Y-95751000D01*
X167995927Y-95771002D01*
X168016901Y-95787905D01*
X169136243Y-96907247D01*
X169143787Y-96915537D01*
X169147900Y-96922018D01*
X169153677Y-96927443D01*
X169197567Y-96968658D01*
X169200409Y-96971413D01*
X169220130Y-96991134D01*
X169223325Y-96993612D01*
X169232347Y-97001318D01*
X169264579Y-97031586D01*
X169271528Y-97035406D01*
X169282332Y-97041346D01*
X169298856Y-97052199D01*
X169314859Y-97064613D01*
X169355443Y-97082176D01*
X169366073Y-97087383D01*
X169404840Y-97108695D01*
X169412517Y-97110666D01*
X169412522Y-97110668D01*
X169424458Y-97113732D01*
X169443166Y-97120137D01*
X169461755Y-97128181D01*
X169469580Y-97129420D01*
X169469582Y-97129421D01*
X169505419Y-97135097D01*
X169517040Y-97137504D01*
X169552189Y-97146528D01*
X169554168Y-97147036D01*
X169559869Y-97148500D01*
X169559633Y-97149420D01*
X169618412Y-97175054D01*
X169644979Y-97205845D01*
X169714987Y-97320088D01*
X169861250Y-97488938D01*
X170008610Y-97611279D01*
X170015307Y-97616838D01*
X170033126Y-97631632D01*
X170226000Y-97744338D01*
X170230825Y-97746180D01*
X170230826Y-97746181D01*
X170252046Y-97754284D01*
X170434692Y-97824030D01*
X170439760Y-97825061D01*
X170439763Y-97825062D01*
X170481228Y-97833498D01*
X170653597Y-97868567D01*
X170658772Y-97868757D01*
X170658774Y-97868757D01*
X170871673Y-97876564D01*
X170871677Y-97876564D01*
X170876837Y-97876753D01*
X170881957Y-97876097D01*
X170881959Y-97876097D01*
X171093288Y-97849025D01*
X171093289Y-97849025D01*
X171098416Y-97848368D01*
X171147980Y-97833498D01*
X171307429Y-97785661D01*
X171307434Y-97785659D01*
X171312384Y-97784174D01*
X171512994Y-97685896D01*
X171694860Y-97556173D01*
X171853096Y-97398489D01*
X171983453Y-97217077D01*
X171987611Y-97208665D01*
X172080136Y-97021453D01*
X172080137Y-97021451D01*
X172082430Y-97016811D01*
X172147370Y-96803069D01*
X172176529Y-96581590D01*
X172178156Y-96515000D01*
X172159852Y-96292361D01*
X172105431Y-96075702D01*
X172016354Y-95870840D01*
X171942312Y-95756389D01*
X171897822Y-95687617D01*
X171897820Y-95687614D01*
X171895014Y-95683277D01*
X171891532Y-95679450D01*
X171747798Y-95521488D01*
X171716746Y-95457642D01*
X171725141Y-95387143D01*
X171770317Y-95332375D01*
X171796761Y-95318706D01*
X171903297Y-95278767D01*
X171911705Y-95275615D01*
X172028261Y-95188261D01*
X172115615Y-95071705D01*
X172166745Y-94935316D01*
X172173500Y-94873134D01*
X172173500Y-93076866D01*
X172166745Y-93014684D01*
X172115615Y-92878295D01*
X172028261Y-92761739D01*
X171911705Y-92674385D01*
X171775316Y-92623255D01*
X171713134Y-92616500D01*
X169916866Y-92616500D01*
X169854684Y-92623255D01*
X169718295Y-92674385D01*
X169601739Y-92761739D01*
X169514385Y-92878295D01*
X169463255Y-93014684D01*
X169456500Y-93076866D01*
X169456500Y-94873134D01*
X169463255Y-94935316D01*
X169514385Y-95071705D01*
X169601739Y-95188261D01*
X169718295Y-95275615D01*
X169726704Y-95278767D01*
X169726705Y-95278768D01*
X169835451Y-95319535D01*
X169892216Y-95362176D01*
X169916916Y-95428738D01*
X169901709Y-95498087D01*
X169882315Y-95524569D01*
X169806715Y-95603679D01*
X169745191Y-95639108D01*
X169674279Y-95635651D01*
X169626527Y-95605722D01*
X168746052Y-94725247D01*
X168738512Y-94716961D01*
X168734400Y-94710482D01*
X168684748Y-94663856D01*
X168681907Y-94661102D01*
X168662170Y-94641365D01*
X168658973Y-94638885D01*
X168649951Y-94631180D01*
X168623500Y-94606341D01*
X168617721Y-94600914D01*
X168610775Y-94597095D01*
X168610772Y-94597093D01*
X168599966Y-94591152D01*
X168583447Y-94580301D01*
X168573794Y-94572814D01*
X168567441Y-94567886D01*
X168560172Y-94564741D01*
X168560168Y-94564738D01*
X168526863Y-94550326D01*
X168516213Y-94545109D01*
X168477460Y-94523805D01*
X168457837Y-94518767D01*
X168439134Y-94512363D01*
X168427820Y-94507467D01*
X168427819Y-94507467D01*
X168420545Y-94504319D01*
X168412722Y-94503080D01*
X168412712Y-94503077D01*
X168376876Y-94497401D01*
X168365256Y-94494995D01*
X168330111Y-94485972D01*
X168330110Y-94485972D01*
X168322430Y-94484000D01*
X168302176Y-94484000D01*
X168282465Y-94482449D01*
X168270286Y-94480520D01*
X168262457Y-94479280D01*
X168254565Y-94480026D01*
X168218439Y-94483441D01*
X168206581Y-94484000D01*
X165213819Y-94484000D01*
X165145698Y-94463998D01*
X165099205Y-94410342D01*
X165089101Y-94340068D01*
X165092112Y-94325389D01*
X165122119Y-94213402D01*
X165122119Y-94213400D01*
X165123543Y-94208087D01*
X165143498Y-93980000D01*
X165123543Y-93751913D01*
X165100217Y-93664861D01*
X165065707Y-93536067D01*
X165065706Y-93536065D01*
X165064284Y-93530757D01*
X165028128Y-93453220D01*
X164969849Y-93328238D01*
X164969846Y-93328233D01*
X164967523Y-93323251D01*
X164888154Y-93209901D01*
X164839357Y-93140211D01*
X164839355Y-93140208D01*
X164836198Y-93135700D01*
X164674300Y-92973802D01*
X164669792Y-92970645D01*
X164669789Y-92970643D01*
X164591611Y-92915902D01*
X164486749Y-92842477D01*
X164481767Y-92840154D01*
X164481762Y-92840151D01*
X164447543Y-92824195D01*
X164394258Y-92777278D01*
X164374797Y-92709001D01*
X164395339Y-92641041D01*
X164447543Y-92595805D01*
X164481762Y-92579849D01*
X164481767Y-92579846D01*
X164486749Y-92577523D01*
X164628317Y-92478396D01*
X164669789Y-92449357D01*
X164669792Y-92449355D01*
X164674300Y-92446198D01*
X164836198Y-92284300D01*
X164866699Y-92240741D01*
X164899539Y-92193840D01*
X164967523Y-92096749D01*
X164969846Y-92091767D01*
X164969849Y-92091762D01*
X165061961Y-91894225D01*
X165061961Y-91894224D01*
X165064284Y-91889243D01*
X165123543Y-91668087D01*
X165143498Y-91440000D01*
X165123543Y-91211913D01*
X165098872Y-91119839D01*
X165065707Y-90996067D01*
X165065706Y-90996065D01*
X165064284Y-90990757D01*
X165050033Y-90960195D01*
X164969849Y-90788238D01*
X164969846Y-90788233D01*
X164967523Y-90783251D01*
X164836198Y-90595700D01*
X164674300Y-90433802D01*
X164669792Y-90430645D01*
X164669789Y-90430643D01*
X164591611Y-90375902D01*
X164486749Y-90302477D01*
X164481767Y-90300154D01*
X164481762Y-90300151D01*
X164447543Y-90284195D01*
X164394258Y-90237278D01*
X164374797Y-90169001D01*
X164395339Y-90101041D01*
X164447543Y-90055805D01*
X164481762Y-90039849D01*
X164481767Y-90039846D01*
X164486749Y-90037523D01*
X164645016Y-89926703D01*
X164669789Y-89909357D01*
X164669792Y-89909355D01*
X164674300Y-89906198D01*
X164836198Y-89744300D01*
X164849348Y-89725521D01*
X164953904Y-89576199D01*
X164967523Y-89556749D01*
X164969846Y-89551767D01*
X164969849Y-89551762D01*
X165061961Y-89354225D01*
X165061961Y-89354224D01*
X165064284Y-89349243D01*
X165104955Y-89197460D01*
X165122119Y-89133402D01*
X165122119Y-89133400D01*
X165123543Y-89128087D01*
X165143498Y-88900000D01*
X165123543Y-88671913D01*
X165080187Y-88510107D01*
X165065707Y-88456067D01*
X165065706Y-88456065D01*
X165064284Y-88450757D01*
X165048576Y-88417070D01*
X164969849Y-88248238D01*
X164969846Y-88248233D01*
X164967523Y-88243251D01*
X164845115Y-88068435D01*
X164839357Y-88060211D01*
X164839355Y-88060208D01*
X164836198Y-88055700D01*
X164674300Y-87893802D01*
X164669792Y-87890645D01*
X164669789Y-87890643D01*
X164584507Y-87830928D01*
X164486749Y-87762477D01*
X164481767Y-87760154D01*
X164481762Y-87760151D01*
X164447543Y-87744195D01*
X164394258Y-87697278D01*
X164374797Y-87629001D01*
X164395339Y-87561041D01*
X164447543Y-87515805D01*
X164481762Y-87499849D01*
X164481767Y-87499846D01*
X164486749Y-87497523D01*
X164603380Y-87415857D01*
X164669789Y-87369357D01*
X164669792Y-87369355D01*
X164674300Y-87366198D01*
X164836198Y-87204300D01*
X164853316Y-87179854D01*
X164906659Y-87103671D01*
X164967523Y-87016749D01*
X164969846Y-87011767D01*
X164969849Y-87011762D01*
X165061961Y-86814225D01*
X165061961Y-86814224D01*
X165064284Y-86809243D01*
X165075530Y-86767275D01*
X165122119Y-86593402D01*
X165122119Y-86593400D01*
X165123543Y-86588087D01*
X165143498Y-86360000D01*
X165123543Y-86131913D01*
X165114195Y-86097027D01*
X165065707Y-85916067D01*
X165065706Y-85916065D01*
X165064284Y-85910757D01*
X165049841Y-85879783D01*
X164969849Y-85708238D01*
X164969846Y-85708233D01*
X164967523Y-85703251D01*
X164872547Y-85567612D01*
X164839357Y-85520211D01*
X164839355Y-85520208D01*
X164836198Y-85515700D01*
X164674300Y-85353802D01*
X164669792Y-85350645D01*
X164669789Y-85350643D01*
X164567796Y-85279227D01*
X164486749Y-85222477D01*
X164481767Y-85220154D01*
X164481762Y-85220151D01*
X164447543Y-85204195D01*
X164394258Y-85157278D01*
X164374797Y-85089001D01*
X164395339Y-85021041D01*
X164447543Y-84975805D01*
X164481762Y-84959849D01*
X164481767Y-84959846D01*
X164486749Y-84957523D01*
X164603883Y-84875505D01*
X164669789Y-84829357D01*
X164669792Y-84829355D01*
X164674300Y-84826198D01*
X164836198Y-84664300D01*
X164839360Y-84659785D01*
X164967523Y-84476749D01*
X164968624Y-84477520D01*
X165015332Y-84432980D01*
X165085045Y-84419540D01*
X165150957Y-84445923D01*
X165162169Y-84455875D01*
X165544895Y-84838601D01*
X165578921Y-84900913D01*
X165581800Y-84927696D01*
X165581800Y-85071633D01*
X165581273Y-85082816D01*
X165579598Y-85090309D01*
X165579847Y-85098235D01*
X165579847Y-85098236D01*
X165581738Y-85158386D01*
X165581800Y-85162345D01*
X165581800Y-85190256D01*
X165582297Y-85194190D01*
X165582297Y-85194191D01*
X165582305Y-85194256D01*
X165583238Y-85206093D01*
X165584627Y-85250289D01*
X165590278Y-85269739D01*
X165594287Y-85289100D01*
X165595318Y-85297257D01*
X165596826Y-85309197D01*
X165599745Y-85316568D01*
X165599745Y-85316570D01*
X165613104Y-85350312D01*
X165616949Y-85361542D01*
X165625684Y-85391609D01*
X165629282Y-85403993D01*
X165633315Y-85410812D01*
X165633317Y-85410817D01*
X165639593Y-85421428D01*
X165648288Y-85439176D01*
X165655748Y-85458017D01*
X165660410Y-85464433D01*
X165660410Y-85464434D01*
X165681736Y-85493787D01*
X165688252Y-85503707D01*
X165698013Y-85520211D01*
X165710758Y-85541762D01*
X165725079Y-85556083D01*
X165737919Y-85571116D01*
X165749828Y-85587507D01*
X165772754Y-85606473D01*
X165783905Y-85615698D01*
X165792684Y-85623688D01*
X177076243Y-96907247D01*
X177083787Y-96915537D01*
X177087900Y-96922018D01*
X177093677Y-96927443D01*
X177137567Y-96968658D01*
X177140409Y-96971413D01*
X177160130Y-96991134D01*
X177163325Y-96993612D01*
X177172347Y-97001318D01*
X177204579Y-97031586D01*
X177211528Y-97035406D01*
X177222332Y-97041346D01*
X177238856Y-97052199D01*
X177254859Y-97064613D01*
X177295443Y-97082176D01*
X177306073Y-97087383D01*
X177344840Y-97108695D01*
X177352517Y-97110666D01*
X177352522Y-97110668D01*
X177364458Y-97113732D01*
X177383166Y-97120137D01*
X177401755Y-97128181D01*
X177409580Y-97129420D01*
X177409582Y-97129421D01*
X177445419Y-97135097D01*
X177457040Y-97137504D01*
X177492189Y-97146528D01*
X177499870Y-97148500D01*
X177520131Y-97148500D01*
X177539840Y-97150051D01*
X177559843Y-97153219D01*
X177567735Y-97152473D01*
X177572962Y-97151979D01*
X177603854Y-97149059D01*
X177615711Y-97148500D01*
X177794274Y-97148500D01*
X177862395Y-97168502D01*
X177901707Y-97208665D01*
X177969987Y-97320088D01*
X178116250Y-97488938D01*
X178263610Y-97611279D01*
X178270307Y-97616838D01*
X178288126Y-97631632D01*
X178481000Y-97744338D01*
X178485825Y-97746180D01*
X178485826Y-97746181D01*
X178507046Y-97754284D01*
X178689692Y-97824030D01*
X178694760Y-97825061D01*
X178694763Y-97825062D01*
X178736228Y-97833498D01*
X178908597Y-97868567D01*
X178913772Y-97868757D01*
X178913774Y-97868757D01*
X179126673Y-97876564D01*
X179126677Y-97876564D01*
X179131837Y-97876753D01*
X179136957Y-97876097D01*
X179136959Y-97876097D01*
X179348288Y-97849025D01*
X179348289Y-97849025D01*
X179353416Y-97848368D01*
X179402980Y-97833498D01*
X179562429Y-97785661D01*
X179562434Y-97785659D01*
X179567384Y-97784174D01*
X179767994Y-97685896D01*
X179949860Y-97556173D01*
X180108096Y-97398489D01*
X180238453Y-97217077D01*
X180242611Y-97208665D01*
X180335136Y-97021453D01*
X180335137Y-97021451D01*
X180337430Y-97016811D01*
X180402370Y-96803069D01*
X180431529Y-96581590D01*
X180433156Y-96515000D01*
X180414852Y-96292361D01*
X180374749Y-96132703D01*
X183890743Y-96132703D01*
X183891302Y-96136947D01*
X183891302Y-96136951D01*
X183895656Y-96170022D01*
X183928268Y-96417734D01*
X183929401Y-96421874D01*
X183929401Y-96421876D01*
X183950415Y-96498689D01*
X184004129Y-96695036D01*
X184005813Y-96698984D01*
X184103260Y-96927443D01*
X184116923Y-96959476D01*
X184160080Y-97031586D01*
X184256438Y-97192588D01*
X184264561Y-97206161D01*
X184444313Y-97430528D01*
X184548457Y-97529357D01*
X184637896Y-97614231D01*
X184652851Y-97628423D01*
X184782416Y-97721525D01*
X184869601Y-97784174D01*
X184886317Y-97796186D01*
X184890112Y-97798195D01*
X184890113Y-97798196D01*
X184911869Y-97809715D01*
X185140392Y-97930712D01*
X185410373Y-98029511D01*
X185691264Y-98090755D01*
X185719841Y-98093004D01*
X185914282Y-98108307D01*
X185914291Y-98108307D01*
X185916739Y-98108500D01*
X186072271Y-98108500D01*
X186074407Y-98108354D01*
X186074418Y-98108354D01*
X186282548Y-98094165D01*
X186282554Y-98094164D01*
X186286825Y-98093873D01*
X186291020Y-98093004D01*
X186291022Y-98093004D01*
X186427584Y-98064723D01*
X186568342Y-98035574D01*
X186839343Y-97939607D01*
X187094812Y-97807750D01*
X187098313Y-97805289D01*
X187098317Y-97805287D01*
X187305254Y-97659849D01*
X187330023Y-97642441D01*
X187540622Y-97446740D01*
X187722713Y-97224268D01*
X187872927Y-96979142D01*
X187875086Y-96974225D01*
X187986757Y-96719830D01*
X187988483Y-96715898D01*
X188067244Y-96439406D01*
X188107751Y-96154784D01*
X188107844Y-96137207D01*
X188109235Y-95871583D01*
X188109235Y-95871576D01*
X188109257Y-95867297D01*
X188105885Y-95841680D01*
X188085030Y-95683277D01*
X188071732Y-95582266D01*
X187995871Y-95304964D01*
X187883077Y-95040524D01*
X187735439Y-94793839D01*
X187555687Y-94569472D01*
X187357332Y-94381240D01*
X187350258Y-94374527D01*
X187350255Y-94374525D01*
X187347149Y-94371577D01*
X187127026Y-94213402D01*
X187117172Y-94206321D01*
X187117171Y-94206320D01*
X187113683Y-94203814D01*
X187091843Y-94192250D01*
X187050649Y-94170439D01*
X186859608Y-94069288D01*
X186589627Y-93970489D01*
X186308736Y-93909245D01*
X186277685Y-93906801D01*
X186085718Y-93891693D01*
X186085709Y-93891693D01*
X186083261Y-93891500D01*
X185927729Y-93891500D01*
X185925593Y-93891646D01*
X185925582Y-93891646D01*
X185717452Y-93905835D01*
X185717446Y-93905836D01*
X185713175Y-93906127D01*
X185708980Y-93906996D01*
X185708978Y-93906996D01*
X185572416Y-93935277D01*
X185431658Y-93964426D01*
X185160657Y-94060393D01*
X184905188Y-94192250D01*
X184901687Y-94194711D01*
X184901683Y-94194713D01*
X184822881Y-94250096D01*
X184669977Y-94357559D01*
X184644498Y-94381236D01*
X184499151Y-94516301D01*
X184459378Y-94553260D01*
X184277287Y-94775732D01*
X184127073Y-95020858D01*
X184011517Y-95284102D01*
X183932756Y-95560594D01*
X183892249Y-95845216D01*
X183892227Y-95849505D01*
X183892226Y-95849512D01*
X183891015Y-96080720D01*
X183890743Y-96132703D01*
X180374749Y-96132703D01*
X180360431Y-96075702D01*
X180271354Y-95870840D01*
X180197312Y-95756389D01*
X180152822Y-95687617D01*
X180152820Y-95687614D01*
X180150014Y-95683277D01*
X180146532Y-95679450D01*
X180002798Y-95521488D01*
X179971746Y-95457642D01*
X179980141Y-95387143D01*
X180025317Y-95332375D01*
X180051761Y-95318706D01*
X180158297Y-95278767D01*
X180166705Y-95275615D01*
X180283261Y-95188261D01*
X180370615Y-95071705D01*
X180421745Y-94935316D01*
X180428500Y-94873134D01*
X180428500Y-93076866D01*
X180421745Y-93014684D01*
X180370615Y-92878295D01*
X180283261Y-92761739D01*
X180166705Y-92674385D01*
X180030316Y-92623255D01*
X179968134Y-92616500D01*
X178171866Y-92616500D01*
X178109684Y-92623255D01*
X177973295Y-92674385D01*
X177856739Y-92761739D01*
X177769385Y-92878295D01*
X177718255Y-93014684D01*
X177711500Y-93076866D01*
X177711500Y-94873134D01*
X177718255Y-94935316D01*
X177769385Y-95071705D01*
X177856739Y-95188261D01*
X177973295Y-95275615D01*
X177981704Y-95278767D01*
X177981705Y-95278768D01*
X178090451Y-95319535D01*
X178147216Y-95362176D01*
X178171916Y-95428738D01*
X178156709Y-95498087D01*
X178137316Y-95524568D01*
X178111409Y-95551678D01*
X178029007Y-95637907D01*
X178010629Y-95657138D01*
X178007715Y-95661410D01*
X178007714Y-95661411D01*
X177937062Y-95764983D01*
X177882151Y-95809986D01*
X177811626Y-95818157D01*
X177743879Y-95783074D01*
X171442357Y-89481552D01*
X171408331Y-89419240D01*
X171413396Y-89348425D01*
X171459181Y-89289245D01*
X171594776Y-89194301D01*
X171744301Y-89044776D01*
X171865589Y-88871558D01*
X171954956Y-88679910D01*
X171988828Y-88553500D01*
X172008262Y-88480970D01*
X172008262Y-88480968D01*
X172009686Y-88475655D01*
X172028116Y-88265000D01*
X177856884Y-88265000D01*
X177875314Y-88475655D01*
X177876738Y-88480968D01*
X177876738Y-88480970D01*
X177896173Y-88553500D01*
X177930044Y-88679910D01*
X178019411Y-88871558D01*
X178140699Y-89044776D01*
X178290224Y-89194301D01*
X178463442Y-89315589D01*
X178468420Y-89317910D01*
X178468423Y-89317912D01*
X178615069Y-89386294D01*
X178655090Y-89404956D01*
X178660398Y-89406378D01*
X178660400Y-89406379D01*
X178854030Y-89458262D01*
X178854032Y-89458262D01*
X178859345Y-89459686D01*
X179070000Y-89478116D01*
X179280655Y-89459686D01*
X179285968Y-89458262D01*
X179285970Y-89458262D01*
X179479600Y-89406379D01*
X179479602Y-89406378D01*
X179484910Y-89404956D01*
X179524931Y-89386294D01*
X179671577Y-89317912D01*
X179671580Y-89317910D01*
X179676558Y-89315589D01*
X179849776Y-89194301D01*
X179999301Y-89044776D01*
X180120589Y-88871558D01*
X180209956Y-88679910D01*
X180243828Y-88553500D01*
X180263262Y-88480970D01*
X180263262Y-88480968D01*
X180264686Y-88475655D01*
X180283116Y-88265000D01*
X180264686Y-88054345D01*
X180245984Y-87984547D01*
X180211379Y-87855400D01*
X180211378Y-87855398D01*
X180209956Y-87850090D01*
X180202350Y-87833778D01*
X180122912Y-87663423D01*
X180122910Y-87663420D01*
X180120589Y-87658442D01*
X179999301Y-87485224D01*
X179849776Y-87335699D01*
X179676558Y-87214411D01*
X179671580Y-87212090D01*
X179671577Y-87212088D01*
X179489892Y-87127367D01*
X179489891Y-87127366D01*
X179484910Y-87125044D01*
X179479602Y-87123622D01*
X179479600Y-87123621D01*
X179285970Y-87071738D01*
X179285968Y-87071738D01*
X179280655Y-87070314D01*
X179070000Y-87051884D01*
X178859345Y-87070314D01*
X178854032Y-87071738D01*
X178854030Y-87071738D01*
X178660400Y-87123621D01*
X178660398Y-87123622D01*
X178655090Y-87125044D01*
X178650109Y-87127366D01*
X178650108Y-87127367D01*
X178468423Y-87212088D01*
X178468420Y-87212090D01*
X178463442Y-87214411D01*
X178290224Y-87335699D01*
X178140699Y-87485224D01*
X178019411Y-87658442D01*
X178017090Y-87663420D01*
X178017088Y-87663423D01*
X177937650Y-87833778D01*
X177930044Y-87850090D01*
X177928622Y-87855398D01*
X177928621Y-87855400D01*
X177894016Y-87984547D01*
X177875314Y-88054345D01*
X177856884Y-88265000D01*
X172028116Y-88265000D01*
X172009686Y-88054345D01*
X171990984Y-87984547D01*
X171956379Y-87855400D01*
X171956378Y-87855398D01*
X171954956Y-87850090D01*
X171947350Y-87833778D01*
X171867912Y-87663423D01*
X171867910Y-87663420D01*
X171865589Y-87658442D01*
X171744301Y-87485224D01*
X171594776Y-87335699D01*
X171421558Y-87214411D01*
X171416580Y-87212090D01*
X171416577Y-87212088D01*
X171234892Y-87127367D01*
X171234891Y-87127366D01*
X171229910Y-87125044D01*
X171224602Y-87123622D01*
X171224600Y-87123621D01*
X171030970Y-87071738D01*
X171030968Y-87071738D01*
X171025655Y-87070314D01*
X170815000Y-87051884D01*
X170604345Y-87070314D01*
X170599032Y-87071738D01*
X170599030Y-87071738D01*
X170405400Y-87123621D01*
X170405398Y-87123622D01*
X170400090Y-87125044D01*
X170395109Y-87127366D01*
X170395108Y-87127367D01*
X170213423Y-87212088D01*
X170213420Y-87212090D01*
X170208442Y-87214411D01*
X170035224Y-87335699D01*
X169885699Y-87485224D01*
X169790755Y-87620819D01*
X169735300Y-87665147D01*
X169664680Y-87672456D01*
X169598448Y-87637643D01*
X168583771Y-86622966D01*
X185358257Y-86622966D01*
X185388565Y-86757446D01*
X185391645Y-86767275D01*
X185471770Y-86964603D01*
X185476413Y-86973794D01*
X185587694Y-87155388D01*
X185593777Y-87163699D01*
X185733213Y-87324667D01*
X185740580Y-87331883D01*
X185904434Y-87467916D01*
X185912881Y-87473831D01*
X186096756Y-87581279D01*
X186106042Y-87585729D01*
X186305001Y-87661703D01*
X186314899Y-87664579D01*
X186418250Y-87685606D01*
X186432299Y-87684410D01*
X186436000Y-87674065D01*
X186436000Y-87673517D01*
X186944000Y-87673517D01*
X186948064Y-87687359D01*
X186961478Y-87689393D01*
X186968184Y-87688534D01*
X186978262Y-87686392D01*
X187182255Y-87625191D01*
X187191842Y-87621433D01*
X187383095Y-87527739D01*
X187391945Y-87522464D01*
X187565328Y-87398792D01*
X187573200Y-87392139D01*
X187724052Y-87241812D01*
X187730730Y-87233965D01*
X187855003Y-87061020D01*
X187860313Y-87052183D01*
X187954670Y-86861267D01*
X187958469Y-86851672D01*
X188020377Y-86647910D01*
X188022555Y-86637837D01*
X188023986Y-86626962D01*
X188021775Y-86612778D01*
X188008617Y-86609000D01*
X186962115Y-86609000D01*
X186946876Y-86613475D01*
X186945671Y-86614865D01*
X186944000Y-86622548D01*
X186944000Y-87673517D01*
X186436000Y-87673517D01*
X186436000Y-86627115D01*
X186431525Y-86611876D01*
X186430135Y-86610671D01*
X186422452Y-86609000D01*
X185373225Y-86609000D01*
X185359694Y-86612973D01*
X185358257Y-86622966D01*
X168583771Y-86622966D01*
X166885705Y-84924900D01*
X166851679Y-84862588D01*
X166848800Y-84835805D01*
X166848800Y-84691867D01*
X166849327Y-84680684D01*
X166851002Y-84673191D01*
X166848862Y-84605114D01*
X166848800Y-84601155D01*
X166848800Y-84573244D01*
X166848295Y-84569244D01*
X166847362Y-84557401D01*
X166846222Y-84521129D01*
X166845973Y-84513210D01*
X166840322Y-84493758D01*
X166836314Y-84474406D01*
X166834767Y-84462163D01*
X166833774Y-84454303D01*
X166830856Y-84446932D01*
X166817500Y-84413197D01*
X166813655Y-84401970D01*
X166811104Y-84393189D01*
X166801318Y-84359507D01*
X166795699Y-84350005D01*
X166791007Y-84342072D01*
X166782312Y-84324324D01*
X166774852Y-84305483D01*
X166766929Y-84294577D01*
X166748864Y-84269713D01*
X166742348Y-84259793D01*
X166723880Y-84228565D01*
X166723878Y-84228562D01*
X166719842Y-84221738D01*
X166705521Y-84207417D01*
X166692680Y-84192383D01*
X166685431Y-84182406D01*
X166680772Y-84175993D01*
X166646695Y-84147802D01*
X166637916Y-84139812D01*
X165683104Y-83185000D01*
X169601884Y-83185000D01*
X169620314Y-83395655D01*
X169621738Y-83400968D01*
X169621738Y-83400970D01*
X169650959Y-83510022D01*
X169675044Y-83599910D01*
X169764411Y-83791558D01*
X169885699Y-83964776D01*
X170035224Y-84114301D01*
X170208442Y-84235589D01*
X170213420Y-84237910D01*
X170213423Y-84237912D01*
X170395108Y-84322633D01*
X170400090Y-84324956D01*
X170405398Y-84326378D01*
X170405400Y-84326379D01*
X170599030Y-84378262D01*
X170599032Y-84378262D01*
X170604345Y-84379686D01*
X170815000Y-84398116D01*
X171025655Y-84379686D01*
X171030968Y-84378262D01*
X171030970Y-84378262D01*
X171224600Y-84326379D01*
X171224602Y-84326378D01*
X171229910Y-84324956D01*
X171234892Y-84322633D01*
X171416573Y-84237914D01*
X171416577Y-84237912D01*
X171421558Y-84235589D01*
X171426060Y-84232437D01*
X171426063Y-84232435D01*
X171449126Y-84216286D01*
X171521396Y-84193500D01*
X178363604Y-84193500D01*
X178435874Y-84216286D01*
X178458937Y-84232435D01*
X178458940Y-84232437D01*
X178463442Y-84235589D01*
X178468423Y-84237912D01*
X178468427Y-84237914D01*
X178650108Y-84322633D01*
X178655090Y-84324956D01*
X178660398Y-84326378D01*
X178660400Y-84326379D01*
X178854030Y-84378262D01*
X178854032Y-84378262D01*
X178859345Y-84379686D01*
X179070000Y-84398116D01*
X179280655Y-84379686D01*
X179285968Y-84378262D01*
X179285970Y-84378262D01*
X179479600Y-84326379D01*
X179479602Y-84326378D01*
X179484910Y-84324956D01*
X179489892Y-84322633D01*
X179671577Y-84237912D01*
X179671580Y-84237910D01*
X179676558Y-84235589D01*
X179849776Y-84114301D01*
X179999301Y-83964776D01*
X180120589Y-83791558D01*
X180209956Y-83599910D01*
X180234042Y-83510022D01*
X180263262Y-83400970D01*
X180263262Y-83400968D01*
X180264686Y-83395655D01*
X180283116Y-83185000D01*
X180264686Y-82974345D01*
X180232623Y-82854684D01*
X180211379Y-82775400D01*
X180211378Y-82775398D01*
X180209956Y-82770090D01*
X180193612Y-82735040D01*
X180122912Y-82583423D01*
X180122910Y-82583420D01*
X180120589Y-82578442D01*
X179999301Y-82405224D01*
X179849776Y-82255699D01*
X179676558Y-82134411D01*
X179671580Y-82132090D01*
X179671577Y-82132088D01*
X179489892Y-82047367D01*
X179489891Y-82047366D01*
X179484910Y-82045044D01*
X179479602Y-82043622D01*
X179479600Y-82043621D01*
X179285970Y-81991738D01*
X179285968Y-81991738D01*
X179280655Y-81990314D01*
X179070000Y-81971884D01*
X178859345Y-81990314D01*
X178854032Y-81991738D01*
X178854030Y-81991738D01*
X178660400Y-82043621D01*
X178660398Y-82043622D01*
X178655090Y-82045044D01*
X178650109Y-82047366D01*
X178650108Y-82047367D01*
X178468427Y-82132086D01*
X178468423Y-82132088D01*
X178463442Y-82134411D01*
X178458940Y-82137563D01*
X178458937Y-82137565D01*
X178435874Y-82153714D01*
X178363604Y-82176500D01*
X171521396Y-82176500D01*
X171449126Y-82153714D01*
X171426063Y-82137565D01*
X171426060Y-82137563D01*
X171421558Y-82134411D01*
X171416577Y-82132088D01*
X171416573Y-82132086D01*
X171234892Y-82047367D01*
X171234891Y-82047366D01*
X171229910Y-82045044D01*
X171224602Y-82043622D01*
X171224600Y-82043621D01*
X171030970Y-81991738D01*
X171030968Y-81991738D01*
X171025655Y-81990314D01*
X170815000Y-81971884D01*
X170604345Y-81990314D01*
X170599032Y-81991738D01*
X170599030Y-81991738D01*
X170405400Y-82043621D01*
X170405398Y-82043622D01*
X170400090Y-82045044D01*
X170395109Y-82047366D01*
X170395108Y-82047367D01*
X170213423Y-82132088D01*
X170213420Y-82132090D01*
X170208442Y-82134411D01*
X170035224Y-82255699D01*
X169885699Y-82405224D01*
X169764411Y-82578442D01*
X169762090Y-82583420D01*
X169762088Y-82583423D01*
X169691388Y-82735040D01*
X169675044Y-82770090D01*
X169673622Y-82775398D01*
X169673621Y-82775400D01*
X169652377Y-82854684D01*
X169620314Y-82974345D01*
X169601884Y-83185000D01*
X165683104Y-83185000D01*
X164818396Y-82320292D01*
X164784370Y-82257980D01*
X164789435Y-82187165D01*
X164818396Y-82142102D01*
X164836198Y-82124300D01*
X164857644Y-82093673D01*
X164930016Y-81990314D01*
X164967523Y-81936749D01*
X164969846Y-81931767D01*
X164969849Y-81931762D01*
X165061961Y-81734225D01*
X165061961Y-81734224D01*
X165064284Y-81729243D01*
X165068417Y-81713821D01*
X165122119Y-81513402D01*
X165122119Y-81513400D01*
X165123543Y-81508087D01*
X165143498Y-81280000D01*
X165123543Y-81051913D01*
X165064284Y-80830757D01*
X165014106Y-80723149D01*
X165003445Y-80652958D01*
X165032425Y-80588146D01*
X165091845Y-80549289D01*
X165128301Y-80543900D01*
X183645997Y-80543900D01*
X183714118Y-80563902D01*
X183735092Y-80580805D01*
X185533583Y-82379361D01*
X185567606Y-82441672D01*
X185562540Y-82512488D01*
X185520050Y-82569279D01*
X185483920Y-82596357D01*
X185476739Y-82601739D01*
X185389385Y-82718295D01*
X185338255Y-82854684D01*
X185331500Y-82916866D01*
X185331500Y-84713134D01*
X185338255Y-84775316D01*
X185389385Y-84911705D01*
X185476739Y-85028261D01*
X185593295Y-85115615D01*
X185601704Y-85118767D01*
X185601705Y-85118768D01*
X185710960Y-85159726D01*
X185767725Y-85202367D01*
X185792425Y-85268929D01*
X185777218Y-85338278D01*
X185757825Y-85364759D01*
X185634590Y-85493717D01*
X185628104Y-85501727D01*
X185508098Y-85677649D01*
X185503000Y-85686623D01*
X185413338Y-85879783D01*
X185409775Y-85889470D01*
X185354389Y-86089183D01*
X185355912Y-86097607D01*
X185368292Y-86101000D01*
X188008344Y-86101000D01*
X188021875Y-86097027D01*
X188023180Y-86087947D01*
X187981214Y-85920875D01*
X187977894Y-85911124D01*
X187892972Y-85715814D01*
X187888105Y-85706739D01*
X187772426Y-85527926D01*
X187766136Y-85519757D01*
X187622293Y-85361677D01*
X187591241Y-85297831D01*
X187599635Y-85227333D01*
X187644812Y-85172564D01*
X187671256Y-85158895D01*
X187778297Y-85118767D01*
X187786705Y-85115615D01*
X187903261Y-85028261D01*
X187990615Y-84911705D01*
X188041745Y-84775316D01*
X188048500Y-84713134D01*
X188048500Y-82916866D01*
X188041745Y-82854684D01*
X187990615Y-82718295D01*
X187903261Y-82601739D01*
X187786705Y-82514385D01*
X187650316Y-82463255D01*
X187588134Y-82456500D01*
X187388078Y-82456500D01*
X187319957Y-82436498D01*
X187276905Y-82385798D01*
X187276024Y-82386319D01*
X187272988Y-82381185D01*
X187272986Y-82381183D01*
X187265709Y-82368877D01*
X187257011Y-82351121D01*
X187252472Y-82339656D01*
X187252469Y-82339651D01*
X187249552Y-82332283D01*
X187241823Y-82321644D01*
X187223571Y-82296523D01*
X187217052Y-82286599D01*
X187198583Y-82255368D01*
X187198582Y-82255366D01*
X187194549Y-82248547D01*
X187188946Y-82242943D01*
X187180222Y-82234219D01*
X187167387Y-82219192D01*
X187155472Y-82202793D01*
X187121399Y-82174605D01*
X187112631Y-82166626D01*
X187111832Y-82165827D01*
X184895038Y-79948951D01*
X184861015Y-79886640D01*
X184866081Y-79815824D01*
X184895041Y-79770764D01*
X185681769Y-78984036D01*
X185744081Y-78950010D01*
X185814896Y-78955075D01*
X185859959Y-78984036D01*
X185910224Y-79034301D01*
X186083442Y-79155589D01*
X186088420Y-79157910D01*
X186088423Y-79157912D01*
X186260372Y-79238093D01*
X186275090Y-79244956D01*
X186280398Y-79246378D01*
X186280400Y-79246379D01*
X186474030Y-79298262D01*
X186474032Y-79298262D01*
X186479345Y-79299686D01*
X186690000Y-79318116D01*
X186900655Y-79299686D01*
X186905968Y-79298262D01*
X186905970Y-79298262D01*
X187099600Y-79246379D01*
X187099602Y-79246378D01*
X187104910Y-79244956D01*
X187119628Y-79238093D01*
X187291577Y-79157912D01*
X187291580Y-79157910D01*
X187296558Y-79155589D01*
X187469776Y-79034301D01*
X187619301Y-78884776D01*
X187740589Y-78711558D01*
X187829956Y-78519910D01*
X187850156Y-78444525D01*
X187883262Y-78320970D01*
X187883262Y-78320968D01*
X187884686Y-78315655D01*
X187903116Y-78105000D01*
X187884686Y-77894345D01*
X187829956Y-77690090D01*
X187815417Y-77658911D01*
X187742912Y-77503423D01*
X187742910Y-77503420D01*
X187740589Y-77498442D01*
X187619301Y-77325224D01*
X187469776Y-77175699D01*
X187296558Y-77054411D01*
X187291580Y-77052090D01*
X187291577Y-77052088D01*
X187109892Y-76967367D01*
X187109891Y-76967366D01*
X187104910Y-76965044D01*
X187099602Y-76963622D01*
X187099600Y-76963621D01*
X186905970Y-76911738D01*
X186905968Y-76911738D01*
X186900655Y-76910314D01*
X186690000Y-76891884D01*
X186479345Y-76910314D01*
X186474032Y-76911738D01*
X186474030Y-76911738D01*
X186280400Y-76963621D01*
X186280398Y-76963622D01*
X186275090Y-76965044D01*
X186270109Y-76967366D01*
X186270108Y-76967367D01*
X186088423Y-77052088D01*
X186088420Y-77052090D01*
X186083442Y-77054411D01*
X185910224Y-77175699D01*
X185760699Y-77325224D01*
X185694540Y-77419709D01*
X185639086Y-77464036D01*
X185595289Y-77473375D01*
X185572930Y-77474078D01*
X185565010Y-77474327D01*
X185547354Y-77479456D01*
X185545558Y-77479978D01*
X185526206Y-77483986D01*
X185519135Y-77484880D01*
X185506103Y-77486526D01*
X185498734Y-77489443D01*
X185498732Y-77489444D01*
X185464997Y-77502800D01*
X185453769Y-77506645D01*
X185411307Y-77518982D01*
X185404485Y-77523016D01*
X185404479Y-77523019D01*
X185393868Y-77529294D01*
X185376118Y-77537990D01*
X185364656Y-77542528D01*
X185364651Y-77542531D01*
X185357283Y-77545448D01*
X185350868Y-77550109D01*
X185321525Y-77571427D01*
X185311607Y-77577943D01*
X185292919Y-77588995D01*
X185273537Y-77600458D01*
X185259213Y-77614782D01*
X185244181Y-77627621D01*
X185227793Y-77639528D01*
X185215293Y-77654638D01*
X185199612Y-77673593D01*
X185191622Y-77682373D01*
X183642147Y-79231848D01*
X183633865Y-79239386D01*
X183627382Y-79243500D01*
X183622934Y-79248237D01*
X183558282Y-79275995D01*
X183543204Y-79276900D01*
X159268525Y-79276900D01*
X159200404Y-79256898D01*
X159153911Y-79203242D01*
X159143807Y-79132968D01*
X159173301Y-79068388D01*
X159179430Y-79061805D01*
X162611116Y-75630118D01*
X162673428Y-75596092D01*
X162689227Y-75593692D01*
X162748087Y-75588543D01*
X162935894Y-75538220D01*
X162963933Y-75530707D01*
X162963935Y-75530706D01*
X162969243Y-75529284D01*
X163017467Y-75506797D01*
X163171762Y-75434849D01*
X163171767Y-75434846D01*
X163176749Y-75432523D01*
X163318754Y-75333090D01*
X163359789Y-75304357D01*
X163359792Y-75304355D01*
X163364300Y-75301198D01*
X163526198Y-75139300D01*
X163657523Y-74951749D01*
X163659846Y-74946767D01*
X163659849Y-74946762D01*
X163751961Y-74749225D01*
X163751961Y-74749224D01*
X163754284Y-74744243D01*
X163758332Y-74729138D01*
X163775841Y-74663790D01*
X163813543Y-74523087D01*
X163818692Y-74464231D01*
X163844555Y-74398113D01*
X163855118Y-74386117D01*
X164955592Y-73285643D01*
X166075829Y-72165405D01*
X166138141Y-72131380D01*
X166164924Y-72128500D01*
X175823604Y-72128500D01*
X175895874Y-72151286D01*
X175918937Y-72167435D01*
X175918940Y-72167437D01*
X175923442Y-72170589D01*
X175928423Y-72172912D01*
X175928427Y-72172914D01*
X176070512Y-72239169D01*
X176115090Y-72259956D01*
X176120398Y-72261378D01*
X176120400Y-72261379D01*
X176314030Y-72313262D01*
X176314032Y-72313262D01*
X176319345Y-72314686D01*
X176530000Y-72333116D01*
X176740655Y-72314686D01*
X176745968Y-72313262D01*
X176745970Y-72313262D01*
X176939600Y-72261379D01*
X176939602Y-72261378D01*
X176944910Y-72259956D01*
X176989488Y-72239169D01*
X177131573Y-72172914D01*
X177131577Y-72172912D01*
X177136558Y-72170589D01*
X177141060Y-72167437D01*
X177141063Y-72167435D01*
X177164126Y-72151286D01*
X177236396Y-72128500D01*
X181538604Y-72128500D01*
X181610874Y-72151286D01*
X181633937Y-72167435D01*
X181633940Y-72167437D01*
X181638442Y-72170589D01*
X181643423Y-72172912D01*
X181643427Y-72172914D01*
X181785512Y-72239169D01*
X181830090Y-72259956D01*
X181835398Y-72261378D01*
X181835400Y-72261379D01*
X182029030Y-72313262D01*
X182029032Y-72313262D01*
X182034345Y-72314686D01*
X182245000Y-72333116D01*
X182455655Y-72314686D01*
X182460968Y-72313262D01*
X182460970Y-72313262D01*
X182654600Y-72261379D01*
X182654602Y-72261378D01*
X182659910Y-72259956D01*
X182704488Y-72239169D01*
X182846577Y-72172912D01*
X182846580Y-72172910D01*
X182851558Y-72170589D01*
X183024776Y-72049301D01*
X183174301Y-71899776D01*
X183295589Y-71726558D01*
X183307279Y-71701490D01*
X183382633Y-71539892D01*
X183382634Y-71539891D01*
X183384956Y-71534910D01*
X183386379Y-71529600D01*
X183410618Y-71439139D01*
X183447570Y-71378516D01*
X183511431Y-71347495D01*
X183581925Y-71355923D01*
X183621420Y-71382655D01*
X185479087Y-73240322D01*
X185511699Y-73296806D01*
X185550044Y-73439910D01*
X185595165Y-73536672D01*
X185616670Y-73582789D01*
X185639411Y-73631558D01*
X185760699Y-73804776D01*
X185910224Y-73954301D01*
X186083442Y-74075589D01*
X186088420Y-74077910D01*
X186088423Y-74077912D01*
X186209942Y-74134577D01*
X186275090Y-74164956D01*
X186280398Y-74166378D01*
X186280400Y-74166379D01*
X186474030Y-74218262D01*
X186474032Y-74218262D01*
X186479345Y-74219686D01*
X186690000Y-74238116D01*
X186900655Y-74219686D01*
X186905968Y-74218262D01*
X186905970Y-74218262D01*
X187099600Y-74166379D01*
X187099602Y-74166378D01*
X187104910Y-74164956D01*
X187170058Y-74134577D01*
X187291577Y-74077912D01*
X187291580Y-74077910D01*
X187296558Y-74075589D01*
X187469776Y-73954301D01*
X187619301Y-73804776D01*
X187740589Y-73631558D01*
X187763331Y-73582789D01*
X187827633Y-73444892D01*
X187827634Y-73444891D01*
X187829956Y-73439910D01*
X187884686Y-73235655D01*
X187903116Y-73025000D01*
X187884686Y-72814345D01*
X187876553Y-72783992D01*
X187831379Y-72615400D01*
X187831378Y-72615398D01*
X187829956Y-72610090D01*
X187815417Y-72578911D01*
X187742912Y-72423423D01*
X187742910Y-72423420D01*
X187740589Y-72418442D01*
X187619301Y-72245224D01*
X187469776Y-72095699D01*
X187296558Y-71974411D01*
X187291580Y-71972090D01*
X187291577Y-71972088D01*
X187109892Y-71887367D01*
X187109891Y-71887366D01*
X187104910Y-71885044D01*
X187099602Y-71883622D01*
X187099600Y-71883621D01*
X187020890Y-71862531D01*
X186961806Y-71846700D01*
X186905323Y-71814088D01*
X184711886Y-69620651D01*
X182507654Y-67416420D01*
X182473628Y-67354108D01*
X182478693Y-67283293D01*
X182521240Y-67226457D01*
X182564138Y-67205618D01*
X182654600Y-67181379D01*
X182654602Y-67181378D01*
X182659910Y-67179956D01*
X182704488Y-67159169D01*
X182846577Y-67092912D01*
X182846580Y-67092910D01*
X182851558Y-67090589D01*
X183024776Y-66969301D01*
X183174301Y-66819776D01*
X183295589Y-66646558D01*
X183307279Y-66621490D01*
X183382633Y-66459892D01*
X183382634Y-66459891D01*
X183384956Y-66454910D01*
X183387344Y-66446000D01*
X183438262Y-66255970D01*
X183438262Y-66255968D01*
X183439686Y-66250655D01*
X183458116Y-66040000D01*
X183439686Y-65829345D01*
X183436074Y-65815865D01*
X183386379Y-65630400D01*
X183386378Y-65630398D01*
X183384956Y-65625090D01*
X183370935Y-65595022D01*
X183297912Y-65438423D01*
X183297910Y-65438420D01*
X183295589Y-65433442D01*
X183174301Y-65260224D01*
X183024776Y-65110699D01*
X182932230Y-65045898D01*
X182887901Y-64990441D01*
X182878500Y-64942685D01*
X182878500Y-57348768D01*
X182879027Y-57337585D01*
X182880702Y-57330092D01*
X182880127Y-57311780D01*
X182878562Y-57262002D01*
X182878500Y-57258044D01*
X182878500Y-57230144D01*
X182877996Y-57226153D01*
X182877063Y-57214311D01*
X182876594Y-57199370D01*
X182875674Y-57170111D01*
X182873461Y-57162493D01*
X182870021Y-57150652D01*
X182866012Y-57131293D01*
X182864578Y-57119943D01*
X182863474Y-57111203D01*
X182860558Y-57103837D01*
X182860556Y-57103831D01*
X182847200Y-57070098D01*
X182843355Y-57058868D01*
X182833230Y-57024017D01*
X182833230Y-57024016D01*
X182831019Y-57016407D01*
X182820705Y-56998966D01*
X182812008Y-56981213D01*
X182807472Y-56969758D01*
X182804552Y-56962383D01*
X182785280Y-56935857D01*
X182778563Y-56926612D01*
X182772047Y-56916692D01*
X182753578Y-56885463D01*
X182749542Y-56878638D01*
X182735221Y-56864317D01*
X182722380Y-56849283D01*
X182710472Y-56832893D01*
X182676395Y-56804702D01*
X182667616Y-56796712D01*
X180401422Y-54530517D01*
X180367396Y-54468205D01*
X180369959Y-54404795D01*
X180404966Y-54289575D01*
X180426933Y-54122717D01*
X180436370Y-54051038D01*
X180436370Y-54051034D01*
X180436807Y-54047717D01*
X180437713Y-54010634D01*
X180438502Y-53978365D01*
X180438502Y-53978361D01*
X180438584Y-53975000D01*
X180418596Y-53731876D01*
X180359167Y-53495280D01*
X180278649Y-53310102D01*
X180263954Y-53276305D01*
X180263952Y-53276302D01*
X180261894Y-53271568D01*
X180157026Y-53109467D01*
X180132200Y-53071091D01*
X180132198Y-53071088D01*
X180129390Y-53066748D01*
X180030543Y-52958116D01*
X179968690Y-52890141D01*
X179968688Y-52890140D01*
X179965212Y-52886319D01*
X179961161Y-52883120D01*
X179961157Y-52883116D01*
X179777825Y-52738329D01*
X179777821Y-52738327D01*
X179773770Y-52735127D01*
X179560205Y-52617233D01*
X179555336Y-52615509D01*
X179555332Y-52615507D01*
X179335127Y-52537528D01*
X179335123Y-52537527D01*
X179330252Y-52535802D01*
X179325159Y-52534895D01*
X179325156Y-52534894D01*
X179095177Y-52493928D01*
X179095171Y-52493927D01*
X179090088Y-52493022D01*
X179010380Y-52492048D01*
X178851332Y-52490105D01*
X178851330Y-52490105D01*
X178846162Y-52490042D01*
X178605024Y-52526941D01*
X178373150Y-52602729D01*
X178368558Y-52605119D01*
X178368559Y-52605119D01*
X178229077Y-52677729D01*
X178156769Y-52715370D01*
X178152636Y-52718473D01*
X178152633Y-52718475D01*
X178030565Y-52810127D01*
X177961690Y-52861840D01*
X177793153Y-53038204D01*
X177790239Y-53042476D01*
X177790238Y-53042477D01*
X177770719Y-53071091D01*
X177655684Y-53239726D01*
X177624332Y-53307267D01*
X177556066Y-53454334D01*
X177552974Y-53460995D01*
X177487783Y-53696067D01*
X177461860Y-53938631D01*
X177462157Y-53943783D01*
X177462157Y-53943787D01*
X177470383Y-54086438D01*
X177475903Y-54182171D01*
X177477040Y-54187217D01*
X177477041Y-54187223D01*
X177501223Y-54294527D01*
X177529533Y-54420147D01*
X177531475Y-54424929D01*
X177531476Y-54424933D01*
X177616859Y-54635205D01*
X177621311Y-54646169D01*
X177748772Y-54854166D01*
X177908492Y-55038553D01*
X178014006Y-55126152D01*
X178090880Y-55189974D01*
X178096183Y-55194377D01*
X178306804Y-55317453D01*
X178311629Y-55319295D01*
X178311630Y-55319296D01*
X178358364Y-55337142D01*
X178534698Y-55404478D01*
X178539764Y-55405509D01*
X178539765Y-55405509D01*
X178768667Y-55452080D01*
X178768671Y-55452080D01*
X178773746Y-55453113D01*
X178778922Y-55453303D01*
X178778924Y-55453303D01*
X179012363Y-55461863D01*
X179012367Y-55461863D01*
X179017527Y-55462052D01*
X179022647Y-55461396D01*
X179022649Y-55461396D01*
X179099377Y-55451567D01*
X179259494Y-55431055D01*
X179380222Y-55394835D01*
X179451215Y-55394418D01*
X179505522Y-55426426D01*
X181574595Y-57495499D01*
X181608621Y-57557811D01*
X181611500Y-57584594D01*
X181611500Y-64942685D01*
X181591498Y-65010806D01*
X181557770Y-65045898D01*
X181465224Y-65110699D01*
X181315699Y-65260224D01*
X181194411Y-65433442D01*
X181192090Y-65438420D01*
X181192088Y-65438423D01*
X181119065Y-65595022D01*
X181105044Y-65625090D01*
X181103622Y-65630398D01*
X181103621Y-65630400D01*
X181053926Y-65815865D01*
X181050314Y-65829345D01*
X181031884Y-66040000D01*
X181050314Y-66250655D01*
X181051738Y-66255968D01*
X181051738Y-66255970D01*
X181102657Y-66446000D01*
X181105044Y-66454910D01*
X181107366Y-66459891D01*
X181107367Y-66459892D01*
X181182722Y-66621490D01*
X181194411Y-66646558D01*
X181203393Y-66659385D01*
X181258600Y-66738230D01*
X181281288Y-66805504D01*
X181264003Y-66874364D01*
X181212233Y-66922948D01*
X181155387Y-66936500D01*
X177619613Y-66936500D01*
X177551492Y-66916498D01*
X177504999Y-66862842D01*
X177494895Y-66792568D01*
X177516400Y-66738230D01*
X177571607Y-66659385D01*
X177580589Y-66646558D01*
X177592279Y-66621490D01*
X177667633Y-66459892D01*
X177667634Y-66459891D01*
X177669956Y-66454910D01*
X177672344Y-66446000D01*
X177723262Y-66255970D01*
X177723262Y-66255968D01*
X177724686Y-66250655D01*
X177743116Y-66040000D01*
X177724686Y-65829345D01*
X177721074Y-65815865D01*
X177671379Y-65630400D01*
X177671378Y-65630398D01*
X177669956Y-65625090D01*
X177655935Y-65595022D01*
X177582912Y-65438423D01*
X177582910Y-65438420D01*
X177580589Y-65433442D01*
X177459301Y-65260224D01*
X177309776Y-65110699D01*
X177305268Y-65107542D01*
X177305265Y-65107540D01*
X177215293Y-65044541D01*
X177170965Y-64989084D01*
X177161626Y-64945288D01*
X177160923Y-64922936D01*
X177160674Y-64915011D01*
X177158462Y-64907397D01*
X177158461Y-64907392D01*
X177155023Y-64895559D01*
X177151012Y-64876195D01*
X177149467Y-64863964D01*
X177148474Y-64856103D01*
X177145557Y-64848736D01*
X177145556Y-64848731D01*
X177132198Y-64814992D01*
X177128354Y-64803765D01*
X177118230Y-64768922D01*
X177116018Y-64761307D01*
X177110938Y-64752717D01*
X177105707Y-64743872D01*
X177097012Y-64726124D01*
X177089552Y-64707283D01*
X177063564Y-64671513D01*
X177057048Y-64661593D01*
X177038580Y-64630365D01*
X177038578Y-64630362D01*
X177034542Y-64623538D01*
X177020221Y-64609217D01*
X177007380Y-64594183D01*
X177000132Y-64584207D01*
X176995472Y-64577793D01*
X176961407Y-64549612D01*
X176952626Y-64541622D01*
X176630604Y-64219599D01*
X176596579Y-64157287D01*
X176593700Y-64130504D01*
X176593700Y-58063183D01*
X176613702Y-57995062D01*
X176667358Y-57948569D01*
X176703689Y-57938204D01*
X176723520Y-57935663D01*
X176759494Y-57931055D01*
X176764443Y-57929570D01*
X176764449Y-57929569D01*
X176988200Y-57862440D01*
X176988199Y-57862440D01*
X176993150Y-57860955D01*
X177212219Y-57753634D01*
X177216424Y-57750634D01*
X177216430Y-57750631D01*
X177406614Y-57614974D01*
X177406616Y-57614972D01*
X177410818Y-57611975D01*
X177583614Y-57439781D01*
X177725966Y-57241677D01*
X177736558Y-57220247D01*
X177831756Y-57027626D01*
X177831757Y-57027624D01*
X177834050Y-57022984D01*
X177862103Y-56930651D01*
X177903462Y-56794527D01*
X177903463Y-56794521D01*
X177904966Y-56789575D01*
X177926958Y-56622531D01*
X177936370Y-56551038D01*
X177936370Y-56551034D01*
X177936807Y-56547717D01*
X177937146Y-56533859D01*
X177938502Y-56478365D01*
X177938502Y-56478361D01*
X177938584Y-56475000D01*
X177918596Y-56231876D01*
X177859167Y-55995280D01*
X177782636Y-55819272D01*
X177763954Y-55776305D01*
X177763952Y-55776302D01*
X177761894Y-55771568D01*
X177668888Y-55627802D01*
X177632200Y-55571091D01*
X177632198Y-55571088D01*
X177629390Y-55566748D01*
X177574762Y-55506712D01*
X177468690Y-55390141D01*
X177468688Y-55390140D01*
X177465212Y-55386319D01*
X177461161Y-55383120D01*
X177461157Y-55383116D01*
X177277825Y-55238329D01*
X177277821Y-55238327D01*
X177273770Y-55235127D01*
X177244370Y-55218897D01*
X177191975Y-55189974D01*
X177060205Y-55117233D01*
X177055336Y-55115509D01*
X177055332Y-55115507D01*
X176835127Y-55037528D01*
X176835123Y-55037527D01*
X176830252Y-55035802D01*
X176825159Y-55034895D01*
X176825156Y-55034894D01*
X176595177Y-54993928D01*
X176595171Y-54993927D01*
X176590088Y-54993022D01*
X176510380Y-54992048D01*
X176351332Y-54990105D01*
X176351330Y-54990105D01*
X176346162Y-54990042D01*
X176105024Y-55026941D01*
X175873150Y-55102729D01*
X175656769Y-55215370D01*
X175652636Y-55218473D01*
X175652633Y-55218475D01*
X175465900Y-55358679D01*
X175461690Y-55361840D01*
X175420944Y-55404478D01*
X175302615Y-55528303D01*
X175293153Y-55538204D01*
X175290239Y-55542476D01*
X175290238Y-55542477D01*
X175270719Y-55571091D01*
X175155684Y-55739726D01*
X175138705Y-55776305D01*
X175056429Y-55953552D01*
X175052974Y-55960995D01*
X174987783Y-56196067D01*
X174961860Y-56438631D01*
X174962157Y-56443783D01*
X174962157Y-56443787D01*
X174969296Y-56567583D01*
X174975903Y-56682171D01*
X174977042Y-56687224D01*
X174977042Y-56687226D01*
X175015933Y-56859800D01*
X175011397Y-56930651D01*
X174969275Y-56987802D01*
X174902942Y-57013108D01*
X174893016Y-57013500D01*
X170871763Y-57013500D01*
X170860579Y-57012973D01*
X170853091Y-57011299D01*
X170845168Y-57011548D01*
X170785033Y-57013438D01*
X170781075Y-57013500D01*
X170753144Y-57013500D01*
X170749229Y-57013995D01*
X170749225Y-57013995D01*
X170749167Y-57014003D01*
X170749138Y-57014006D01*
X170737296Y-57014939D01*
X170693110Y-57016327D01*
X170675744Y-57021372D01*
X170673658Y-57021978D01*
X170654306Y-57025986D01*
X170647235Y-57026880D01*
X170634203Y-57028526D01*
X170626834Y-57031443D01*
X170626832Y-57031444D01*
X170593097Y-57044800D01*
X170581869Y-57048645D01*
X170539407Y-57060982D01*
X170532585Y-57065016D01*
X170532579Y-57065019D01*
X170521968Y-57071294D01*
X170504218Y-57079990D01*
X170492756Y-57084528D01*
X170492751Y-57084531D01*
X170485383Y-57087448D01*
X170478968Y-57092109D01*
X170449625Y-57113427D01*
X170439707Y-57119943D01*
X170421019Y-57130995D01*
X170401637Y-57142458D01*
X170396031Y-57148064D01*
X170389771Y-57152920D01*
X170387981Y-57150613D01*
X170337788Y-57178021D01*
X170311005Y-57180900D01*
X167955520Y-57180900D01*
X167887399Y-57160898D01*
X167840906Y-57107242D01*
X167830802Y-57036968D01*
X167834961Y-57018272D01*
X167902974Y-56794413D01*
X167905151Y-56784343D01*
X167935869Y-56551015D01*
X167936388Y-56544340D01*
X167938001Y-56478364D01*
X167937807Y-56471647D01*
X167918525Y-56237108D01*
X167916842Y-56226946D01*
X167859952Y-56000453D01*
X167856634Y-55990706D01*
X167763513Y-55776542D01*
X167758646Y-55767467D01*
X167673465Y-55635796D01*
X167662779Y-55626593D01*
X167653214Y-55630996D01*
X166539095Y-56745115D01*
X166476783Y-56779141D01*
X166405968Y-56774076D01*
X166360905Y-56745115D01*
X165249892Y-55634102D01*
X165238356Y-55627802D01*
X165226073Y-55637426D01*
X165159036Y-55735698D01*
X165153943Y-55744662D01*
X165055619Y-55956483D01*
X165052062Y-55966151D01*
X164989657Y-56191178D01*
X164987726Y-56201298D01*
X164962910Y-56433510D01*
X164962658Y-56443799D01*
X164976102Y-56676942D01*
X164977535Y-56687144D01*
X165028873Y-56914949D01*
X165031956Y-56924789D01*
X165065540Y-57007496D01*
X165072636Y-57078137D01*
X165040414Y-57141401D01*
X164979104Y-57177201D01*
X164948797Y-57180900D01*
X150501494Y-57180900D01*
X150433373Y-57160898D01*
X150412399Y-57143995D01*
X150373922Y-57105518D01*
X150339896Y-57043206D01*
X150342459Y-56979794D01*
X150345509Y-56969758D01*
X150373193Y-56878638D01*
X150375962Y-56869526D01*
X150375963Y-56869523D01*
X150377466Y-56864575D01*
X150408362Y-56629895D01*
X150408870Y-56626038D01*
X150408870Y-56626034D01*
X150409307Y-56622717D01*
X150409611Y-56610282D01*
X150411002Y-56553365D01*
X150411002Y-56553361D01*
X150411084Y-56550000D01*
X150391096Y-56306876D01*
X150350183Y-56143995D01*
X150352987Y-56073055D01*
X150393700Y-56014891D01*
X150459395Y-55987972D01*
X150472387Y-55987300D01*
X162492433Y-55987300D01*
X162503616Y-55987827D01*
X162511109Y-55989502D01*
X162519035Y-55989253D01*
X162519036Y-55989253D01*
X162579186Y-55987362D01*
X162583145Y-55987300D01*
X162611056Y-55987300D01*
X162614991Y-55986803D01*
X162615056Y-55986795D01*
X162626893Y-55985862D01*
X162659151Y-55984848D01*
X162663170Y-55984722D01*
X162671089Y-55984473D01*
X162690543Y-55978821D01*
X162709900Y-55974813D01*
X162722130Y-55973268D01*
X162722131Y-55973268D01*
X162729997Y-55972274D01*
X162737368Y-55969355D01*
X162737370Y-55969355D01*
X162771112Y-55955996D01*
X162782342Y-55952151D01*
X162817183Y-55942029D01*
X162817184Y-55942029D01*
X162824793Y-55939818D01*
X162831612Y-55935785D01*
X162831617Y-55935783D01*
X162842228Y-55929507D01*
X162859976Y-55920812D01*
X162878817Y-55913352D01*
X162914587Y-55887364D01*
X162924507Y-55880848D01*
X162955735Y-55862380D01*
X162955738Y-55862378D01*
X162962562Y-55858342D01*
X162976883Y-55844021D01*
X162991917Y-55831180D01*
X163001894Y-55823931D01*
X163008307Y-55819272D01*
X163036498Y-55785195D01*
X163044488Y-55776416D01*
X163391360Y-55429544D01*
X163453672Y-55395518D01*
X163525404Y-55400929D01*
X163534698Y-55404478D01*
X163539764Y-55405509D01*
X163539765Y-55405509D01*
X163768667Y-55452080D01*
X163768671Y-55452080D01*
X163773746Y-55453113D01*
X163778922Y-55453303D01*
X163778924Y-55453303D01*
X164012363Y-55461863D01*
X164012367Y-55461863D01*
X164017527Y-55462052D01*
X164022647Y-55461396D01*
X164022649Y-55461396D01*
X164099377Y-55451567D01*
X164259494Y-55431055D01*
X164264443Y-55429570D01*
X164264449Y-55429569D01*
X164488200Y-55362440D01*
X164488199Y-55362440D01*
X164493150Y-55360955D01*
X164694852Y-55262142D01*
X165601938Y-55262142D01*
X165608684Y-55274474D01*
X166437188Y-56102978D01*
X166451132Y-56110592D01*
X166452965Y-56110461D01*
X166459580Y-56106210D01*
X167292391Y-55273399D01*
X167299412Y-55260543D01*
X167291639Y-55249875D01*
X167277548Y-55238746D01*
X167268970Y-55233047D01*
X167064526Y-55120189D01*
X167055126Y-55115964D01*
X166834993Y-55038011D01*
X166825036Y-55035381D01*
X166595129Y-54994427D01*
X166584878Y-54993458D01*
X166351367Y-54990605D01*
X166341083Y-54991325D01*
X166110253Y-55026647D01*
X166100225Y-55029036D01*
X165878263Y-55101584D01*
X165868753Y-55105581D01*
X165661624Y-55213405D01*
X165652904Y-55218897D01*
X165610391Y-55250817D01*
X165601938Y-55262142D01*
X164694852Y-55262142D01*
X164712219Y-55253634D01*
X164716424Y-55250634D01*
X164716430Y-55250631D01*
X164906614Y-55114974D01*
X164906616Y-55114972D01*
X164910818Y-55111975D01*
X165083614Y-54939781D01*
X165225966Y-54741677D01*
X165230592Y-54732318D01*
X165331756Y-54527626D01*
X165331757Y-54527624D01*
X165334050Y-54522984D01*
X165376993Y-54381644D01*
X165403462Y-54294527D01*
X165403463Y-54294521D01*
X165404966Y-54289575D01*
X165426933Y-54122717D01*
X165436370Y-54051038D01*
X165436370Y-54051034D01*
X165436807Y-54047717D01*
X165437713Y-54010634D01*
X165438502Y-53978365D01*
X165438502Y-53978361D01*
X165438584Y-53975000D01*
X165418596Y-53731876D01*
X165359167Y-53495280D01*
X165346585Y-53466343D01*
X165337764Y-53395897D01*
X165368430Y-53331865D01*
X165428846Y-53294577D01*
X165462134Y-53290100D01*
X169817006Y-53290100D01*
X169885127Y-53310102D01*
X169906101Y-53327005D01*
X169998218Y-53419122D01*
X170032244Y-53481434D01*
X170030541Y-53541886D01*
X169987783Y-53696067D01*
X169961860Y-53938631D01*
X169962157Y-53943783D01*
X169962157Y-53943787D01*
X169970383Y-54086438D01*
X169975903Y-54182171D01*
X169977040Y-54187217D01*
X169977041Y-54187223D01*
X170001223Y-54294527D01*
X170029533Y-54420147D01*
X170031475Y-54424929D01*
X170031476Y-54424933D01*
X170116859Y-54635205D01*
X170121311Y-54646169D01*
X170248772Y-54854166D01*
X170408492Y-55038553D01*
X170514006Y-55126152D01*
X170590880Y-55189974D01*
X170596183Y-55194377D01*
X170806804Y-55317453D01*
X170811629Y-55319295D01*
X170811630Y-55319296D01*
X170858364Y-55337142D01*
X171034698Y-55404478D01*
X171039764Y-55405509D01*
X171039765Y-55405509D01*
X171268667Y-55452080D01*
X171268671Y-55452080D01*
X171273746Y-55453113D01*
X171278922Y-55453303D01*
X171278924Y-55453303D01*
X171512363Y-55461863D01*
X171512367Y-55461863D01*
X171517527Y-55462052D01*
X171522647Y-55461396D01*
X171522649Y-55461396D01*
X171599377Y-55451567D01*
X171759494Y-55431055D01*
X171764443Y-55429570D01*
X171764449Y-55429569D01*
X171988200Y-55362440D01*
X171988199Y-55362440D01*
X171993150Y-55360955D01*
X172212219Y-55253634D01*
X172216424Y-55250634D01*
X172216430Y-55250631D01*
X172406614Y-55114974D01*
X172406616Y-55114972D01*
X172410818Y-55111975D01*
X172583614Y-54939781D01*
X172725966Y-54741677D01*
X172730592Y-54732318D01*
X172831756Y-54527626D01*
X172831757Y-54527624D01*
X172834050Y-54522984D01*
X172876993Y-54381644D01*
X172903462Y-54294527D01*
X172903463Y-54294521D01*
X172904966Y-54289575D01*
X172926933Y-54122717D01*
X172936370Y-54051038D01*
X172936370Y-54051034D01*
X172936807Y-54047717D01*
X172937713Y-54010634D01*
X172938502Y-53978365D01*
X172938502Y-53978361D01*
X172938584Y-53975000D01*
X172918596Y-53731876D01*
X172859167Y-53495280D01*
X172778649Y-53310102D01*
X172763954Y-53276305D01*
X172763952Y-53276302D01*
X172761894Y-53271568D01*
X172657026Y-53109467D01*
X172632200Y-53071091D01*
X172632198Y-53071088D01*
X172629390Y-53066748D01*
X172530543Y-52958116D01*
X172468690Y-52890141D01*
X172468688Y-52890140D01*
X172465212Y-52886319D01*
X172461161Y-52883120D01*
X172461157Y-52883116D01*
X172277825Y-52738329D01*
X172277821Y-52738327D01*
X172273770Y-52735127D01*
X172060205Y-52617233D01*
X172055336Y-52615509D01*
X172055332Y-52615507D01*
X171835127Y-52537528D01*
X171835123Y-52537527D01*
X171830252Y-52535802D01*
X171825159Y-52534895D01*
X171825156Y-52534894D01*
X171595177Y-52493928D01*
X171595171Y-52493927D01*
X171590088Y-52493022D01*
X171510380Y-52492048D01*
X171351332Y-52490105D01*
X171351330Y-52490105D01*
X171346162Y-52490042D01*
X171105024Y-52526941D01*
X171080692Y-52534894D01*
X171022416Y-52553941D01*
X170951452Y-52556092D01*
X170894176Y-52523271D01*
X170635252Y-52264347D01*
X170627712Y-52256061D01*
X170623600Y-52249582D01*
X170573948Y-52202956D01*
X170571107Y-52200202D01*
X170551370Y-52180465D01*
X170548173Y-52177985D01*
X170539151Y-52170280D01*
X170535000Y-52166382D01*
X170506921Y-52140014D01*
X170499975Y-52136195D01*
X170499972Y-52136193D01*
X170489166Y-52130252D01*
X170472647Y-52119401D01*
X170467683Y-52115551D01*
X170456641Y-52106986D01*
X170449372Y-52103841D01*
X170449368Y-52103838D01*
X170416063Y-52089426D01*
X170405413Y-52084209D01*
X170366660Y-52062905D01*
X170347037Y-52057867D01*
X170328334Y-52051463D01*
X170317020Y-52046567D01*
X170317019Y-52046567D01*
X170309745Y-52043419D01*
X170301922Y-52042180D01*
X170301912Y-52042177D01*
X170266076Y-52036501D01*
X170254456Y-52034095D01*
X170219311Y-52025072D01*
X170219310Y-52025072D01*
X170211630Y-52023100D01*
X170191376Y-52023100D01*
X170171665Y-52021549D01*
X170159486Y-52019620D01*
X170151657Y-52018380D01*
X170122386Y-52021147D01*
X170107639Y-52022541D01*
X170095781Y-52023100D01*
X145394667Y-52023100D01*
X145383484Y-52022573D01*
X145375991Y-52020898D01*
X145368065Y-52021147D01*
X145368064Y-52021147D01*
X145307914Y-52023038D01*
X145303955Y-52023100D01*
X145276044Y-52023100D01*
X145272110Y-52023597D01*
X145272109Y-52023597D01*
X145272044Y-52023605D01*
X145260207Y-52024538D01*
X145228390Y-52025538D01*
X145223929Y-52025678D01*
X145216010Y-52025927D01*
X145198354Y-52031056D01*
X145196558Y-52031578D01*
X145177206Y-52035586D01*
X145170135Y-52036480D01*
X145157103Y-52038126D01*
X145149734Y-52041043D01*
X145149732Y-52041044D01*
X145115997Y-52054400D01*
X145104769Y-52058245D01*
X145062307Y-52070582D01*
X145055485Y-52074616D01*
X145055479Y-52074619D01*
X145044868Y-52080894D01*
X145027118Y-52089590D01*
X145015656Y-52094128D01*
X145015651Y-52094131D01*
X145008283Y-52097048D01*
X144990870Y-52109699D01*
X144972525Y-52123027D01*
X144962607Y-52129543D01*
X144951363Y-52136193D01*
X144924537Y-52152058D01*
X144910213Y-52166382D01*
X144895181Y-52179221D01*
X144878793Y-52191128D01*
X144859569Y-52214366D01*
X144850612Y-52225193D01*
X144842622Y-52233973D01*
X144479371Y-52597224D01*
X144417059Y-52631250D01*
X144348218Y-52626902D01*
X144302752Y-52610802D01*
X144297663Y-52609895D01*
X144297661Y-52609895D01*
X144067677Y-52568928D01*
X144067671Y-52568927D01*
X144062588Y-52568022D01*
X143982880Y-52567048D01*
X143823832Y-52565105D01*
X143823830Y-52565105D01*
X143818662Y-52565042D01*
X143577524Y-52601941D01*
X143345650Y-52677729D01*
X143129269Y-52790370D01*
X143125136Y-52793473D01*
X143125133Y-52793475D01*
X142996387Y-52890141D01*
X142934190Y-52936840D01*
X142930618Y-52940578D01*
X142793226Y-53084351D01*
X142765653Y-53113204D01*
X142762739Y-53117476D01*
X142762738Y-53117477D01*
X142743219Y-53146091D01*
X142628184Y-53314726D01*
X142605424Y-53363758D01*
X142528446Y-53529593D01*
X142525474Y-53535995D01*
X142460283Y-53771067D01*
X142434360Y-54013631D01*
X142434657Y-54018783D01*
X142434657Y-54018787D01*
X142442225Y-54150029D01*
X142448403Y-54257171D01*
X142449540Y-54262217D01*
X142449541Y-54262223D01*
X142472607Y-54364575D01*
X142502033Y-54495147D01*
X142503975Y-54499930D01*
X142503978Y-54499939D01*
X142539369Y-54587095D01*
X142546466Y-54657736D01*
X142514244Y-54721000D01*
X142452935Y-54756801D01*
X142422627Y-54760500D01*
X141780994Y-54760500D01*
X141712873Y-54740498D01*
X141691899Y-54723595D01*
X141169102Y-54200797D01*
X140626052Y-53657747D01*
X140618512Y-53649461D01*
X140614400Y-53642982D01*
X140564748Y-53596356D01*
X140561907Y-53593602D01*
X140542170Y-53573865D01*
X140538973Y-53571385D01*
X140529951Y-53563680D01*
X140503500Y-53538841D01*
X140497721Y-53533414D01*
X140490775Y-53529595D01*
X140490772Y-53529593D01*
X140479966Y-53523652D01*
X140463447Y-53512801D01*
X140462983Y-53512441D01*
X140447441Y-53500386D01*
X140440172Y-53497241D01*
X140440168Y-53497238D01*
X140406863Y-53482826D01*
X140396213Y-53477609D01*
X140357460Y-53456305D01*
X140337837Y-53451267D01*
X140319134Y-53444863D01*
X140307820Y-53439967D01*
X140307819Y-53439967D01*
X140300545Y-53436819D01*
X140292722Y-53435580D01*
X140292712Y-53435577D01*
X140256876Y-53429901D01*
X140245256Y-53427495D01*
X140210111Y-53418472D01*
X140210110Y-53418472D01*
X140202430Y-53416500D01*
X140182176Y-53416500D01*
X140162465Y-53414949D01*
X140150286Y-53413020D01*
X140142457Y-53411780D01*
X140134565Y-53412526D01*
X140098439Y-53415941D01*
X140086581Y-53416500D01*
X137846820Y-53416500D01*
X137778699Y-53396498D01*
X137736020Y-53350307D01*
X137734394Y-53346568D01*
X137716833Y-53319423D01*
X137604700Y-53146091D01*
X137604698Y-53146088D01*
X137601890Y-53141748D01*
X137578339Y-53115865D01*
X137441190Y-52965141D01*
X137441188Y-52965140D01*
X137437712Y-52961319D01*
X137433661Y-52958120D01*
X137433657Y-52958116D01*
X137250325Y-52813329D01*
X137250321Y-52813327D01*
X137246270Y-52810127D01*
X137032705Y-52692233D01*
X137027836Y-52690509D01*
X137027832Y-52690507D01*
X136807627Y-52612528D01*
X136807623Y-52612527D01*
X136802752Y-52610802D01*
X136797659Y-52609895D01*
X136797656Y-52609894D01*
X136567677Y-52568928D01*
X136567671Y-52568927D01*
X136562588Y-52568022D01*
X136482880Y-52567048D01*
X136323832Y-52565105D01*
X136323830Y-52565105D01*
X136318662Y-52565042D01*
X136077524Y-52601941D01*
X135845650Y-52677729D01*
X135629269Y-52790370D01*
X135625136Y-52793473D01*
X135625133Y-52793475D01*
X135496387Y-52890141D01*
X135434190Y-52936840D01*
X135430618Y-52940578D01*
X135293226Y-53084351D01*
X135265653Y-53113204D01*
X135262739Y-53117476D01*
X135262738Y-53117477D01*
X135243219Y-53146091D01*
X135128184Y-53314726D01*
X135105424Y-53363758D01*
X135028446Y-53529593D01*
X135025474Y-53535995D01*
X134960283Y-53771067D01*
X134934360Y-54013631D01*
X134934657Y-54018783D01*
X134934657Y-54018787D01*
X134942225Y-54150029D01*
X134948403Y-54257171D01*
X134949540Y-54262217D01*
X134949541Y-54262223D01*
X134972607Y-54364575D01*
X135002033Y-54495147D01*
X135003975Y-54499929D01*
X135003976Y-54499933D01*
X135086250Y-54702548D01*
X135093811Y-54721169D01*
X135221272Y-54929166D01*
X135380992Y-55113553D01*
X135568683Y-55269377D01*
X135779304Y-55392453D01*
X135784129Y-55394295D01*
X135784130Y-55394296D01*
X135801500Y-55400929D01*
X136007198Y-55479478D01*
X136012264Y-55480509D01*
X136012265Y-55480509D01*
X136241167Y-55527080D01*
X136241171Y-55527080D01*
X136246246Y-55528113D01*
X136251422Y-55528303D01*
X136251424Y-55528303D01*
X136484863Y-55536863D01*
X136484867Y-55536863D01*
X136490027Y-55537052D01*
X136495147Y-55536396D01*
X136495149Y-55536396D01*
X136571877Y-55526567D01*
X136731994Y-55506055D01*
X136736943Y-55504570D01*
X136736949Y-55504569D01*
X136960700Y-55437440D01*
X136960699Y-55437440D01*
X136965650Y-55435955D01*
X137167352Y-55337142D01*
X138074438Y-55337142D01*
X138081184Y-55349474D01*
X138909688Y-56177978D01*
X138923632Y-56185592D01*
X138925465Y-56185461D01*
X138932080Y-56181210D01*
X139764891Y-55348399D01*
X139771912Y-55335543D01*
X139764139Y-55324875D01*
X139750048Y-55313746D01*
X139741470Y-55308047D01*
X139537026Y-55195189D01*
X139527626Y-55190964D01*
X139307493Y-55113011D01*
X139297536Y-55110381D01*
X139067629Y-55069427D01*
X139057378Y-55068458D01*
X138823867Y-55065605D01*
X138813583Y-55066325D01*
X138582753Y-55101647D01*
X138572725Y-55104036D01*
X138350763Y-55176584D01*
X138341253Y-55180581D01*
X138134124Y-55288405D01*
X138125404Y-55293897D01*
X138082891Y-55325817D01*
X138074438Y-55337142D01*
X137167352Y-55337142D01*
X137184719Y-55328634D01*
X137188924Y-55325634D01*
X137188930Y-55325631D01*
X137379114Y-55189974D01*
X137379116Y-55189972D01*
X137383318Y-55186975D01*
X137556114Y-55014781D01*
X137573846Y-54990105D01*
X137592301Y-54964422D01*
X137698466Y-54816677D01*
X137729605Y-54753672D01*
X137777717Y-54701466D01*
X137842561Y-54683500D01*
X139807806Y-54683500D01*
X139875927Y-54703502D01*
X139896901Y-54720405D01*
X140430129Y-55253634D01*
X140962748Y-55786253D01*
X140970288Y-55794539D01*
X140974400Y-55801018D01*
X140980177Y-55806443D01*
X141024051Y-55847643D01*
X141026893Y-55850398D01*
X141046630Y-55870135D01*
X141049827Y-55872615D01*
X141058847Y-55880318D01*
X141091079Y-55910586D01*
X141098025Y-55914405D01*
X141098028Y-55914407D01*
X141108834Y-55920348D01*
X141125353Y-55931199D01*
X141141359Y-55943614D01*
X141148628Y-55946759D01*
X141148632Y-55946762D01*
X141181937Y-55961174D01*
X141192587Y-55966391D01*
X141231340Y-55987695D01*
X141239015Y-55989666D01*
X141239016Y-55989666D01*
X141250962Y-55992733D01*
X141269667Y-55999137D01*
X141288255Y-56007181D01*
X141296078Y-56008420D01*
X141296088Y-56008423D01*
X141331924Y-56014099D01*
X141343544Y-56016505D01*
X141375359Y-56024673D01*
X141386370Y-56027500D01*
X141406624Y-56027500D01*
X141426334Y-56029051D01*
X141446343Y-56032220D01*
X141454235Y-56031474D01*
X141472980Y-56029702D01*
X141490362Y-56028059D01*
X141502219Y-56027500D01*
X145661033Y-56027500D01*
X145672216Y-56028027D01*
X145679709Y-56029702D01*
X145687635Y-56029453D01*
X145687636Y-56029453D01*
X145747786Y-56027562D01*
X145751745Y-56027500D01*
X145779656Y-56027500D01*
X145783591Y-56027003D01*
X145783656Y-56026995D01*
X145795493Y-56026062D01*
X145827751Y-56025048D01*
X145831770Y-56024922D01*
X145839689Y-56024673D01*
X145859143Y-56019021D01*
X145878500Y-56015013D01*
X145890730Y-56013468D01*
X145890731Y-56013468D01*
X145898597Y-56012474D01*
X145905968Y-56009555D01*
X145905970Y-56009555D01*
X145939712Y-55996196D01*
X145950942Y-55992351D01*
X145985783Y-55982229D01*
X145985784Y-55982229D01*
X145993393Y-55980018D01*
X146000212Y-55975985D01*
X146000217Y-55975983D01*
X146010828Y-55969707D01*
X146028576Y-55961012D01*
X146047417Y-55953552D01*
X146083187Y-55927564D01*
X146093107Y-55921048D01*
X146124340Y-55902577D01*
X146124342Y-55902575D01*
X146131162Y-55898542D01*
X146136768Y-55892936D01*
X146142044Y-55888843D01*
X146208128Y-55862894D01*
X146219273Y-55862400D01*
X147409179Y-55862400D01*
X147477300Y-55882402D01*
X147523793Y-55936058D01*
X147533897Y-56006332D01*
X147527500Y-56031631D01*
X147525474Y-56035995D01*
X147460283Y-56271067D01*
X147434360Y-56513631D01*
X147434657Y-56518783D01*
X147434657Y-56518787D01*
X147440865Y-56626438D01*
X147448403Y-56757171D01*
X147449540Y-56762217D01*
X147449541Y-56762223D01*
X147475777Y-56878638D01*
X147502033Y-56995147D01*
X147503975Y-56999929D01*
X147503976Y-56999933D01*
X147584959Y-57199370D01*
X147593811Y-57221169D01*
X147721272Y-57429166D01*
X147880992Y-57613553D01*
X148068683Y-57769377D01*
X148279304Y-57892453D01*
X148507198Y-57979478D01*
X148512264Y-57980509D01*
X148512265Y-57980509D01*
X148741167Y-58027080D01*
X148741171Y-58027080D01*
X148746246Y-58028113D01*
X148751422Y-58028303D01*
X148751424Y-58028303D01*
X148984863Y-58036863D01*
X148984867Y-58036863D01*
X148990027Y-58037052D01*
X148995147Y-58036396D01*
X148995149Y-58036396D01*
X149071877Y-58026567D01*
X149231994Y-58006055D01*
X149352722Y-57969835D01*
X149423715Y-57969418D01*
X149478022Y-58001426D01*
X149603001Y-58126405D01*
X149637027Y-58188717D01*
X149631962Y-58259532D01*
X149589415Y-58316368D01*
X149522895Y-58341179D01*
X149513906Y-58341500D01*
X145299670Y-58341500D01*
X145231549Y-58321498D01*
X145193878Y-58283940D01*
X145104700Y-58146091D01*
X145104698Y-58146088D01*
X145101890Y-58141748D01*
X145030402Y-58063183D01*
X144941190Y-57965141D01*
X144941188Y-57965140D01*
X144937712Y-57961319D01*
X144933661Y-57958120D01*
X144933657Y-57958116D01*
X144750325Y-57813329D01*
X144750321Y-57813327D01*
X144746270Y-57810127D01*
X144728373Y-57800247D01*
X144660258Y-57762646D01*
X144532705Y-57692233D01*
X144527836Y-57690509D01*
X144527832Y-57690507D01*
X144307627Y-57612528D01*
X144307623Y-57612527D01*
X144302752Y-57610802D01*
X144297659Y-57609895D01*
X144297656Y-57609894D01*
X144067677Y-57568928D01*
X144067671Y-57568927D01*
X144062588Y-57568022D01*
X143982880Y-57567048D01*
X143823832Y-57565105D01*
X143823830Y-57565105D01*
X143818662Y-57565042D01*
X143577524Y-57601941D01*
X143345650Y-57677729D01*
X143321104Y-57690507D01*
X143163071Y-57772774D01*
X143129269Y-57790370D01*
X143125136Y-57793473D01*
X143125133Y-57793475D01*
X142940520Y-57932087D01*
X142934190Y-57936840D01*
X142765653Y-58113204D01*
X142762739Y-58117476D01*
X142762738Y-58117477D01*
X142697648Y-58212895D01*
X142628184Y-58314726D01*
X142590386Y-58396154D01*
X142542047Y-58500292D01*
X142525474Y-58535995D01*
X142460283Y-58771067D01*
X142434360Y-59013631D01*
X142434657Y-59018783D01*
X142434657Y-59018787D01*
X142446058Y-59216499D01*
X142448403Y-59257171D01*
X142449540Y-59262217D01*
X142449541Y-59262223D01*
X142459368Y-59305827D01*
X142502033Y-59495147D01*
X142503975Y-59499929D01*
X142503976Y-59499933D01*
X142572491Y-59668665D01*
X142593811Y-59721169D01*
X142721272Y-59929166D01*
X142880992Y-60113553D01*
X143068683Y-60269377D01*
X143279304Y-60392453D01*
X143507198Y-60479478D01*
X143512264Y-60480509D01*
X143512265Y-60480509D01*
X143741167Y-60527080D01*
X143741171Y-60527080D01*
X143746246Y-60528113D01*
X143751422Y-60528303D01*
X143751424Y-60528303D01*
X143984863Y-60536863D01*
X143984867Y-60536863D01*
X143990027Y-60537052D01*
X143995147Y-60536396D01*
X143995149Y-60536396D01*
X144071877Y-60526567D01*
X144231994Y-60506055D01*
X144236943Y-60504570D01*
X144236949Y-60504569D01*
X144460700Y-60437440D01*
X144460699Y-60437440D01*
X144465650Y-60435955D01*
X144684719Y-60328634D01*
X144688924Y-60325634D01*
X144688930Y-60325631D01*
X144879114Y-60189974D01*
X144879116Y-60189972D01*
X144883318Y-60186975D01*
X145056114Y-60014781D01*
X145198466Y-59816677D01*
X145233458Y-59745876D01*
X145266672Y-59678673D01*
X145314786Y-59626466D01*
X145379629Y-59608500D01*
X170027664Y-59608500D01*
X170095785Y-59628502D01*
X170135096Y-59668664D01*
X170248772Y-59854166D01*
X170408492Y-60038553D01*
X170539328Y-60147175D01*
X170590880Y-60189974D01*
X170596183Y-60194377D01*
X170806804Y-60317453D01*
X171034698Y-60404478D01*
X171039764Y-60405509D01*
X171039765Y-60405509D01*
X171268667Y-60452080D01*
X171268671Y-60452080D01*
X171273746Y-60453113D01*
X171278922Y-60453303D01*
X171278924Y-60453303D01*
X171512363Y-60461863D01*
X171512367Y-60461863D01*
X171517527Y-60462052D01*
X171522647Y-60461396D01*
X171522649Y-60461396D01*
X171599377Y-60451567D01*
X171759494Y-60431055D01*
X171764443Y-60429570D01*
X171764449Y-60429569D01*
X171988200Y-60362440D01*
X171988199Y-60362440D01*
X171993150Y-60360955D01*
X172212219Y-60253634D01*
X172216424Y-60250634D01*
X172216430Y-60250631D01*
X172406614Y-60114974D01*
X172406616Y-60114972D01*
X172410818Y-60111975D01*
X172583614Y-59939781D01*
X172725966Y-59741677D01*
X172738468Y-59716382D01*
X172831756Y-59527626D01*
X172831757Y-59527624D01*
X172834050Y-59522984D01*
X172875057Y-59388016D01*
X172903462Y-59294527D01*
X172903463Y-59294521D01*
X172904966Y-59289575D01*
X172924018Y-59144857D01*
X172936370Y-59051038D01*
X172936370Y-59051034D01*
X172936807Y-59047717D01*
X172937667Y-59012542D01*
X172938502Y-58978365D01*
X172938502Y-58978361D01*
X172938584Y-58975000D01*
X172918596Y-58731876D01*
X172859167Y-58495280D01*
X172842411Y-58456743D01*
X172833590Y-58386296D01*
X172864257Y-58322264D01*
X172924673Y-58284976D01*
X172957960Y-58280500D01*
X175200700Y-58280500D01*
X175268821Y-58300502D01*
X175315314Y-58354158D01*
X175326700Y-58406500D01*
X175326700Y-64366333D01*
X175326173Y-64377516D01*
X175324498Y-64385009D01*
X175324747Y-64392935D01*
X175324747Y-64392936D01*
X175326638Y-64453086D01*
X175326700Y-64457045D01*
X175326700Y-64484956D01*
X175327197Y-64488890D01*
X175327197Y-64488891D01*
X175327205Y-64488956D01*
X175328138Y-64500793D01*
X175329527Y-64544989D01*
X175335178Y-64564439D01*
X175339187Y-64583800D01*
X175341726Y-64603897D01*
X175344645Y-64611268D01*
X175344645Y-64611270D01*
X175358004Y-64645012D01*
X175361849Y-64656242D01*
X175364890Y-64666708D01*
X175374182Y-64698693D01*
X175378215Y-64705512D01*
X175378217Y-64705517D01*
X175384493Y-64716128D01*
X175393188Y-64733876D01*
X175400648Y-64752717D01*
X175405310Y-64759133D01*
X175405310Y-64759134D01*
X175426636Y-64788487D01*
X175433152Y-64798407D01*
X175445550Y-64819370D01*
X175455658Y-64836462D01*
X175469979Y-64850783D01*
X175482819Y-64865816D01*
X175494728Y-64882207D01*
X175500834Y-64887258D01*
X175528794Y-64910389D01*
X175537572Y-64918377D01*
X175596153Y-64976957D01*
X175650965Y-65031769D01*
X175684989Y-65094080D01*
X175679925Y-65164896D01*
X175650964Y-65209959D01*
X175600699Y-65260224D01*
X175479411Y-65433442D01*
X175477090Y-65438420D01*
X175477088Y-65438423D01*
X175404065Y-65595022D01*
X175390044Y-65625090D01*
X175388622Y-65630398D01*
X175388621Y-65630400D01*
X175338926Y-65815865D01*
X175335314Y-65829345D01*
X175316884Y-66040000D01*
X175335314Y-66250655D01*
X175336738Y-66255968D01*
X175336738Y-66255970D01*
X175387657Y-66446000D01*
X175390044Y-66454910D01*
X175392366Y-66459891D01*
X175392367Y-66459892D01*
X175467722Y-66621490D01*
X175479411Y-66646558D01*
X175488393Y-66659385D01*
X175543600Y-66738230D01*
X175566288Y-66805504D01*
X175549003Y-66874364D01*
X175497233Y-66922948D01*
X175440387Y-66936500D01*
X149931396Y-66936500D01*
X149859126Y-66913714D01*
X149836063Y-66897565D01*
X149836060Y-66897563D01*
X149831558Y-66894411D01*
X149826577Y-66892088D01*
X149826573Y-66892086D01*
X149644892Y-66807367D01*
X149644891Y-66807366D01*
X149639910Y-66805044D01*
X149634602Y-66803622D01*
X149634600Y-66803621D01*
X149440970Y-66751738D01*
X149440968Y-66751738D01*
X149435655Y-66750314D01*
X149225000Y-66731884D01*
X149014345Y-66750314D01*
X149009032Y-66751738D01*
X149009030Y-66751738D01*
X148815400Y-66803621D01*
X148815398Y-66803622D01*
X148810090Y-66805044D01*
X148805109Y-66807366D01*
X148805108Y-66807367D01*
X148623423Y-66892088D01*
X148623420Y-66892090D01*
X148618442Y-66894411D01*
X148445224Y-67015699D01*
X148295699Y-67165224D01*
X148174411Y-67338442D01*
X148172090Y-67343420D01*
X148172088Y-67343423D01*
X148099583Y-67498911D01*
X148085044Y-67530090D01*
X148083622Y-67535398D01*
X148083621Y-67535400D01*
X148035358Y-67715520D01*
X148030314Y-67734345D01*
X148011884Y-67945000D01*
X148030314Y-68155655D01*
X148085044Y-68359910D01*
X148174411Y-68551558D01*
X148295699Y-68724776D01*
X148445224Y-68874301D01*
X148618442Y-68995589D01*
X148623420Y-68997910D01*
X148623423Y-68997912D01*
X148753949Y-69058777D01*
X148810090Y-69084956D01*
X148815398Y-69086378D01*
X148815400Y-69086379D01*
X149009030Y-69138262D01*
X149009032Y-69138262D01*
X149014345Y-69139686D01*
X149225000Y-69158116D01*
X149435655Y-69139686D01*
X149440968Y-69138262D01*
X149440970Y-69138262D01*
X149634600Y-69086379D01*
X149634602Y-69086378D01*
X149639910Y-69084956D01*
X149685084Y-69063891D01*
X149826573Y-68997914D01*
X149826577Y-68997912D01*
X149831558Y-68995589D01*
X149836060Y-68992437D01*
X149836063Y-68992435D01*
X149859126Y-68976286D01*
X149931396Y-68953500D01*
X181140075Y-68953500D01*
X181208196Y-68973502D01*
X181229170Y-68990405D01*
X181982345Y-69743580D01*
X182016371Y-69805892D01*
X182011306Y-69876707D01*
X181968759Y-69933543D01*
X181925861Y-69954382D01*
X181835400Y-69978621D01*
X181835398Y-69978622D01*
X181830090Y-69980044D01*
X181825109Y-69982366D01*
X181825108Y-69982367D01*
X181643427Y-70067086D01*
X181643423Y-70067088D01*
X181638442Y-70069411D01*
X181633940Y-70072563D01*
X181633937Y-70072565D01*
X181610874Y-70088714D01*
X181538604Y-70111500D01*
X177236396Y-70111500D01*
X177164126Y-70088714D01*
X177141063Y-70072565D01*
X177141060Y-70072563D01*
X177136558Y-70069411D01*
X177131577Y-70067088D01*
X177131573Y-70067086D01*
X176949892Y-69982367D01*
X176949891Y-69982366D01*
X176944910Y-69980044D01*
X176939602Y-69978622D01*
X176939600Y-69978621D01*
X176745970Y-69926738D01*
X176745968Y-69926738D01*
X176740655Y-69925314D01*
X176530000Y-69906884D01*
X176319345Y-69925314D01*
X176314032Y-69926738D01*
X176314030Y-69926738D01*
X176120400Y-69978621D01*
X176120398Y-69978622D01*
X176115090Y-69980044D01*
X176110109Y-69982366D01*
X176110108Y-69982367D01*
X175928427Y-70067086D01*
X175928423Y-70067088D01*
X175923442Y-70069411D01*
X175918940Y-70072563D01*
X175918937Y-70072565D01*
X175895874Y-70088714D01*
X175823604Y-70111500D01*
X165756843Y-70111500D01*
X165743236Y-70110763D01*
X165711738Y-70107341D01*
X165711733Y-70107341D01*
X165705612Y-70106676D01*
X165679362Y-70108973D01*
X165655612Y-70111050D01*
X165650786Y-70111379D01*
X165648314Y-70111500D01*
X165645231Y-70111500D01*
X165633262Y-70112674D01*
X165602494Y-70115690D01*
X165601181Y-70115812D01*
X165556916Y-70119685D01*
X165508587Y-70123913D01*
X165503468Y-70125400D01*
X165498167Y-70125920D01*
X165409166Y-70152791D01*
X165408033Y-70153126D01*
X165324586Y-70177370D01*
X165324582Y-70177372D01*
X165318664Y-70179091D01*
X165313932Y-70181544D01*
X165308831Y-70183084D01*
X165303388Y-70185978D01*
X165226740Y-70226731D01*
X165225574Y-70227343D01*
X165148547Y-70267271D01*
X165143074Y-70270108D01*
X165138911Y-70273431D01*
X165134204Y-70275934D01*
X165062082Y-70334755D01*
X165061226Y-70335446D01*
X165022027Y-70366738D01*
X165019523Y-70369242D01*
X165018805Y-70369884D01*
X165014472Y-70373585D01*
X164980938Y-70400935D01*
X164977011Y-70405682D01*
X164977009Y-70405684D01*
X164951713Y-70436262D01*
X164943723Y-70445042D01*
X163677354Y-71711412D01*
X162428884Y-72959882D01*
X162366572Y-72993907D01*
X162350773Y-72996308D01*
X162291913Y-73001457D01*
X162144141Y-73041053D01*
X162076067Y-73059293D01*
X162076065Y-73059294D01*
X162070757Y-73060716D01*
X162065776Y-73063039D01*
X162065775Y-73063039D01*
X161868238Y-73155151D01*
X161868233Y-73155154D01*
X161863251Y-73157477D01*
X161773471Y-73220342D01*
X161680211Y-73285643D01*
X161680208Y-73285645D01*
X161675700Y-73288802D01*
X161513802Y-73450700D01*
X161510645Y-73455208D01*
X161510643Y-73455211D01*
X161455902Y-73533389D01*
X161382477Y-73638251D01*
X161380154Y-73643233D01*
X161380151Y-73643238D01*
X161303009Y-73808671D01*
X161285716Y-73845757D01*
X161226457Y-74066913D01*
X161221308Y-74125769D01*
X161195445Y-74191887D01*
X161184882Y-74203883D01*
X157422971Y-77965795D01*
X157360659Y-77999821D01*
X157333876Y-78002700D01*
X147769231Y-78002700D01*
X147766175Y-78003000D01*
X147766168Y-78003000D01*
X147707660Y-78008737D01*
X147622167Y-78017120D01*
X147616266Y-78018902D01*
X147616264Y-78018902D01*
X147555957Y-78037110D01*
X147432831Y-78074284D01*
X147258204Y-78167134D01*
X147171938Y-78237491D01*
X147109713Y-78288240D01*
X147109710Y-78288243D01*
X147104938Y-78292135D01*
X147101011Y-78296882D01*
X147101009Y-78296884D01*
X146982799Y-78439775D01*
X146982797Y-78439779D01*
X146978870Y-78444525D01*
X146884802Y-78618499D01*
X146826318Y-78807432D01*
X146825674Y-78813557D01*
X146825674Y-78813558D01*
X146811333Y-78950010D01*
X146805645Y-79004125D01*
X146808271Y-79032975D01*
X146794527Y-79102627D01*
X146745306Y-79153792D01*
X146676238Y-79170225D01*
X146609249Y-79146707D01*
X146593695Y-79133490D01*
X143686552Y-76226347D01*
X143679012Y-76218061D01*
X143674900Y-76211582D01*
X143625248Y-76164956D01*
X143622407Y-76162202D01*
X143602670Y-76142465D01*
X143599473Y-76139985D01*
X143590451Y-76132280D01*
X143564000Y-76107441D01*
X143558221Y-76102014D01*
X143551275Y-76098195D01*
X143551272Y-76098193D01*
X143540466Y-76092252D01*
X143523947Y-76081401D01*
X143523483Y-76081041D01*
X143507941Y-76068986D01*
X143500672Y-76065841D01*
X143500668Y-76065838D01*
X143467363Y-76051426D01*
X143456713Y-76046209D01*
X143417960Y-76024905D01*
X143398337Y-76019867D01*
X143379634Y-76013463D01*
X143368320Y-76008567D01*
X143368319Y-76008567D01*
X143361045Y-76005419D01*
X143353222Y-76004180D01*
X143353212Y-76004177D01*
X143317376Y-75998501D01*
X143305756Y-75996095D01*
X143270611Y-75987072D01*
X143270610Y-75987072D01*
X143262930Y-75985100D01*
X143242676Y-75985100D01*
X143222965Y-75983549D01*
X143210786Y-75981620D01*
X143202957Y-75980380D01*
X143195065Y-75981126D01*
X143158939Y-75984541D01*
X143147081Y-75985100D01*
X141909094Y-75985100D01*
X141840973Y-75965098D01*
X141819999Y-75948195D01*
X141252866Y-75381062D01*
X156798493Y-75381062D01*
X156807789Y-75393077D01*
X156858994Y-75428931D01*
X156868489Y-75434414D01*
X157065947Y-75526490D01*
X157076239Y-75530236D01*
X157286688Y-75586625D01*
X157297481Y-75588528D01*
X157514525Y-75607517D01*
X157525475Y-75607517D01*
X157742519Y-75588528D01*
X157753312Y-75586625D01*
X157963761Y-75530236D01*
X157974053Y-75526490D01*
X158171511Y-75434414D01*
X158181006Y-75428931D01*
X158233048Y-75392491D01*
X158241424Y-75382012D01*
X158234356Y-75368566D01*
X157532812Y-74667022D01*
X157518868Y-74659408D01*
X157517035Y-74659539D01*
X157510420Y-74663790D01*
X156804923Y-75369287D01*
X156798493Y-75381062D01*
X141252866Y-75381062D01*
X140310675Y-74438871D01*
X140276649Y-74376559D01*
X140281714Y-74305744D01*
X140285658Y-74300475D01*
X156207483Y-74300475D01*
X156226472Y-74517519D01*
X156228375Y-74528312D01*
X156284764Y-74738761D01*
X156288510Y-74749053D01*
X156380586Y-74946511D01*
X156386069Y-74956006D01*
X156422509Y-75008048D01*
X156432988Y-75016424D01*
X156446434Y-75009356D01*
X157147978Y-74307812D01*
X157154356Y-74296132D01*
X157884408Y-74296132D01*
X157884539Y-74297965D01*
X157888790Y-74304580D01*
X158594287Y-75010077D01*
X158606062Y-75016507D01*
X158618077Y-75007211D01*
X158653931Y-74956006D01*
X158659414Y-74946511D01*
X158751490Y-74749053D01*
X158755236Y-74738761D01*
X158811625Y-74528312D01*
X158813528Y-74517519D01*
X158832517Y-74300475D01*
X158832517Y-74289525D01*
X158813528Y-74072481D01*
X158811625Y-74061688D01*
X158755236Y-73851239D01*
X158751490Y-73840947D01*
X158659414Y-73643489D01*
X158653931Y-73633994D01*
X158617491Y-73581952D01*
X158607012Y-73573576D01*
X158593566Y-73580644D01*
X157892022Y-74282188D01*
X157884408Y-74296132D01*
X157154356Y-74296132D01*
X157155592Y-74293868D01*
X157155461Y-74292035D01*
X157151210Y-74285420D01*
X156445713Y-73579923D01*
X156433938Y-73573493D01*
X156421923Y-73582789D01*
X156386069Y-73633994D01*
X156380586Y-73643489D01*
X156288510Y-73840947D01*
X156284764Y-73851239D01*
X156228375Y-74061688D01*
X156226472Y-74072481D01*
X156207483Y-74289525D01*
X156207483Y-74300475D01*
X140285658Y-74300475D01*
X140324261Y-74248908D01*
X140344338Y-74236624D01*
X140393100Y-74212736D01*
X140401945Y-74207464D01*
X140575328Y-74083792D01*
X140583200Y-74077139D01*
X140734052Y-73926812D01*
X140740730Y-73918965D01*
X140865003Y-73746020D01*
X140870313Y-73737183D01*
X140964670Y-73546267D01*
X140968469Y-73536672D01*
X141030377Y-73332910D01*
X141032555Y-73322837D01*
X141033986Y-73311962D01*
X141031775Y-73297778D01*
X141018617Y-73294000D01*
X139572000Y-73294000D01*
X139503879Y-73273998D01*
X139457386Y-73220342D01*
X139454699Y-73207988D01*
X156798576Y-73207988D01*
X156805644Y-73221434D01*
X157507188Y-73922978D01*
X157521132Y-73930592D01*
X157522965Y-73930461D01*
X157529580Y-73926210D01*
X158235077Y-73220713D01*
X158241507Y-73208938D01*
X158232211Y-73196923D01*
X158181006Y-73161069D01*
X158171511Y-73155586D01*
X157974053Y-73063510D01*
X157963761Y-73059764D01*
X157753312Y-73003375D01*
X157742519Y-73001472D01*
X157525475Y-72982483D01*
X157514525Y-72982483D01*
X157297481Y-73001472D01*
X157286688Y-73003375D01*
X157076239Y-73059764D01*
X157065947Y-73063510D01*
X156868489Y-73155586D01*
X156858994Y-73161069D01*
X156806952Y-73197509D01*
X156798576Y-73207988D01*
X139454699Y-73207988D01*
X139446000Y-73168000D01*
X139446000Y-72912000D01*
X139466002Y-72843879D01*
X139519658Y-72797386D01*
X139572000Y-72786000D01*
X141018344Y-72786000D01*
X141031875Y-72782027D01*
X141033180Y-72772947D01*
X140991214Y-72605875D01*
X140987894Y-72596124D01*
X140902972Y-72400814D01*
X140898105Y-72391739D01*
X140782426Y-72212926D01*
X140776136Y-72204757D01*
X140632806Y-72047240D01*
X140625273Y-72040215D01*
X140458139Y-71908222D01*
X140449556Y-71902520D01*
X140412602Y-71882120D01*
X140362631Y-71831687D01*
X140347859Y-71762245D01*
X140372975Y-71695839D01*
X140400327Y-71669232D01*
X140423797Y-71652491D01*
X140579860Y-71541173D01*
X140738096Y-71383489D01*
X140741670Y-71378516D01*
X140865435Y-71206277D01*
X140868453Y-71202077D01*
X140876635Y-71185523D01*
X140965136Y-71006453D01*
X140965137Y-71006451D01*
X140967430Y-71001811D01*
X141032370Y-70788069D01*
X141061529Y-70566590D01*
X141063156Y-70500000D01*
X141044852Y-70277361D01*
X140990431Y-70060702D01*
X140901354Y-69855840D01*
X140837475Y-69757098D01*
X140782822Y-69672617D01*
X140782820Y-69672614D01*
X140780014Y-69668277D01*
X140762599Y-69649138D01*
X140632798Y-69506488D01*
X140601746Y-69442642D01*
X140610141Y-69372143D01*
X140655317Y-69317375D01*
X140681761Y-69303706D01*
X140788297Y-69263767D01*
X140796705Y-69260615D01*
X140913261Y-69173261D01*
X141000615Y-69056705D01*
X141051745Y-68920316D01*
X141058500Y-68858134D01*
X141058500Y-68719500D01*
X141078502Y-68651379D01*
X141132158Y-68604886D01*
X141184500Y-68593500D01*
X143026133Y-68593500D01*
X143037316Y-68594027D01*
X143044809Y-68595702D01*
X143052733Y-68595453D01*
X143052734Y-68595453D01*
X143053667Y-68595424D01*
X143055491Y-68595366D01*
X143057591Y-68595912D01*
X143060628Y-68596199D01*
X143060582Y-68596689D01*
X143124206Y-68613217D01*
X143162662Y-68649031D01*
X143215699Y-68724776D01*
X143365224Y-68874301D01*
X143538442Y-68995589D01*
X143543420Y-68997910D01*
X143543423Y-68997912D01*
X143673949Y-69058777D01*
X143730090Y-69084956D01*
X143735398Y-69086378D01*
X143735400Y-69086379D01*
X143929030Y-69138262D01*
X143929032Y-69138262D01*
X143934345Y-69139686D01*
X144145000Y-69158116D01*
X144355655Y-69139686D01*
X144360968Y-69138262D01*
X144360970Y-69138262D01*
X144554600Y-69086379D01*
X144554602Y-69086378D01*
X144559910Y-69084956D01*
X144616051Y-69058777D01*
X144746577Y-68997912D01*
X144746580Y-68997910D01*
X144751558Y-68995589D01*
X144924776Y-68874301D01*
X145074301Y-68724776D01*
X145195589Y-68551558D01*
X145284956Y-68359910D01*
X145339686Y-68155655D01*
X145358116Y-67945000D01*
X145339686Y-67734345D01*
X145334642Y-67715520D01*
X145286379Y-67535400D01*
X145286378Y-67535398D01*
X145284956Y-67530090D01*
X145270417Y-67498911D01*
X145197912Y-67343423D01*
X145197910Y-67343420D01*
X145195589Y-67338442D01*
X145074301Y-67165224D01*
X144924776Y-67015699D01*
X144751558Y-66894411D01*
X144746580Y-66892090D01*
X144746577Y-66892088D01*
X144564892Y-66807367D01*
X144564891Y-66807366D01*
X144559910Y-66805044D01*
X144554602Y-66803622D01*
X144554600Y-66803621D01*
X144360970Y-66751738D01*
X144360968Y-66751738D01*
X144355655Y-66750314D01*
X144145000Y-66731884D01*
X143934345Y-66750314D01*
X143929032Y-66751738D01*
X143929030Y-66751738D01*
X143735400Y-66803621D01*
X143735398Y-66803622D01*
X143730090Y-66805044D01*
X143725109Y-66807366D01*
X143725108Y-66807367D01*
X143543423Y-66892088D01*
X143543420Y-66892090D01*
X143538442Y-66894411D01*
X143365224Y-67015699D01*
X143215699Y-67165224D01*
X143149540Y-67259709D01*
X143094086Y-67304036D01*
X143050289Y-67313375D01*
X143027930Y-67314078D01*
X143020010Y-67314327D01*
X143000546Y-67319982D01*
X142981206Y-67323986D01*
X142969167Y-67325507D01*
X142953382Y-67326500D01*
X141184500Y-67326500D01*
X141116379Y-67306498D01*
X141069886Y-67252842D01*
X141058500Y-67200500D01*
X141058500Y-67061866D01*
X141051745Y-66999684D01*
X141000615Y-66863295D01*
X140913261Y-66746739D01*
X140796705Y-66659385D01*
X140660316Y-66608255D01*
X140598134Y-66601500D01*
X138801866Y-66601500D01*
X138739684Y-66608255D01*
X138603295Y-66659385D01*
X138486739Y-66746739D01*
X138399385Y-66863295D01*
X138348255Y-66999684D01*
X138341500Y-67061866D01*
X138341500Y-68858134D01*
X138348255Y-68920316D01*
X138399385Y-69056705D01*
X138486739Y-69173261D01*
X138603295Y-69260615D01*
X138611704Y-69263767D01*
X138611705Y-69263768D01*
X138720451Y-69304535D01*
X138777216Y-69347176D01*
X138801916Y-69413738D01*
X138786709Y-69483087D01*
X138767315Y-69509569D01*
X138691715Y-69588679D01*
X138630191Y-69624108D01*
X138559279Y-69620651D01*
X138511527Y-69590722D01*
X126687429Y-57766624D01*
X138071121Y-57766624D01*
X138075488Y-57772774D01*
X138275063Y-57889397D01*
X138284346Y-57893844D01*
X138502507Y-57977152D01*
X138512405Y-57980028D01*
X138741244Y-58026585D01*
X138751472Y-58027804D01*
X138984840Y-58036362D01*
X138995126Y-58035895D01*
X139226762Y-58006222D01*
X139236840Y-58004080D01*
X139460514Y-57936974D01*
X139470112Y-57933212D01*
X139679824Y-57830476D01*
X139688669Y-57825203D01*
X139761369Y-57773347D01*
X139769770Y-57762646D01*
X139762783Y-57749493D01*
X138935312Y-56922022D01*
X138921368Y-56914408D01*
X138919535Y-56914539D01*
X138912920Y-56918790D01*
X138078381Y-57753329D01*
X138071121Y-57766624D01*
X126687429Y-57766624D01*
X125550700Y-56629895D01*
X125516674Y-56567583D01*
X125520163Y-56518799D01*
X137435158Y-56518799D01*
X137448602Y-56751942D01*
X137450035Y-56762144D01*
X137501373Y-56989949D01*
X137504456Y-56999789D01*
X137592314Y-57216156D01*
X137596957Y-57225347D01*
X137698055Y-57390325D01*
X137708511Y-57399785D01*
X137717289Y-57396001D01*
X138550478Y-56562812D01*
X138556856Y-56551132D01*
X139286908Y-56551132D01*
X139287039Y-56552965D01*
X139291290Y-56559580D01*
X140122545Y-57390835D01*
X140134555Y-57397394D01*
X140146294Y-57388426D01*
X140195018Y-57320619D01*
X140200329Y-57311780D01*
X140303791Y-57102442D01*
X140307589Y-57092849D01*
X140375474Y-56869413D01*
X140377651Y-56859343D01*
X140408369Y-56626015D01*
X140408888Y-56619340D01*
X140410501Y-56553364D01*
X140410307Y-56546647D01*
X140391025Y-56312108D01*
X140389342Y-56301946D01*
X140332452Y-56075453D01*
X140329134Y-56065706D01*
X140236013Y-55851542D01*
X140231146Y-55842467D01*
X140145965Y-55710796D01*
X140135279Y-55701593D01*
X140125714Y-55705996D01*
X139294522Y-56537188D01*
X139286908Y-56551132D01*
X138556856Y-56551132D01*
X138558092Y-56548868D01*
X138557961Y-56547035D01*
X138553710Y-56540420D01*
X137722392Y-55709102D01*
X137710856Y-55702802D01*
X137698573Y-55712426D01*
X137631536Y-55810698D01*
X137626443Y-55819662D01*
X137528119Y-56031483D01*
X137524562Y-56041151D01*
X137462157Y-56266178D01*
X137460226Y-56276298D01*
X137435410Y-56508510D01*
X137435158Y-56518799D01*
X125520163Y-56518799D01*
X125521739Y-56496768D01*
X125537472Y-56467274D01*
X125540189Y-56463493D01*
X125618453Y-56354577D01*
X125639443Y-56312108D01*
X125715136Y-56158953D01*
X125715137Y-56158951D01*
X125717430Y-56154311D01*
X125765469Y-55996196D01*
X125780865Y-55945523D01*
X125780865Y-55945521D01*
X125782370Y-55940569D01*
X125811529Y-55719090D01*
X125813156Y-55652500D01*
X125794852Y-55429861D01*
X125740431Y-55213202D01*
X125651354Y-55008340D01*
X125597287Y-54924765D01*
X125532822Y-54825117D01*
X125532820Y-54825114D01*
X125530014Y-54820777D01*
X125379670Y-54655551D01*
X125375619Y-54652352D01*
X125375615Y-54652348D01*
X125208414Y-54520300D01*
X125208410Y-54520298D01*
X125204359Y-54517098D01*
X125163053Y-54494296D01*
X125113084Y-54443864D01*
X125098312Y-54374421D01*
X125123428Y-54308016D01*
X125150780Y-54281409D01*
X125194603Y-54250150D01*
X125329860Y-54153673D01*
X125360925Y-54122717D01*
X125475542Y-54008499D01*
X125488096Y-53995989D01*
X125547594Y-53913189D01*
X125615435Y-53818777D01*
X125618453Y-53814577D01*
X125656776Y-53737037D01*
X125715136Y-53618953D01*
X125715137Y-53618951D01*
X125717430Y-53614311D01*
X125764277Y-53460121D01*
X125780865Y-53405523D01*
X125780865Y-53405521D01*
X125782370Y-53400569D01*
X125811529Y-53179090D01*
X125812335Y-53146091D01*
X125813074Y-53115865D01*
X125813074Y-53115861D01*
X125813156Y-53112500D01*
X125794852Y-52889861D01*
X125740431Y-52673202D01*
X125651354Y-52468340D01*
X125530014Y-52280777D01*
X125379670Y-52115551D01*
X125375619Y-52112352D01*
X125375615Y-52112348D01*
X125208414Y-51980300D01*
X125208410Y-51980298D01*
X125204359Y-51977098D01*
X125008789Y-51869138D01*
X125003920Y-51867414D01*
X125003916Y-51867412D01*
X124803087Y-51796295D01*
X124803083Y-51796294D01*
X124798212Y-51794569D01*
X124793119Y-51793662D01*
X124793116Y-51793661D01*
X124583373Y-51756300D01*
X124583367Y-51756299D01*
X124578284Y-51755394D01*
X124504452Y-51754492D01*
X124360081Y-51752728D01*
X124360079Y-51752728D01*
X124354911Y-51752665D01*
X124134091Y-51786455D01*
X123921756Y-51855857D01*
X123723607Y-51959007D01*
X123719474Y-51962110D01*
X123719471Y-51962112D01*
X123549100Y-52090030D01*
X123544965Y-52093135D01*
X123534737Y-52103838D01*
X123395461Y-52249582D01*
X123390629Y-52254638D01*
X123264743Y-52439180D01*
X123239330Y-52493928D01*
X123177606Y-52626902D01*
X123170688Y-52641805D01*
X123110989Y-52857070D01*
X123087251Y-53079195D01*
X123087548Y-53084348D01*
X123087548Y-53084351D01*
X123093011Y-53179090D01*
X123100110Y-53302215D01*
X123101247Y-53307261D01*
X123101248Y-53307267D01*
X123121119Y-53395439D01*
X123149222Y-53520139D01*
X123233266Y-53727116D01*
X123349987Y-53917588D01*
X123496250Y-54086438D01*
X123668126Y-54229132D01*
X123716109Y-54257171D01*
X123741445Y-54271976D01*
X123790169Y-54323614D01*
X123803240Y-54393397D01*
X123776509Y-54459169D01*
X123736055Y-54492527D01*
X123723607Y-54499007D01*
X123719474Y-54502110D01*
X123719471Y-54502112D01*
X123552202Y-54627701D01*
X123544965Y-54633135D01*
X123390629Y-54794638D01*
X123264743Y-54979180D01*
X123226011Y-55062621D01*
X123189471Y-55141341D01*
X123170688Y-55181805D01*
X123110989Y-55397070D01*
X123087251Y-55619195D01*
X123087548Y-55624348D01*
X123087548Y-55624351D01*
X123096310Y-55776305D01*
X123100110Y-55842215D01*
X123101247Y-55847261D01*
X123101248Y-55847267D01*
X123125201Y-55953552D01*
X123149222Y-56060139D01*
X123151164Y-56064921D01*
X123151165Y-56064925D01*
X123155440Y-56075453D01*
X123206541Y-56201298D01*
X123210235Y-56210396D01*
X123217331Y-56281037D01*
X123185109Y-56344300D01*
X123123800Y-56380101D01*
X123093492Y-56383800D01*
X101864494Y-56383800D01*
X101796373Y-56363798D01*
X101775399Y-56346895D01*
X101241671Y-55813166D01*
X100688752Y-55260247D01*
X100681212Y-55251961D01*
X100677100Y-55245482D01*
X100627448Y-55198856D01*
X100624607Y-55196102D01*
X100604870Y-55176365D01*
X100601673Y-55173885D01*
X100592651Y-55166180D01*
X100566200Y-55141341D01*
X100560421Y-55135914D01*
X100553475Y-55132095D01*
X100553472Y-55132093D01*
X100542666Y-55126152D01*
X100526147Y-55115301D01*
X100523893Y-55113553D01*
X100510141Y-55102886D01*
X100502872Y-55099741D01*
X100502868Y-55099738D01*
X100469563Y-55085326D01*
X100458913Y-55080109D01*
X100420160Y-55058805D01*
X100400537Y-55053767D01*
X100381834Y-55047363D01*
X100370520Y-55042467D01*
X100370519Y-55042467D01*
X100363245Y-55039319D01*
X100355422Y-55038080D01*
X100355412Y-55038077D01*
X100319576Y-55032401D01*
X100307956Y-55029995D01*
X100265131Y-55019000D01*
X100265459Y-55017723D01*
X100207872Y-54992612D01*
X100182942Y-54964422D01*
X100092822Y-54825117D01*
X100092820Y-54825114D01*
X100090014Y-54820777D01*
X100086532Y-54816950D01*
X99942798Y-54658988D01*
X99911746Y-54595142D01*
X99920141Y-54524643D01*
X99965317Y-54469875D01*
X99991761Y-54456206D01*
X100098297Y-54416267D01*
X100106705Y-54413115D01*
X100223261Y-54325761D01*
X100310615Y-54209205D01*
X100361745Y-54072816D01*
X100368500Y-54010634D01*
X100368500Y-52214366D01*
X100361745Y-52152184D01*
X100310615Y-52015795D01*
X100223261Y-51899239D01*
X100106705Y-51811885D01*
X99970316Y-51760755D01*
X99908134Y-51754000D01*
X98111866Y-51754000D01*
X98049684Y-51760755D01*
X97913295Y-51811885D01*
X97796739Y-51899239D01*
X97709385Y-52015795D01*
X97658255Y-52152184D01*
X97651500Y-52214366D01*
X97651500Y-54010634D01*
X97658255Y-54072816D01*
X97709385Y-54209205D01*
X97796739Y-54325761D01*
X97913295Y-54413115D01*
X97921704Y-54416267D01*
X97921705Y-54416268D01*
X98030451Y-54457035D01*
X98087216Y-54499676D01*
X98111916Y-54566238D01*
X98096709Y-54635587D01*
X98077316Y-54662068D01*
X97950629Y-54794638D01*
X97824743Y-54979180D01*
X97786011Y-55062621D01*
X97749471Y-55141341D01*
X97730688Y-55181805D01*
X97670989Y-55397070D01*
X97647251Y-55619195D01*
X97647548Y-55624348D01*
X97647548Y-55624351D01*
X97656310Y-55776305D01*
X97660110Y-55842215D01*
X97661247Y-55847261D01*
X97661248Y-55847267D01*
X97685201Y-55953552D01*
X97709222Y-56060139D01*
X97793266Y-56267116D01*
X97795965Y-56271520D01*
X97901530Y-56443787D01*
X97909987Y-56457588D01*
X98056250Y-56626438D01*
X98117155Y-56677002D01*
X98207421Y-56751942D01*
X98228126Y-56769132D01*
X98271585Y-56794527D01*
X98301445Y-56811976D01*
X98350169Y-56863614D01*
X98363240Y-56933397D01*
X98336509Y-56999169D01*
X98296055Y-57032527D01*
X98283607Y-57039007D01*
X98279474Y-57042110D01*
X98279471Y-57042112D01*
X98117403Y-57163796D01*
X98104965Y-57173135D01*
X97950629Y-57334638D01*
X97947715Y-57338910D01*
X97947714Y-57338911D01*
X97886146Y-57429166D01*
X97824743Y-57519180D01*
X97781209Y-57612967D01*
X97749471Y-57681341D01*
X97730688Y-57721805D01*
X97670989Y-57937070D01*
X97647251Y-58159195D01*
X97647548Y-58164348D01*
X97647548Y-58164351D01*
X97656609Y-58321498D01*
X97660110Y-58382215D01*
X97661247Y-58387261D01*
X97661248Y-58387267D01*
X97665583Y-58406500D01*
X97709222Y-58600139D01*
X97793266Y-58807116D01*
X97795965Y-58811520D01*
X97903969Y-58987767D01*
X97909987Y-58997588D01*
X98056250Y-59166438D01*
X98228126Y-59309132D01*
X98298595Y-59350311D01*
X98301445Y-59351976D01*
X98350169Y-59403614D01*
X98363240Y-59473397D01*
X98336509Y-59539169D01*
X98296055Y-59572527D01*
X98283607Y-59579007D01*
X98279474Y-59582110D01*
X98279471Y-59582112D01*
X98150864Y-59678673D01*
X98104965Y-59713135D01*
X98101393Y-59716873D01*
X97970193Y-59854166D01*
X97950629Y-59874638D01*
X97947715Y-59878910D01*
X97947714Y-59878911D01*
X97895267Y-59955795D01*
X97824743Y-60059180D01*
X97797971Y-60116855D01*
X97735875Y-60250631D01*
X97730688Y-60261805D01*
X97670989Y-60477070D01*
X97647251Y-60699195D01*
X97647548Y-60704348D01*
X97647548Y-60704351D01*
X97653011Y-60799090D01*
X97660110Y-60922215D01*
X97661247Y-60927261D01*
X97661248Y-60927267D01*
X97681119Y-61015439D01*
X97709222Y-61140139D01*
X97747461Y-61234311D01*
X97787167Y-61332095D01*
X97793266Y-61347116D01*
X97827982Y-61403767D01*
X97903110Y-61526365D01*
X97909987Y-61537588D01*
X98056250Y-61706438D01*
X98228126Y-61849132D01*
X98298595Y-61890311D01*
X98301445Y-61891976D01*
X98350169Y-61943614D01*
X98363240Y-62013397D01*
X98336509Y-62079169D01*
X98296055Y-62112527D01*
X98283607Y-62119007D01*
X98279474Y-62122110D01*
X98279471Y-62122112D01*
X98255247Y-62140300D01*
X98104965Y-62253135D01*
X98101393Y-62256873D01*
X97969632Y-62394753D01*
X97950629Y-62414638D01*
X97824743Y-62599180D01*
X97730688Y-62801805D01*
X97670989Y-63017070D01*
X97647251Y-63239195D01*
X97647548Y-63244348D01*
X97647548Y-63244351D01*
X97654549Y-63365772D01*
X97660110Y-63462215D01*
X97661247Y-63467261D01*
X97661248Y-63467267D01*
X97664279Y-63480714D01*
X97709222Y-63680139D01*
X97793266Y-63887116D01*
X97795965Y-63891520D01*
X97898419Y-64058710D01*
X97909987Y-64077588D01*
X98056250Y-64246438D01*
X98228126Y-64389132D01*
X98234636Y-64392936D01*
X98301445Y-64431976D01*
X98350169Y-64483614D01*
X98363240Y-64553397D01*
X98336509Y-64619169D01*
X98296055Y-64652527D01*
X98288919Y-64656242D01*
X98283607Y-64659007D01*
X98279474Y-64662110D01*
X98279471Y-64662112D01*
X98109100Y-64790030D01*
X98104965Y-64793135D01*
X98039346Y-64861801D01*
X97962052Y-64942685D01*
X97950629Y-64954638D01*
X97947715Y-64958910D01*
X97947714Y-64958911D01*
X97926206Y-64990441D01*
X97824743Y-65139180D01*
X97809003Y-65173090D01*
X97740458Y-65320758D01*
X97730688Y-65341805D01*
X97670989Y-65557070D01*
X97647251Y-65779195D01*
X97647548Y-65784348D01*
X97647548Y-65784351D01*
X97653011Y-65879090D01*
X97660110Y-66002215D01*
X97661247Y-66007261D01*
X97661248Y-66007267D01*
X97667391Y-66034525D01*
X97709222Y-66220139D01*
X97793266Y-66427116D01*
X97842285Y-66507108D01*
X97905968Y-66611029D01*
X97909987Y-66617588D01*
X98056250Y-66786438D01*
X98228126Y-66929132D01*
X98240735Y-66936500D01*
X98301445Y-66971976D01*
X98350169Y-67023614D01*
X98363240Y-67093397D01*
X98336509Y-67159169D01*
X98296055Y-67192527D01*
X98283607Y-67199007D01*
X98279474Y-67202110D01*
X98279471Y-67202112D01*
X98113802Y-67326500D01*
X98104965Y-67333135D01*
X98039346Y-67401801D01*
X97971764Y-67472522D01*
X97950629Y-67494638D01*
X97947715Y-67498910D01*
X97947714Y-67498911D01*
X97862556Y-67623749D01*
X97824743Y-67679180D01*
X97786011Y-67762621D01*
X97749471Y-67841341D01*
X97730688Y-67881805D01*
X97670989Y-68097070D01*
X97647251Y-68319195D01*
X97647548Y-68324348D01*
X97647548Y-68324351D01*
X97649886Y-68364892D01*
X97660110Y-68542215D01*
X97661247Y-68547261D01*
X97661248Y-68547267D01*
X97676111Y-68613217D01*
X97709222Y-68760139D01*
X97769014Y-68907390D01*
X97786662Y-68950851D01*
X97793266Y-68967116D01*
X97841307Y-69045512D01*
X97899017Y-69139686D01*
X97909987Y-69157588D01*
X98056250Y-69326438D01*
X98228126Y-69469132D01*
X98286172Y-69503051D01*
X98301445Y-69511976D01*
X98350169Y-69563614D01*
X98363240Y-69633397D01*
X98336509Y-69699169D01*
X98296055Y-69732527D01*
X98283607Y-69739007D01*
X98279474Y-69742110D01*
X98279471Y-69742112D01*
X98121673Y-69860590D01*
X98104965Y-69873135D01*
X97950629Y-70034638D01*
X97824743Y-70219180D01*
X97796590Y-70279830D01*
X97742183Y-70397042D01*
X97730688Y-70421805D01*
X97670989Y-70637070D01*
X97647251Y-70859195D01*
X97647548Y-70864348D01*
X97647548Y-70864351D01*
X97659812Y-71077047D01*
X97660110Y-71082215D01*
X97661247Y-71087261D01*
X97661248Y-71087267D01*
X97671875Y-71134420D01*
X97709222Y-71300139D01*
X97793266Y-71507116D01*
X97795965Y-71511520D01*
X97886815Y-71659774D01*
X97909987Y-71697588D01*
X98056250Y-71866438D01*
X98228126Y-72009132D01*
X98290202Y-72045406D01*
X98301445Y-72051976D01*
X98350169Y-72103614D01*
X98363240Y-72173397D01*
X98336509Y-72239169D01*
X98296055Y-72272527D01*
X98283607Y-72279007D01*
X98279474Y-72282110D01*
X98279471Y-72282112D01*
X98121375Y-72400814D01*
X98104965Y-72413135D01*
X97950629Y-72574638D01*
X97947715Y-72578910D01*
X97947714Y-72578911D01*
X97926445Y-72610090D01*
X97824743Y-72759180D01*
X97796593Y-72819825D01*
X97753807Y-72912000D01*
X97730688Y-72961805D01*
X97670989Y-73177070D01*
X97647251Y-73399195D01*
X97647548Y-73404348D01*
X97647548Y-73404351D01*
X97657713Y-73580644D01*
X97660110Y-73622215D01*
X97661247Y-73627261D01*
X97661248Y-73627267D01*
X97664904Y-73643489D01*
X97709222Y-73840139D01*
X97793266Y-74047116D01*
X97795965Y-74051520D01*
X97899017Y-74219686D01*
X97909987Y-74237588D01*
X98056250Y-74406438D01*
X98228126Y-74549132D01*
X98298595Y-74590311D01*
X98301445Y-74591976D01*
X98350169Y-74643614D01*
X98363240Y-74713397D01*
X98336509Y-74779169D01*
X98296055Y-74812527D01*
X98283607Y-74819007D01*
X98279474Y-74822110D01*
X98279471Y-74822112D01*
X98255247Y-74840300D01*
X98104965Y-74953135D01*
X97950629Y-75114638D01*
X97824743Y-75299180D01*
X97730688Y-75501805D01*
X97670989Y-75717070D01*
X97647251Y-75939195D01*
X97647548Y-75944348D01*
X97647548Y-75944351D01*
X97656639Y-76102014D01*
X97660110Y-76162215D01*
X97661247Y-76167261D01*
X97661248Y-76167267D01*
X97674563Y-76226347D01*
X97709222Y-76380139D01*
X97793266Y-76587116D01*
X97909987Y-76777588D01*
X98056250Y-76946438D01*
X98228126Y-77089132D01*
X98298595Y-77130311D01*
X98301445Y-77131976D01*
X98350169Y-77183614D01*
X98363240Y-77253397D01*
X98336509Y-77319169D01*
X98296055Y-77352527D01*
X98283607Y-77359007D01*
X98279474Y-77362110D01*
X98279471Y-77362112D01*
X98109100Y-77490030D01*
X98104965Y-77493135D01*
X98050519Y-77550109D01*
X97959231Y-77645637D01*
X97950629Y-77654638D01*
X97947715Y-77658910D01*
X97947714Y-77658911D01*
X97932798Y-77680777D01*
X97824743Y-77839180D01*
X97796593Y-77899825D01*
X97748701Y-78003000D01*
X97730688Y-78041805D01*
X97670989Y-78257070D01*
X97647251Y-78479195D01*
X97647548Y-78484348D01*
X97647548Y-78484351D01*
X97653011Y-78579090D01*
X97660110Y-78702215D01*
X97661247Y-78707261D01*
X97661248Y-78707267D01*
X97681119Y-78795439D01*
X97709222Y-78920139D01*
X97793266Y-79127116D01*
X97808781Y-79152434D01*
X97899017Y-79299686D01*
X97909987Y-79317588D01*
X98056250Y-79486438D01*
X98228126Y-79629132D01*
X98298595Y-79670311D01*
X98301445Y-79671976D01*
X98350169Y-79723614D01*
X98363240Y-79793397D01*
X98336509Y-79859169D01*
X98296055Y-79892527D01*
X98283607Y-79899007D01*
X98279474Y-79902110D01*
X98279471Y-79902112D01*
X98255247Y-79920300D01*
X98104965Y-80033135D01*
X97950629Y-80194638D01*
X97947715Y-80198910D01*
X97947714Y-80198911D01*
X97913653Y-80248843D01*
X97824743Y-80379180D01*
X97788854Y-80456497D01*
X97742998Y-80555286D01*
X97730688Y-80581805D01*
X97670989Y-80797070D01*
X97647251Y-81019195D01*
X97647548Y-81024348D01*
X97647548Y-81024351D01*
X97653011Y-81119090D01*
X97660110Y-81242215D01*
X97661247Y-81247261D01*
X97661248Y-81247267D01*
X97667391Y-81274525D01*
X97709222Y-81460139D01*
X97793266Y-81667116D01*
X97909987Y-81857588D01*
X98056250Y-82026438D01*
X98228126Y-82169132D01*
X98240735Y-82176500D01*
X98301445Y-82211976D01*
X98350169Y-82263614D01*
X98363240Y-82333397D01*
X98336509Y-82399169D01*
X98296055Y-82432527D01*
X98283607Y-82439007D01*
X98279474Y-82442110D01*
X98279471Y-82442112D01*
X98109100Y-82570030D01*
X98104965Y-82573135D01*
X97950629Y-82734638D01*
X97824743Y-82919180D01*
X97796593Y-82979825D01*
X97748726Y-83082946D01*
X97730688Y-83121805D01*
X97670989Y-83337070D01*
X97647251Y-83559195D01*
X97647548Y-83564348D01*
X97647548Y-83564351D01*
X97653011Y-83659090D01*
X97660110Y-83782215D01*
X97661247Y-83787261D01*
X97661248Y-83787267D01*
X97667391Y-83814525D01*
X97709222Y-84000139D01*
X97755578Y-84114301D01*
X97787284Y-84192383D01*
X97793266Y-84207116D01*
X97809712Y-84233953D01*
X97899017Y-84379686D01*
X97909987Y-84397588D01*
X98056250Y-84566438D01*
X98184835Y-84673191D01*
X98218859Y-84701438D01*
X98228126Y-84709132D01*
X98234975Y-84713134D01*
X98301955Y-84752274D01*
X98350679Y-84803912D01*
X98363750Y-84873695D01*
X98337019Y-84939467D01*
X98296562Y-84972827D01*
X98288457Y-84977046D01*
X98279738Y-84982536D01*
X98109433Y-85110405D01*
X98101726Y-85117248D01*
X97954590Y-85271217D01*
X97948104Y-85279227D01*
X97828098Y-85455149D01*
X97823000Y-85464123D01*
X97733338Y-85657283D01*
X97729775Y-85666970D01*
X97674389Y-85866683D01*
X97675912Y-85875107D01*
X97688292Y-85878500D01*
X100328344Y-85878500D01*
X100341875Y-85874527D01*
X100343180Y-85865447D01*
X100301214Y-85698375D01*
X100297894Y-85688624D01*
X100212972Y-85493314D01*
X100208105Y-85484239D01*
X100092426Y-85305426D01*
X100086136Y-85297257D01*
X99942806Y-85139740D01*
X99935273Y-85132715D01*
X99768139Y-85000722D01*
X99759556Y-84995020D01*
X99722602Y-84974620D01*
X99672631Y-84924187D01*
X99657859Y-84854745D01*
X99682975Y-84788339D01*
X99710327Y-84761732D01*
X99736172Y-84743297D01*
X99889860Y-84633673D01*
X99912624Y-84610989D01*
X100039819Y-84484237D01*
X100048096Y-84475989D01*
X100051134Y-84471762D01*
X100175435Y-84298777D01*
X100178453Y-84294577D01*
X100190742Y-84269713D01*
X100275136Y-84098953D01*
X100275137Y-84098951D01*
X100277430Y-84094311D01*
X100309900Y-83987440D01*
X100340865Y-83885523D01*
X100340865Y-83885521D01*
X100342370Y-83880569D01*
X100371529Y-83659090D01*
X100372975Y-83599910D01*
X100373074Y-83595865D01*
X100373074Y-83595861D01*
X100373156Y-83592500D01*
X100354852Y-83369861D01*
X100300431Y-83153202D01*
X100211354Y-82948340D01*
X100171906Y-82887362D01*
X100092822Y-82765117D01*
X100092820Y-82765114D01*
X100090014Y-82760777D01*
X99939670Y-82595551D01*
X99935619Y-82592352D01*
X99935615Y-82592348D01*
X99768414Y-82460300D01*
X99768410Y-82460298D01*
X99764359Y-82457098D01*
X99723053Y-82434296D01*
X99673084Y-82383864D01*
X99658312Y-82314421D01*
X99683428Y-82248016D01*
X99710780Y-82221409D01*
X99776380Y-82174617D01*
X99889860Y-82093673D01*
X100048096Y-81935989D01*
X100051134Y-81931762D01*
X100175435Y-81758777D01*
X100178453Y-81754577D01*
X100184244Y-81742861D01*
X100275136Y-81558953D01*
X100275137Y-81558951D01*
X100277430Y-81554311D01*
X100342370Y-81340569D01*
X100371529Y-81119090D01*
X100371611Y-81115740D01*
X100373074Y-81055865D01*
X100373074Y-81055861D01*
X100373156Y-81052500D01*
X100354852Y-80829861D01*
X100300431Y-80613202D01*
X100211354Y-80408340D01*
X100136616Y-80292813D01*
X100092822Y-80225117D01*
X100092820Y-80225114D01*
X100090014Y-80220777D01*
X99939670Y-80055551D01*
X99935619Y-80052352D01*
X99935615Y-80052348D01*
X99768414Y-79920300D01*
X99768410Y-79920298D01*
X99764359Y-79917098D01*
X99723053Y-79894296D01*
X99673084Y-79843864D01*
X99658312Y-79774421D01*
X99683428Y-79708016D01*
X99710780Y-79681409D01*
X99754603Y-79650150D01*
X99889860Y-79553673D01*
X100048096Y-79395989D01*
X100107594Y-79313189D01*
X100175435Y-79218777D01*
X100178453Y-79214577D01*
X100206459Y-79157912D01*
X100275136Y-79018953D01*
X100275137Y-79018951D01*
X100277430Y-79014311D01*
X100309900Y-78907440D01*
X100340865Y-78805523D01*
X100340865Y-78805521D01*
X100342370Y-78800569D01*
X100371529Y-78579090D01*
X100373156Y-78512500D01*
X100354852Y-78289861D01*
X100300431Y-78073202D01*
X100211354Y-77868340D01*
X100090014Y-77680777D01*
X99939670Y-77515551D01*
X99935619Y-77512352D01*
X99935615Y-77512348D01*
X99768414Y-77380300D01*
X99768410Y-77380298D01*
X99764359Y-77377098D01*
X99723053Y-77354296D01*
X99673084Y-77303864D01*
X99658312Y-77234421D01*
X99683428Y-77168016D01*
X99710780Y-77141409D01*
X99754603Y-77110150D01*
X99889860Y-77013673D01*
X100048096Y-76855989D01*
X100107594Y-76773189D01*
X100175435Y-76678777D01*
X100178453Y-76674577D01*
X100277430Y-76474311D01*
X100342370Y-76260569D01*
X100371529Y-76039090D01*
X100371611Y-76035740D01*
X100373074Y-75975865D01*
X100373074Y-75975861D01*
X100373156Y-75972500D01*
X100354852Y-75749861D01*
X100300431Y-75533202D01*
X100211354Y-75328340D01*
X100090014Y-75140777D01*
X99939670Y-74975551D01*
X99935619Y-74972352D01*
X99935615Y-74972348D01*
X99768414Y-74840300D01*
X99768410Y-74840298D01*
X99764359Y-74837098D01*
X99723053Y-74814296D01*
X99673084Y-74763864D01*
X99658312Y-74694421D01*
X99683428Y-74628016D01*
X99710780Y-74601409D01*
X99754603Y-74570150D01*
X99889860Y-74473673D01*
X100048096Y-74315989D01*
X100061048Y-74297965D01*
X100175435Y-74138777D01*
X100178453Y-74134577D01*
X100203553Y-74083792D01*
X100275136Y-73938953D01*
X100275137Y-73938951D01*
X100277430Y-73934311D01*
X100309900Y-73827440D01*
X100340865Y-73725523D01*
X100340865Y-73725521D01*
X100342370Y-73720569D01*
X100371529Y-73499090D01*
X100372601Y-73455211D01*
X100373074Y-73435865D01*
X100373074Y-73435861D01*
X100373156Y-73432500D01*
X100354852Y-73209861D01*
X100300431Y-72993202D01*
X100211354Y-72788340D01*
X100090014Y-72600777D01*
X99939670Y-72435551D01*
X99935619Y-72432352D01*
X99935615Y-72432348D01*
X99768414Y-72300300D01*
X99768410Y-72300298D01*
X99764359Y-72297098D01*
X99723053Y-72274296D01*
X99673084Y-72223864D01*
X99658312Y-72154421D01*
X99683428Y-72088016D01*
X99710780Y-72061409D01*
X99771770Y-72017905D01*
X99889860Y-71933673D01*
X99928404Y-71895264D01*
X100044435Y-71779637D01*
X100048096Y-71775989D01*
X100080379Y-71731063D01*
X100175435Y-71598777D01*
X100178453Y-71594577D01*
X100210567Y-71529600D01*
X100275136Y-71398953D01*
X100275137Y-71398951D01*
X100277430Y-71394311D01*
X100342370Y-71180569D01*
X100371529Y-70959090D01*
X100373156Y-70892500D01*
X100354852Y-70669861D01*
X100300431Y-70453202D01*
X100211354Y-70248340D01*
X100122537Y-70111050D01*
X100092822Y-70065117D01*
X100092820Y-70065114D01*
X100090014Y-70060777D01*
X99939670Y-69895551D01*
X99935619Y-69892352D01*
X99935615Y-69892348D01*
X99768414Y-69760300D01*
X99768410Y-69760298D01*
X99764359Y-69757098D01*
X99723053Y-69734296D01*
X99673084Y-69683864D01*
X99658312Y-69614421D01*
X99683428Y-69548016D01*
X99710780Y-69521409D01*
X99767943Y-69480635D01*
X99889860Y-69393673D01*
X99911466Y-69372143D01*
X100023384Y-69260615D01*
X100048096Y-69235989D01*
X100107594Y-69153189D01*
X100175435Y-69058777D01*
X100178453Y-69054577D01*
X100180746Y-69049938D01*
X100183405Y-69045512D01*
X100185097Y-69046528D01*
X100227446Y-69000557D01*
X100272600Y-68984129D01*
X100277063Y-68983422D01*
X100284989Y-68983173D01*
X100304443Y-68977521D01*
X100323800Y-68973513D01*
X100336030Y-68971968D01*
X100336031Y-68971968D01*
X100343897Y-68970974D01*
X100351268Y-68968055D01*
X100351270Y-68968055D01*
X100385012Y-68954696D01*
X100396242Y-68950851D01*
X100431083Y-68940729D01*
X100431084Y-68940729D01*
X100438693Y-68938518D01*
X100445512Y-68934485D01*
X100445517Y-68934483D01*
X100456128Y-68928207D01*
X100473876Y-68919512D01*
X100492717Y-68912052D01*
X100528487Y-68886064D01*
X100538407Y-68879548D01*
X100569635Y-68861080D01*
X100569638Y-68861078D01*
X100576462Y-68857042D01*
X100590783Y-68842721D01*
X100605817Y-68829880D01*
X100615794Y-68822631D01*
X100622207Y-68817972D01*
X100650398Y-68783895D01*
X100658388Y-68775116D01*
X104149500Y-65284005D01*
X104211812Y-65249979D01*
X104238595Y-65247100D01*
X123031254Y-65247100D01*
X123099375Y-65267102D01*
X123145868Y-65320758D01*
X123155972Y-65391032D01*
X123152672Y-65406766D01*
X123110989Y-65557070D01*
X123087251Y-65779195D01*
X123087548Y-65784348D01*
X123087548Y-65784351D01*
X123093011Y-65879090D01*
X123100110Y-66002215D01*
X123101247Y-66007261D01*
X123101248Y-66007267D01*
X123107391Y-66034525D01*
X123149222Y-66220139D01*
X123233266Y-66427116D01*
X123282285Y-66507108D01*
X123345968Y-66611029D01*
X123349987Y-66617588D01*
X123496250Y-66786438D01*
X123668126Y-66929132D01*
X123680735Y-66936500D01*
X123741445Y-66971976D01*
X123790169Y-67023614D01*
X123803240Y-67093397D01*
X123776509Y-67159169D01*
X123736055Y-67192527D01*
X123723607Y-67199007D01*
X123719474Y-67202110D01*
X123719471Y-67202112D01*
X123553802Y-67326500D01*
X123544965Y-67333135D01*
X123479346Y-67401801D01*
X123411764Y-67472522D01*
X123390629Y-67494638D01*
X123387715Y-67498910D01*
X123387714Y-67498911D01*
X123302556Y-67623749D01*
X123264743Y-67679180D01*
X123226011Y-67762621D01*
X123189471Y-67841341D01*
X123170688Y-67881805D01*
X123110989Y-68097070D01*
X123087251Y-68319195D01*
X123087548Y-68324348D01*
X123087548Y-68324351D01*
X123089886Y-68364892D01*
X123100110Y-68542215D01*
X123101247Y-68547261D01*
X123101248Y-68547267D01*
X123116111Y-68613217D01*
X123149222Y-68760139D01*
X123209014Y-68907390D01*
X123226662Y-68950851D01*
X123233266Y-68967116D01*
X123281307Y-69045512D01*
X123339017Y-69139686D01*
X123349987Y-69157588D01*
X123496250Y-69326438D01*
X123668126Y-69469132D01*
X123726172Y-69503051D01*
X123741445Y-69511976D01*
X123790169Y-69563614D01*
X123803240Y-69633397D01*
X123776509Y-69699169D01*
X123736055Y-69732527D01*
X123723607Y-69739007D01*
X123719474Y-69742110D01*
X123719471Y-69742112D01*
X123561673Y-69860590D01*
X123544965Y-69873135D01*
X123390629Y-70034638D01*
X123264743Y-70219180D01*
X123236590Y-70279830D01*
X123182183Y-70397042D01*
X123170688Y-70421805D01*
X123110989Y-70637070D01*
X123087251Y-70859195D01*
X123087548Y-70864348D01*
X123087548Y-70864351D01*
X123099812Y-71077047D01*
X123100110Y-71082215D01*
X123101247Y-71087261D01*
X123101248Y-71087267D01*
X123111875Y-71134420D01*
X123149222Y-71300139D01*
X123233266Y-71507116D01*
X123235965Y-71511520D01*
X123326815Y-71659774D01*
X123349987Y-71697588D01*
X123496250Y-71866438D01*
X123668126Y-72009132D01*
X123730202Y-72045406D01*
X123741445Y-72051976D01*
X123790169Y-72103614D01*
X123803240Y-72173397D01*
X123776509Y-72239169D01*
X123736055Y-72272527D01*
X123723607Y-72279007D01*
X123719474Y-72282110D01*
X123719471Y-72282112D01*
X123561375Y-72400814D01*
X123544965Y-72413135D01*
X123390629Y-72574638D01*
X123387715Y-72578910D01*
X123387714Y-72578911D01*
X123366445Y-72610090D01*
X123264743Y-72759180D01*
X123236593Y-72819825D01*
X123193807Y-72912000D01*
X123170688Y-72961805D01*
X123110989Y-73177070D01*
X123087251Y-73399195D01*
X123087548Y-73404348D01*
X123087548Y-73404351D01*
X123097713Y-73580644D01*
X123100110Y-73622215D01*
X123101247Y-73627261D01*
X123101248Y-73627267D01*
X123104904Y-73643489D01*
X123149222Y-73840139D01*
X123233266Y-74047116D01*
X123235965Y-74051520D01*
X123339017Y-74219686D01*
X123349987Y-74237588D01*
X123496250Y-74406438D01*
X123668126Y-74549132D01*
X123738595Y-74590311D01*
X123741445Y-74591976D01*
X123790169Y-74643614D01*
X123803240Y-74713397D01*
X123776509Y-74779169D01*
X123736055Y-74812527D01*
X123723607Y-74819007D01*
X123719474Y-74822110D01*
X123719471Y-74822112D01*
X123695247Y-74840300D01*
X123544965Y-74953135D01*
X123390629Y-75114638D01*
X123264743Y-75299180D01*
X123170688Y-75501805D01*
X123110989Y-75717070D01*
X123087251Y-75939195D01*
X123087548Y-75944348D01*
X123087548Y-75944351D01*
X123096639Y-76102014D01*
X123100110Y-76162215D01*
X123101247Y-76167261D01*
X123101248Y-76167267D01*
X123114563Y-76226347D01*
X123149222Y-76380139D01*
X123233266Y-76587116D01*
X123349987Y-76777588D01*
X123496250Y-76946438D01*
X123668126Y-77089132D01*
X123738595Y-77130311D01*
X123741445Y-77131976D01*
X123790169Y-77183614D01*
X123803240Y-77253397D01*
X123776509Y-77319169D01*
X123736055Y-77352527D01*
X123723607Y-77359007D01*
X123719474Y-77362110D01*
X123719471Y-77362112D01*
X123549100Y-77490030D01*
X123544965Y-77493135D01*
X123490519Y-77550109D01*
X123399231Y-77645637D01*
X123390629Y-77654638D01*
X123387715Y-77658910D01*
X123387714Y-77658911D01*
X123372798Y-77680777D01*
X123264743Y-77839180D01*
X123236593Y-77899825D01*
X123188701Y-78003000D01*
X123170688Y-78041805D01*
X123110989Y-78257070D01*
X123087251Y-78479195D01*
X123087548Y-78484348D01*
X123087548Y-78484351D01*
X123093011Y-78579090D01*
X123100110Y-78702215D01*
X123101247Y-78707261D01*
X123101248Y-78707267D01*
X123121119Y-78795439D01*
X123149222Y-78920139D01*
X123233266Y-79127116D01*
X123248781Y-79152434D01*
X123339017Y-79299686D01*
X123349987Y-79317588D01*
X123496250Y-79486438D01*
X123668126Y-79629132D01*
X123738595Y-79670311D01*
X123741445Y-79671976D01*
X123790169Y-79723614D01*
X123803240Y-79793397D01*
X123776509Y-79859169D01*
X123736055Y-79892527D01*
X123723607Y-79899007D01*
X123719474Y-79902110D01*
X123719471Y-79902112D01*
X123695247Y-79920300D01*
X123544965Y-80033135D01*
X123390629Y-80194638D01*
X123387715Y-80198910D01*
X123387714Y-80198911D01*
X123353653Y-80248843D01*
X123264743Y-80379180D01*
X123228854Y-80456497D01*
X123182998Y-80555286D01*
X123170688Y-80581805D01*
X123110989Y-80797070D01*
X123087251Y-81019195D01*
X123087548Y-81024348D01*
X123087548Y-81024351D01*
X123093011Y-81119090D01*
X123100110Y-81242215D01*
X123101247Y-81247261D01*
X123101248Y-81247267D01*
X123107391Y-81274525D01*
X123149222Y-81460139D01*
X123233266Y-81667116D01*
X123349987Y-81857588D01*
X123496250Y-82026438D01*
X123668126Y-82169132D01*
X123680735Y-82176500D01*
X123741445Y-82211976D01*
X123790169Y-82263614D01*
X123803240Y-82333397D01*
X123776509Y-82399169D01*
X123736055Y-82432527D01*
X123723607Y-82439007D01*
X123719474Y-82442110D01*
X123719471Y-82442112D01*
X123549100Y-82570030D01*
X123544965Y-82573135D01*
X123390629Y-82734638D01*
X123264743Y-82919180D01*
X123236593Y-82979825D01*
X123188726Y-83082946D01*
X123170688Y-83121805D01*
X123110989Y-83337070D01*
X123087251Y-83559195D01*
X123087548Y-83564348D01*
X123087548Y-83564351D01*
X123093011Y-83659090D01*
X123100110Y-83782215D01*
X123101247Y-83787261D01*
X123101248Y-83787267D01*
X123107391Y-83814525D01*
X123149222Y-84000139D01*
X123195578Y-84114301D01*
X123227284Y-84192383D01*
X123233266Y-84207116D01*
X123249712Y-84233953D01*
X123339017Y-84379686D01*
X123349987Y-84397588D01*
X123496250Y-84566438D01*
X123624835Y-84673191D01*
X123658859Y-84701438D01*
X123668126Y-84709132D01*
X123674975Y-84713134D01*
X123741955Y-84752274D01*
X123790679Y-84803912D01*
X123803750Y-84873695D01*
X123777019Y-84939467D01*
X123736562Y-84972827D01*
X123728457Y-84977046D01*
X123719738Y-84982536D01*
X123549433Y-85110405D01*
X123541726Y-85117248D01*
X123394590Y-85271217D01*
X123388104Y-85279227D01*
X123268098Y-85455149D01*
X123263000Y-85464123D01*
X123173338Y-85657283D01*
X123169775Y-85666970D01*
X123114389Y-85866683D01*
X123115912Y-85875107D01*
X123128292Y-85878500D01*
X125768344Y-85878500D01*
X125781875Y-85874527D01*
X125783180Y-85865447D01*
X125741214Y-85698375D01*
X125737894Y-85688624D01*
X125652972Y-85493314D01*
X125648105Y-85484239D01*
X125532426Y-85305426D01*
X125526136Y-85297257D01*
X125382806Y-85139740D01*
X125375273Y-85132715D01*
X125208139Y-85000722D01*
X125199556Y-84995020D01*
X125162602Y-84974620D01*
X125112631Y-84924187D01*
X125097859Y-84854745D01*
X125122975Y-84788339D01*
X125150327Y-84761732D01*
X125176172Y-84743297D01*
X125329860Y-84633673D01*
X125352624Y-84610989D01*
X125479819Y-84484237D01*
X125488096Y-84475989D01*
X125491134Y-84471762D01*
X125615435Y-84298777D01*
X125618453Y-84294577D01*
X125630742Y-84269713D01*
X125715136Y-84098953D01*
X125715137Y-84098951D01*
X125717430Y-84094311D01*
X125749900Y-83987440D01*
X125780865Y-83885523D01*
X125780865Y-83885521D01*
X125782370Y-83880569D01*
X125811529Y-83659090D01*
X125812975Y-83599910D01*
X125813074Y-83595865D01*
X125813074Y-83595861D01*
X125813156Y-83592500D01*
X125794852Y-83369861D01*
X125740431Y-83153202D01*
X125651354Y-82948340D01*
X125611906Y-82887362D01*
X125532822Y-82765117D01*
X125532820Y-82765114D01*
X125530014Y-82760777D01*
X125379670Y-82595551D01*
X125375619Y-82592352D01*
X125375615Y-82592348D01*
X125208414Y-82460300D01*
X125208410Y-82460298D01*
X125204359Y-82457098D01*
X125163053Y-82434296D01*
X125113084Y-82383864D01*
X125098312Y-82314421D01*
X125123428Y-82248016D01*
X125150780Y-82221409D01*
X125216380Y-82174617D01*
X125329860Y-82093673D01*
X125488096Y-81935989D01*
X125491134Y-81931762D01*
X125615435Y-81758777D01*
X125618453Y-81754577D01*
X125624244Y-81742861D01*
X125715136Y-81558953D01*
X125715137Y-81558951D01*
X125717430Y-81554311D01*
X125782370Y-81340569D01*
X125811529Y-81119090D01*
X125811611Y-81115740D01*
X125813074Y-81055865D01*
X125813074Y-81055861D01*
X125813156Y-81052500D01*
X125794852Y-80829861D01*
X125740431Y-80613202D01*
X125651354Y-80408340D01*
X125576616Y-80292813D01*
X125532822Y-80225117D01*
X125532820Y-80225114D01*
X125530014Y-80220777D01*
X125379670Y-80055551D01*
X125375619Y-80052352D01*
X125375615Y-80052348D01*
X125208414Y-79920300D01*
X125208410Y-79920298D01*
X125204359Y-79917098D01*
X125163053Y-79894296D01*
X125113084Y-79843864D01*
X125098312Y-79774421D01*
X125123428Y-79708016D01*
X125150780Y-79681409D01*
X125194603Y-79650150D01*
X125329860Y-79553673D01*
X125488096Y-79395989D01*
X125547594Y-79313189D01*
X125615435Y-79218777D01*
X125618453Y-79214577D01*
X125646459Y-79157912D01*
X125715136Y-79018953D01*
X125715137Y-79018951D01*
X125717430Y-79014311D01*
X125749900Y-78907440D01*
X125780865Y-78805523D01*
X125780865Y-78805521D01*
X125782370Y-78800569D01*
X125811529Y-78579090D01*
X125813156Y-78512500D01*
X125794852Y-78289861D01*
X125740431Y-78073202D01*
X125651354Y-77868340D01*
X125530014Y-77680777D01*
X125379670Y-77515551D01*
X125375619Y-77512352D01*
X125375615Y-77512348D01*
X125208414Y-77380300D01*
X125208410Y-77380298D01*
X125204359Y-77377098D01*
X125163053Y-77354296D01*
X125113084Y-77303864D01*
X125098312Y-77234421D01*
X125123428Y-77168016D01*
X125150780Y-77141409D01*
X125194603Y-77110150D01*
X125329860Y-77013673D01*
X125488096Y-76855989D01*
X125547594Y-76773189D01*
X125615435Y-76678777D01*
X125618453Y-76674577D01*
X125717430Y-76474311D01*
X125782370Y-76260569D01*
X125811529Y-76039090D01*
X125811611Y-76035740D01*
X125813074Y-75975865D01*
X125813074Y-75975861D01*
X125813156Y-75972500D01*
X125794852Y-75749861D01*
X125740431Y-75533202D01*
X125651354Y-75328340D01*
X125530014Y-75140777D01*
X125379670Y-74975551D01*
X125375619Y-74972352D01*
X125375615Y-74972348D01*
X125208414Y-74840300D01*
X125208410Y-74840298D01*
X125204359Y-74837098D01*
X125163053Y-74814296D01*
X125113084Y-74763864D01*
X125098312Y-74694421D01*
X125123428Y-74628016D01*
X125150780Y-74601409D01*
X125194603Y-74570150D01*
X125329860Y-74473673D01*
X125488096Y-74315989D01*
X125501048Y-74297965D01*
X125615435Y-74138777D01*
X125618453Y-74134577D01*
X125643553Y-74083792D01*
X125715136Y-73938953D01*
X125715137Y-73938951D01*
X125717430Y-73934311D01*
X125749900Y-73827440D01*
X125780865Y-73725523D01*
X125780865Y-73725521D01*
X125782370Y-73720569D01*
X125811529Y-73499090D01*
X125812601Y-73455211D01*
X125813074Y-73435865D01*
X125813074Y-73435861D01*
X125813156Y-73432500D01*
X125794852Y-73209861D01*
X125740431Y-72993202D01*
X125651354Y-72788340D01*
X125530014Y-72600777D01*
X125379670Y-72435551D01*
X125375619Y-72432352D01*
X125375615Y-72432348D01*
X125208414Y-72300300D01*
X125208410Y-72300298D01*
X125204359Y-72297098D01*
X125163053Y-72274296D01*
X125113084Y-72223864D01*
X125098312Y-72154421D01*
X125123428Y-72088016D01*
X125150780Y-72061409D01*
X125211770Y-72017905D01*
X125329860Y-71933673D01*
X125368404Y-71895264D01*
X125484435Y-71779637D01*
X125488096Y-71775989D01*
X125520379Y-71731063D01*
X125615435Y-71598777D01*
X125618453Y-71594577D01*
X125650567Y-71529600D01*
X125715136Y-71398953D01*
X125715137Y-71398951D01*
X125717430Y-71394311D01*
X125782370Y-71180569D01*
X125811529Y-70959090D01*
X125813156Y-70892500D01*
X125794852Y-70669861D01*
X125740431Y-70453202D01*
X125651354Y-70248340D01*
X125562537Y-70111050D01*
X125532822Y-70065117D01*
X125532820Y-70065114D01*
X125530014Y-70060777D01*
X125379670Y-69895551D01*
X125375619Y-69892352D01*
X125375615Y-69892348D01*
X125208414Y-69760300D01*
X125208410Y-69760298D01*
X125204359Y-69757098D01*
X125163053Y-69734296D01*
X125113084Y-69683864D01*
X125098312Y-69614421D01*
X125123428Y-69548016D01*
X125150780Y-69521409D01*
X125207943Y-69480635D01*
X125329860Y-69393673D01*
X125351466Y-69372143D01*
X125463384Y-69260615D01*
X125488096Y-69235989D01*
X125547594Y-69153189D01*
X125615435Y-69058777D01*
X125618453Y-69054577D01*
X125620746Y-69049937D01*
X125622446Y-69047108D01*
X125674674Y-68999018D01*
X125730451Y-68986000D01*
X129105306Y-68986000D01*
X129173427Y-69006002D01*
X129194401Y-69022905D01*
X138015370Y-77843875D01*
X146831248Y-86659753D01*
X146838788Y-86668039D01*
X146842900Y-86674518D01*
X146848677Y-86679943D01*
X146892551Y-86721143D01*
X146895393Y-86723898D01*
X146915130Y-86743635D01*
X146913759Y-86745006D01*
X146947396Y-86798642D01*
X146946610Y-86869634D01*
X146907567Y-86928932D01*
X146842664Y-86957708D01*
X146826114Y-86958800D01*
X141164494Y-86958800D01*
X141096373Y-86938798D01*
X141075399Y-86921895D01*
X140543978Y-86390473D01*
X139988752Y-85835247D01*
X139981212Y-85826961D01*
X139977100Y-85820482D01*
X139927448Y-85773856D01*
X139924607Y-85771102D01*
X139904870Y-85751365D01*
X139901673Y-85748885D01*
X139892651Y-85741180D01*
X139866200Y-85716341D01*
X139860421Y-85710914D01*
X139853475Y-85707095D01*
X139853472Y-85707093D01*
X139842666Y-85701152D01*
X139826147Y-85690301D01*
X139821405Y-85686623D01*
X139810141Y-85677886D01*
X139802872Y-85674741D01*
X139802868Y-85674738D01*
X139769563Y-85660326D01*
X139758913Y-85655109D01*
X139720160Y-85633805D01*
X139700537Y-85628767D01*
X139681834Y-85622363D01*
X139670520Y-85617467D01*
X139670519Y-85617467D01*
X139663245Y-85614319D01*
X139655422Y-85613080D01*
X139655412Y-85613077D01*
X139619576Y-85607401D01*
X139607956Y-85604995D01*
X139565131Y-85594000D01*
X139565459Y-85592723D01*
X139507872Y-85567612D01*
X139482942Y-85539422D01*
X139392822Y-85400117D01*
X139392820Y-85400114D01*
X139390014Y-85395777D01*
X139386532Y-85391950D01*
X139242798Y-85233988D01*
X139211746Y-85170142D01*
X139220141Y-85099643D01*
X139265317Y-85044875D01*
X139291761Y-85031206D01*
X139398297Y-84991267D01*
X139406705Y-84988115D01*
X139523261Y-84900761D01*
X139610615Y-84784205D01*
X139661745Y-84647816D01*
X139668500Y-84585634D01*
X139668500Y-82789366D01*
X139661745Y-82727184D01*
X139610615Y-82590795D01*
X139523261Y-82474239D01*
X139406705Y-82386885D01*
X139270316Y-82335755D01*
X139208134Y-82329000D01*
X137411866Y-82329000D01*
X137349684Y-82335755D01*
X137213295Y-82386885D01*
X137096739Y-82474239D01*
X137009385Y-82590795D01*
X136958255Y-82727184D01*
X136951500Y-82789366D01*
X136951500Y-84585634D01*
X136958255Y-84647816D01*
X137009385Y-84784205D01*
X137096739Y-84900761D01*
X137213295Y-84988115D01*
X137221704Y-84991267D01*
X137221705Y-84991268D01*
X137330451Y-85032035D01*
X137387216Y-85074676D01*
X137411916Y-85141238D01*
X137396709Y-85210587D01*
X137377316Y-85237068D01*
X137250629Y-85369638D01*
X137247715Y-85373910D01*
X137247714Y-85373911D01*
X137166263Y-85493314D01*
X137124743Y-85554180D01*
X137086011Y-85637621D01*
X137035707Y-85745993D01*
X137030688Y-85756805D01*
X136970989Y-85972070D01*
X136947251Y-86194195D01*
X136947548Y-86199348D01*
X136947548Y-86199351D01*
X136955124Y-86330740D01*
X136960110Y-86417215D01*
X136961247Y-86422261D01*
X136961248Y-86422267D01*
X136985304Y-86529008D01*
X137009222Y-86635139D01*
X137063703Y-86769311D01*
X137088218Y-86829683D01*
X137093266Y-86842116D01*
X137095965Y-86846520D01*
X137203969Y-87022767D01*
X137209987Y-87032588D01*
X137356250Y-87201438D01*
X137528126Y-87344132D01*
X137545987Y-87354569D01*
X137601955Y-87387274D01*
X137650679Y-87438912D01*
X137663750Y-87508695D01*
X137637019Y-87574467D01*
X137596562Y-87607827D01*
X137588457Y-87612046D01*
X137579738Y-87617536D01*
X137409433Y-87745405D01*
X137401726Y-87752248D01*
X137254590Y-87906217D01*
X137248104Y-87914227D01*
X137128098Y-88090149D01*
X137123000Y-88099123D01*
X137033338Y-88292283D01*
X137029775Y-88301970D01*
X136974389Y-88501683D01*
X136975912Y-88510107D01*
X136988292Y-88513500D01*
X139628344Y-88513500D01*
X139641875Y-88509527D01*
X139643180Y-88500447D01*
X139601214Y-88333375D01*
X139597894Y-88323624D01*
X139512972Y-88128314D01*
X139508105Y-88119239D01*
X139392426Y-87940426D01*
X139386136Y-87932257D01*
X139242806Y-87774740D01*
X139235273Y-87767715D01*
X139068139Y-87635722D01*
X139059556Y-87630020D01*
X139022602Y-87609620D01*
X138972631Y-87559187D01*
X138957859Y-87489745D01*
X138982975Y-87423339D01*
X139010327Y-87396732D01*
X139053134Y-87366198D01*
X139189860Y-87268673D01*
X139321406Y-87137586D01*
X139383776Y-87103671D01*
X139454582Y-87108859D01*
X139499439Y-87137743D01*
X140346243Y-87984547D01*
X140353787Y-87992837D01*
X140357900Y-87999318D01*
X140363677Y-88004743D01*
X140407567Y-88045958D01*
X140410409Y-88048713D01*
X140430131Y-88068435D01*
X140433255Y-88070858D01*
X140433259Y-88070862D01*
X140433324Y-88070912D01*
X140442345Y-88078617D01*
X140474579Y-88108886D01*
X140481527Y-88112705D01*
X140481529Y-88112707D01*
X140492332Y-88118646D01*
X140508859Y-88129502D01*
X140518598Y-88137057D01*
X140518600Y-88137058D01*
X140524860Y-88141914D01*
X140565440Y-88159474D01*
X140576088Y-88164691D01*
X140614840Y-88185995D01*
X140622516Y-88187966D01*
X140622519Y-88187967D01*
X140634462Y-88191033D01*
X140653167Y-88197437D01*
X140671755Y-88205481D01*
X140679578Y-88206720D01*
X140679588Y-88206723D01*
X140715424Y-88212399D01*
X140727044Y-88214805D01*
X140762189Y-88223828D01*
X140769870Y-88225800D01*
X140790124Y-88225800D01*
X140809834Y-88227351D01*
X140829843Y-88230520D01*
X140837735Y-88229774D01*
X140873861Y-88226359D01*
X140885719Y-88225800D01*
X147096293Y-88225800D01*
X147164414Y-88245802D01*
X147210907Y-88299458D01*
X147221011Y-88369732D01*
X147217710Y-88385472D01*
X147174389Y-88541683D01*
X147175912Y-88550107D01*
X147188292Y-88553500D01*
X149828344Y-88553500D01*
X149841875Y-88549527D01*
X149843180Y-88540447D01*
X149803505Y-88382496D01*
X149806309Y-88311555D01*
X149847022Y-88253391D01*
X149912717Y-88226472D01*
X149925709Y-88225800D01*
X153462606Y-88225800D01*
X153530727Y-88245802D01*
X153551701Y-88262705D01*
X154581248Y-89292253D01*
X154588788Y-89300539D01*
X154592900Y-89307018D01*
X154598677Y-89312443D01*
X154605286Y-89318649D01*
X154641252Y-89379862D01*
X154638415Y-89450802D01*
X154597675Y-89508946D01*
X154531967Y-89535835D01*
X154519034Y-89536500D01*
X149867410Y-89536500D01*
X149799289Y-89516498D01*
X149752796Y-89462842D01*
X149742692Y-89392568D01*
X149754453Y-89354672D01*
X149774672Y-89313762D01*
X149778469Y-89304172D01*
X149840377Y-89100410D01*
X149842555Y-89090337D01*
X149843986Y-89079462D01*
X149841775Y-89065278D01*
X149828617Y-89061500D01*
X147193225Y-89061500D01*
X147179694Y-89065473D01*
X147178257Y-89075466D01*
X147208565Y-89209946D01*
X147211645Y-89219776D01*
X147269840Y-89363096D01*
X147276936Y-89433738D01*
X147244714Y-89497001D01*
X147183404Y-89532801D01*
X147153097Y-89536500D01*
X143241363Y-89536500D01*
X143230179Y-89535973D01*
X143222691Y-89534299D01*
X143180692Y-89535619D01*
X143154633Y-89536438D01*
X143150675Y-89536500D01*
X143122744Y-89536500D01*
X143118829Y-89536995D01*
X143118825Y-89536995D01*
X143118767Y-89537003D01*
X143118738Y-89537006D01*
X143106896Y-89537939D01*
X143062710Y-89539327D01*
X143045344Y-89544372D01*
X143043258Y-89544978D01*
X143023906Y-89548986D01*
X143011668Y-89550532D01*
X143011666Y-89550533D01*
X143003803Y-89551526D01*
X142962686Y-89567806D01*
X142951485Y-89571641D01*
X142909006Y-89583982D01*
X142902187Y-89588015D01*
X142902182Y-89588017D01*
X142891571Y-89594293D01*
X142873821Y-89602990D01*
X142854983Y-89610448D01*
X142848567Y-89615109D01*
X142848566Y-89615110D01*
X142819225Y-89636428D01*
X142809301Y-89642947D01*
X142778060Y-89661422D01*
X142778055Y-89661426D01*
X142771237Y-89665458D01*
X142756913Y-89679782D01*
X142741881Y-89692621D01*
X142725493Y-89704528D01*
X142698492Y-89737167D01*
X142697312Y-89738593D01*
X142689322Y-89747373D01*
X139498134Y-92938561D01*
X139435822Y-92972587D01*
X139365007Y-92967522D01*
X139315846Y-92934266D01*
X139243152Y-92854376D01*
X139243142Y-92854367D01*
X139239670Y-92850551D01*
X139235619Y-92847352D01*
X139235615Y-92847348D01*
X139068414Y-92715300D01*
X139068410Y-92715298D01*
X139064359Y-92712098D01*
X139023053Y-92689296D01*
X138973084Y-92638864D01*
X138958312Y-92569421D01*
X138983428Y-92503016D01*
X139010780Y-92476409D01*
X139075361Y-92430344D01*
X139189860Y-92348673D01*
X139202576Y-92336002D01*
X139298170Y-92240741D01*
X139348096Y-92190989D01*
X139382110Y-92143654D01*
X139475435Y-92013777D01*
X139478453Y-92009577D01*
X139489601Y-91987022D01*
X139575136Y-91813953D01*
X139575137Y-91813951D01*
X139577430Y-91809311D01*
X139642370Y-91595569D01*
X139671529Y-91374090D01*
X139671611Y-91370740D01*
X139673074Y-91310865D01*
X139673074Y-91310861D01*
X139673156Y-91307500D01*
X139654852Y-91084861D01*
X139600431Y-90868202D01*
X139511354Y-90663340D01*
X139390014Y-90475777D01*
X139239670Y-90310551D01*
X139235619Y-90307352D01*
X139235615Y-90307348D01*
X139068414Y-90175300D01*
X139068410Y-90175298D01*
X139064359Y-90172098D01*
X139022569Y-90149029D01*
X138972598Y-90098597D01*
X138957826Y-90029154D01*
X138982942Y-89962748D01*
X139010294Y-89936141D01*
X139185328Y-89811292D01*
X139193200Y-89804639D01*
X139344052Y-89654312D01*
X139350730Y-89646465D01*
X139475003Y-89473520D01*
X139480313Y-89464683D01*
X139574670Y-89273767D01*
X139578469Y-89264172D01*
X139640377Y-89060410D01*
X139642555Y-89050337D01*
X139643986Y-89039462D01*
X139641775Y-89025278D01*
X139628617Y-89021500D01*
X136993225Y-89021500D01*
X136979694Y-89025473D01*
X136978257Y-89035466D01*
X137008565Y-89169946D01*
X137011645Y-89179775D01*
X137091770Y-89377103D01*
X137096413Y-89386294D01*
X137207694Y-89567888D01*
X137213777Y-89576199D01*
X137353213Y-89737167D01*
X137360580Y-89744383D01*
X137524434Y-89880416D01*
X137532881Y-89886331D01*
X137601969Y-89926703D01*
X137650693Y-89978342D01*
X137663764Y-90048125D01*
X137637033Y-90113896D01*
X137596584Y-90147252D01*
X137583607Y-90154007D01*
X137579474Y-90157110D01*
X137579471Y-90157112D01*
X137424111Y-90273760D01*
X137357626Y-90298666D01*
X137348458Y-90299000D01*
X103665024Y-90299000D01*
X103596903Y-90278998D01*
X103575929Y-90262095D01*
X101953029Y-88639195D01*
X123087251Y-88639195D01*
X123087548Y-88644348D01*
X123087548Y-88644351D01*
X123093011Y-88739090D01*
X123100110Y-88862215D01*
X123101247Y-88867261D01*
X123101248Y-88867267D01*
X123107391Y-88894525D01*
X123149222Y-89080139D01*
X123195578Y-89194301D01*
X123227846Y-89273767D01*
X123233266Y-89287116D01*
X123279826Y-89363096D01*
X123347210Y-89473056D01*
X123349987Y-89477588D01*
X123353367Y-89481490D01*
X123481333Y-89629217D01*
X123496250Y-89646438D01*
X123668126Y-89789132D01*
X123861000Y-89901838D01*
X123865825Y-89903680D01*
X123865826Y-89903681D01*
X123880690Y-89909357D01*
X124069692Y-89981530D01*
X124074760Y-89982561D01*
X124074763Y-89982562D01*
X124182017Y-90004383D01*
X124288597Y-90026067D01*
X124293772Y-90026257D01*
X124293774Y-90026257D01*
X124506673Y-90034064D01*
X124506677Y-90034064D01*
X124511837Y-90034253D01*
X124516957Y-90033597D01*
X124516959Y-90033597D01*
X124728288Y-90006525D01*
X124728289Y-90006525D01*
X124733416Y-90005868D01*
X124787743Y-89989569D01*
X124942429Y-89943161D01*
X124942434Y-89943159D01*
X124947384Y-89941674D01*
X125147994Y-89843396D01*
X125329860Y-89713673D01*
X125342576Y-89701002D01*
X125433446Y-89610448D01*
X125488096Y-89555989D01*
X125491134Y-89551762D01*
X125615435Y-89378777D01*
X125618453Y-89374577D01*
X125624128Y-89363096D01*
X125715136Y-89178953D01*
X125715137Y-89178951D01*
X125717430Y-89174311D01*
X125755096Y-89050337D01*
X125780865Y-88965523D01*
X125780865Y-88965521D01*
X125782370Y-88960569D01*
X125811529Y-88739090D01*
X125812975Y-88679910D01*
X125813074Y-88675865D01*
X125813074Y-88675861D01*
X125813156Y-88672500D01*
X125794852Y-88449861D01*
X125740431Y-88233202D01*
X125651354Y-88028340D01*
X125566839Y-87897699D01*
X125532822Y-87845117D01*
X125532820Y-87845114D01*
X125530014Y-87840777D01*
X125379670Y-87675551D01*
X125375619Y-87672352D01*
X125375615Y-87672348D01*
X125208414Y-87540300D01*
X125208410Y-87540298D01*
X125204359Y-87537098D01*
X125162569Y-87514029D01*
X125112598Y-87463597D01*
X125097826Y-87394154D01*
X125122942Y-87327748D01*
X125150294Y-87301141D01*
X125325328Y-87176292D01*
X125333200Y-87169639D01*
X125484052Y-87019312D01*
X125490730Y-87011465D01*
X125615003Y-86838520D01*
X125620313Y-86829683D01*
X125714670Y-86638767D01*
X125718469Y-86629172D01*
X125780377Y-86425410D01*
X125782555Y-86415337D01*
X125783986Y-86404462D01*
X125781775Y-86390278D01*
X125768617Y-86386500D01*
X123133225Y-86386500D01*
X123119694Y-86390473D01*
X123118257Y-86400466D01*
X123148565Y-86534946D01*
X123151645Y-86544775D01*
X123231770Y-86742103D01*
X123236413Y-86751294D01*
X123347694Y-86932888D01*
X123353777Y-86941199D01*
X123493213Y-87102167D01*
X123500580Y-87109383D01*
X123664434Y-87245416D01*
X123672881Y-87251331D01*
X123741969Y-87291703D01*
X123790693Y-87343342D01*
X123803764Y-87413125D01*
X123777033Y-87478896D01*
X123736584Y-87512252D01*
X123723607Y-87519007D01*
X123719474Y-87522110D01*
X123719471Y-87522112D01*
X123566612Y-87636882D01*
X123544965Y-87653135D01*
X123390629Y-87814638D01*
X123387715Y-87818910D01*
X123387714Y-87818911D01*
X123333969Y-87897699D01*
X123264743Y-87999180D01*
X123231446Y-88070912D01*
X123174544Y-88193499D01*
X123170688Y-88201805D01*
X123110989Y-88417070D01*
X123087251Y-88639195D01*
X101953029Y-88639195D01*
X101316955Y-88003121D01*
X101307853Y-87992978D01*
X101287997Y-87968282D01*
X101284132Y-87963475D01*
X101245678Y-87931208D01*
X101242031Y-87928028D01*
X101240219Y-87926385D01*
X101238025Y-87924191D01*
X101204751Y-87896858D01*
X101203953Y-87896196D01*
X101132626Y-87836346D01*
X101127956Y-87833778D01*
X101123839Y-87830397D01*
X101042014Y-87786523D01*
X101040855Y-87785894D01*
X100964719Y-87744038D01*
X100964711Y-87744035D01*
X100959313Y-87741067D01*
X100954231Y-87739455D01*
X100949537Y-87736938D01*
X100860569Y-87709738D01*
X100859541Y-87709418D01*
X100770794Y-87681265D01*
X100765498Y-87680671D01*
X100760402Y-87679113D01*
X100667843Y-87669710D01*
X100666707Y-87669589D01*
X100632173Y-87665716D01*
X100620370Y-87664392D01*
X100620366Y-87664392D01*
X100616873Y-87664000D01*
X100613346Y-87664000D01*
X100612361Y-87663945D01*
X100606681Y-87663498D01*
X100577275Y-87660511D01*
X100569763Y-87659748D01*
X100569761Y-87659748D01*
X100563638Y-87659126D01*
X100521359Y-87663123D01*
X100517991Y-87663441D01*
X100506133Y-87664000D01*
X99968799Y-87664000D01*
X99900678Y-87643998D01*
X99890707Y-87636882D01*
X99768414Y-87540300D01*
X99768410Y-87540298D01*
X99764359Y-87537098D01*
X99722569Y-87514029D01*
X99672598Y-87463597D01*
X99657826Y-87394154D01*
X99682942Y-87327748D01*
X99710294Y-87301141D01*
X99885328Y-87176292D01*
X99893200Y-87169639D01*
X100044052Y-87019312D01*
X100050730Y-87011465D01*
X100175003Y-86838520D01*
X100180313Y-86829683D01*
X100274670Y-86638767D01*
X100278469Y-86629172D01*
X100340377Y-86425410D01*
X100342555Y-86415337D01*
X100343986Y-86404462D01*
X100341775Y-86390278D01*
X100328617Y-86386500D01*
X97693225Y-86386500D01*
X97679694Y-86390473D01*
X97678257Y-86400466D01*
X97708565Y-86534946D01*
X97711645Y-86544775D01*
X97791770Y-86742103D01*
X97796413Y-86751294D01*
X97907694Y-86932888D01*
X97913777Y-86941199D01*
X98053213Y-87102167D01*
X98060580Y-87109383D01*
X98224434Y-87245416D01*
X98232881Y-87251331D01*
X98301969Y-87291703D01*
X98350693Y-87343342D01*
X98363764Y-87413125D01*
X98337033Y-87478896D01*
X98296584Y-87512252D01*
X98283607Y-87519007D01*
X98279474Y-87522110D01*
X98279471Y-87522112D01*
X98126612Y-87636882D01*
X98104965Y-87653135D01*
X97950629Y-87814638D01*
X97947715Y-87818910D01*
X97947714Y-87818911D01*
X97893969Y-87897699D01*
X97824743Y-87999180D01*
X97791446Y-88070912D01*
X97734544Y-88193499D01*
X97730688Y-88201805D01*
X97670989Y-88417070D01*
X97647251Y-88639195D01*
X91508500Y-88639195D01*
X91508500Y-48960321D01*
X134711320Y-48960321D01*
X134711433Y-48965098D01*
X134715677Y-49145187D01*
X134717444Y-49220187D01*
X134762806Y-49476137D01*
X134846360Y-49722281D01*
X134966185Y-49952954D01*
X134969000Y-49956808D01*
X134969003Y-49956812D01*
X135073780Y-50100233D01*
X135119523Y-50162847D01*
X135211184Y-50254989D01*
X135299471Y-50343741D01*
X135299476Y-50343745D01*
X135302845Y-50347132D01*
X135306697Y-50349977D01*
X135306698Y-50349978D01*
X135406539Y-50423721D01*
X135511934Y-50501567D01*
X135516172Y-50503797D01*
X135516174Y-50503798D01*
X135602395Y-50549161D01*
X135741976Y-50622598D01*
X135746495Y-50624159D01*
X135746501Y-50624161D01*
X135923034Y-50685118D01*
X135987679Y-50707440D01*
X136243388Y-50754141D01*
X136326561Y-50758500D01*
X136488599Y-50758500D01*
X136490978Y-50758319D01*
X136490979Y-50758319D01*
X136676923Y-50744175D01*
X136676928Y-50744174D01*
X136681690Y-50743812D01*
X136686344Y-50742733D01*
X136686346Y-50742733D01*
X136930260Y-50686197D01*
X136934915Y-50685118D01*
X137176348Y-50588795D01*
X137400434Y-50457062D01*
X137602015Y-50292949D01*
X137776453Y-50100233D01*
X137919733Y-49883349D01*
X137922221Y-49877954D01*
X138026553Y-49651640D01*
X138026554Y-49651637D01*
X138028559Y-49647288D01*
X138100426Y-49397482D01*
X138133680Y-49139679D01*
X138129454Y-48960321D01*
X149711320Y-48960321D01*
X149711433Y-48965098D01*
X149715677Y-49145187D01*
X149717444Y-49220187D01*
X149762806Y-49476137D01*
X149846360Y-49722281D01*
X149966185Y-49952954D01*
X149969000Y-49956808D01*
X149969003Y-49956812D01*
X150073780Y-50100233D01*
X150119523Y-50162847D01*
X150211184Y-50254989D01*
X150299471Y-50343741D01*
X150299476Y-50343745D01*
X150302845Y-50347132D01*
X150306697Y-50349977D01*
X150306698Y-50349978D01*
X150406539Y-50423721D01*
X150511934Y-50501567D01*
X150516172Y-50503797D01*
X150516174Y-50503798D01*
X150602395Y-50549161D01*
X150741976Y-50622598D01*
X150746495Y-50624159D01*
X150746501Y-50624161D01*
X150923034Y-50685118D01*
X150987679Y-50707440D01*
X151243388Y-50754141D01*
X151326561Y-50758500D01*
X151488599Y-50758500D01*
X151490978Y-50758319D01*
X151490979Y-50758319D01*
X151676923Y-50744175D01*
X151676928Y-50744174D01*
X151681690Y-50743812D01*
X151686344Y-50742733D01*
X151686346Y-50742733D01*
X151930260Y-50686197D01*
X151934915Y-50685118D01*
X152176348Y-50588795D01*
X152400434Y-50457062D01*
X152602015Y-50292949D01*
X152776453Y-50100233D01*
X152919733Y-49883349D01*
X152922221Y-49877954D01*
X153026553Y-49651640D01*
X153026554Y-49651637D01*
X153028559Y-49647288D01*
X153100426Y-49397482D01*
X153133680Y-49139679D01*
X153129342Y-48955584D01*
X153127686Y-48885321D01*
X162238820Y-48885321D01*
X162240700Y-48965098D01*
X162244702Y-49134902D01*
X162244944Y-49145187D01*
X162290306Y-49401137D01*
X162373860Y-49647281D01*
X162493685Y-49877954D01*
X162496500Y-49881808D01*
X162496503Y-49881812D01*
X162601280Y-50025233D01*
X162647023Y-50087847D01*
X162662879Y-50103786D01*
X162826971Y-50268741D01*
X162826976Y-50268745D01*
X162830345Y-50272132D01*
X162834197Y-50274977D01*
X162834198Y-50274978D01*
X162927296Y-50343741D01*
X163039434Y-50426567D01*
X163043672Y-50428797D01*
X163043674Y-50428798D01*
X163097395Y-50457062D01*
X163269476Y-50547598D01*
X163273995Y-50549159D01*
X163274001Y-50549161D01*
X163491203Y-50624161D01*
X163515179Y-50632440D01*
X163770888Y-50679141D01*
X163854061Y-50683500D01*
X164016099Y-50683500D01*
X164018478Y-50683319D01*
X164018479Y-50683319D01*
X164204423Y-50669175D01*
X164204428Y-50669174D01*
X164209190Y-50668812D01*
X164213844Y-50667733D01*
X164213846Y-50667733D01*
X164457760Y-50611197D01*
X164462415Y-50610118D01*
X164703848Y-50513795D01*
X164927934Y-50382062D01*
X165129515Y-50217949D01*
X165303953Y-50025233D01*
X165447233Y-49808349D01*
X165488999Y-49717753D01*
X165554053Y-49576640D01*
X165554054Y-49576637D01*
X165556059Y-49572288D01*
X165627926Y-49322482D01*
X165661180Y-49064679D01*
X165656954Y-48885321D01*
X177238820Y-48885321D01*
X177240700Y-48965098D01*
X177244702Y-49134902D01*
X177244944Y-49145187D01*
X177290306Y-49401137D01*
X177373860Y-49647281D01*
X177493685Y-49877954D01*
X177496500Y-49881808D01*
X177496503Y-49881812D01*
X177601280Y-50025233D01*
X177647023Y-50087847D01*
X177662879Y-50103786D01*
X177826971Y-50268741D01*
X177826976Y-50268745D01*
X177830345Y-50272132D01*
X177834197Y-50274977D01*
X177834198Y-50274978D01*
X177927296Y-50343741D01*
X178039434Y-50426567D01*
X178043672Y-50428797D01*
X178043674Y-50428798D01*
X178097395Y-50457062D01*
X178269476Y-50547598D01*
X178273995Y-50549159D01*
X178274001Y-50549161D01*
X178491203Y-50624161D01*
X178515179Y-50632440D01*
X178770888Y-50679141D01*
X178854061Y-50683500D01*
X179016099Y-50683500D01*
X179018478Y-50683319D01*
X179018479Y-50683319D01*
X179204423Y-50669175D01*
X179204428Y-50669174D01*
X179209190Y-50668812D01*
X179213844Y-50667733D01*
X179213846Y-50667733D01*
X179457760Y-50611197D01*
X179462415Y-50610118D01*
X179703848Y-50513795D01*
X179927934Y-50382062D01*
X180129515Y-50217949D01*
X180303953Y-50025233D01*
X180447233Y-49808349D01*
X180488999Y-49717753D01*
X180554053Y-49576640D01*
X180554054Y-49576637D01*
X180556059Y-49572288D01*
X180627926Y-49322482D01*
X180661180Y-49064679D01*
X180656842Y-48880584D01*
X180655169Y-48809592D01*
X180655169Y-48809587D01*
X180655056Y-48804813D01*
X180609694Y-48548863D01*
X180526140Y-48302719D01*
X180406315Y-48072046D01*
X180380306Y-48036443D01*
X180255800Y-47866017D01*
X180255799Y-47866016D01*
X180252977Y-47862153D01*
X180141432Y-47750022D01*
X180073029Y-47681259D01*
X180073024Y-47681255D01*
X180069655Y-47677868D01*
X180022364Y-47642938D01*
X179864419Y-47526279D01*
X179860566Y-47523433D01*
X179837325Y-47511205D01*
X179683983Y-47430528D01*
X179630524Y-47402402D01*
X179626005Y-47400841D01*
X179625999Y-47400839D01*
X179389339Y-47319120D01*
X179389338Y-47319120D01*
X179384821Y-47317560D01*
X179129112Y-47270859D01*
X179045939Y-47266500D01*
X178883901Y-47266500D01*
X178881522Y-47266681D01*
X178881521Y-47266681D01*
X178695577Y-47280825D01*
X178695572Y-47280826D01*
X178690810Y-47281188D01*
X178686156Y-47282267D01*
X178686154Y-47282267D01*
X178537595Y-47316701D01*
X178437585Y-47339882D01*
X178196152Y-47436205D01*
X177972066Y-47567938D01*
X177770485Y-47732051D01*
X177596047Y-47924767D01*
X177593406Y-47928765D01*
X177593405Y-47928766D01*
X177591145Y-47932187D01*
X177452767Y-48141651D01*
X177450766Y-48145991D01*
X177450764Y-48145995D01*
X177378513Y-48302719D01*
X177343941Y-48377712D01*
X177272074Y-48627518D01*
X177238820Y-48885321D01*
X165656954Y-48885321D01*
X165656842Y-48880584D01*
X165655169Y-48809592D01*
X165655169Y-48809587D01*
X165655056Y-48804813D01*
X165609694Y-48548863D01*
X165526140Y-48302719D01*
X165406315Y-48072046D01*
X165380306Y-48036443D01*
X165255800Y-47866017D01*
X165255799Y-47866016D01*
X165252977Y-47862153D01*
X165141432Y-47750022D01*
X165073029Y-47681259D01*
X165073024Y-47681255D01*
X165069655Y-47677868D01*
X165022364Y-47642938D01*
X164864419Y-47526279D01*
X164860566Y-47523433D01*
X164837325Y-47511205D01*
X164683983Y-47430528D01*
X164630524Y-47402402D01*
X164626005Y-47400841D01*
X164625999Y-47400839D01*
X164389339Y-47319120D01*
X164389338Y-47319120D01*
X164384821Y-47317560D01*
X164129112Y-47270859D01*
X164045939Y-47266500D01*
X163883901Y-47266500D01*
X163881522Y-47266681D01*
X163881521Y-47266681D01*
X163695577Y-47280825D01*
X163695572Y-47280826D01*
X163690810Y-47281188D01*
X163686156Y-47282267D01*
X163686154Y-47282267D01*
X163537595Y-47316701D01*
X163437585Y-47339882D01*
X163196152Y-47436205D01*
X162972066Y-47567938D01*
X162770485Y-47732051D01*
X162596047Y-47924767D01*
X162593406Y-47928765D01*
X162593405Y-47928766D01*
X162591145Y-47932187D01*
X162452767Y-48141651D01*
X162450766Y-48145991D01*
X162450764Y-48145995D01*
X162378513Y-48302719D01*
X162343941Y-48377712D01*
X162272074Y-48627518D01*
X162238820Y-48885321D01*
X153127686Y-48885321D01*
X153127669Y-48884592D01*
X153127669Y-48884587D01*
X153127556Y-48879813D01*
X153082194Y-48623863D01*
X152998640Y-48377719D01*
X152878815Y-48147046D01*
X152850656Y-48108500D01*
X152728300Y-47941017D01*
X152728299Y-47941016D01*
X152725477Y-47937153D01*
X152633816Y-47845011D01*
X152545529Y-47756259D01*
X152545524Y-47756255D01*
X152542155Y-47752868D01*
X152509880Y-47729029D01*
X152336919Y-47601279D01*
X152333066Y-47598433D01*
X152280853Y-47570962D01*
X152195924Y-47526279D01*
X152103024Y-47477402D01*
X152098505Y-47475841D01*
X152098499Y-47475839D01*
X151861839Y-47394120D01*
X151861838Y-47394120D01*
X151857321Y-47392560D01*
X151601612Y-47345859D01*
X151518439Y-47341500D01*
X151356401Y-47341500D01*
X151354022Y-47341681D01*
X151354021Y-47341681D01*
X151168077Y-47355825D01*
X151168072Y-47355826D01*
X151163310Y-47356188D01*
X151158656Y-47357267D01*
X151158654Y-47357267D01*
X150954298Y-47404634D01*
X150910085Y-47414882D01*
X150668652Y-47511205D01*
X150444566Y-47642938D01*
X150242985Y-47807051D01*
X150068547Y-47999767D01*
X150065906Y-48003765D01*
X150065905Y-48003766D01*
X150044892Y-48035574D01*
X149925267Y-48216651D01*
X149923266Y-48220991D01*
X149923264Y-48220995D01*
X149851013Y-48377719D01*
X149816441Y-48452712D01*
X149744574Y-48702518D01*
X149711320Y-48960321D01*
X138129454Y-48960321D01*
X138129342Y-48955584D01*
X138127669Y-48884592D01*
X138127669Y-48884587D01*
X138127556Y-48879813D01*
X138082194Y-48623863D01*
X137998640Y-48377719D01*
X137878815Y-48147046D01*
X137850656Y-48108500D01*
X137728300Y-47941017D01*
X137728299Y-47941016D01*
X137725477Y-47937153D01*
X137633816Y-47845011D01*
X137545529Y-47756259D01*
X137545524Y-47756255D01*
X137542155Y-47752868D01*
X137509880Y-47729029D01*
X137336919Y-47601279D01*
X137333066Y-47598433D01*
X137280853Y-47570962D01*
X137195924Y-47526279D01*
X137103024Y-47477402D01*
X137098505Y-47475841D01*
X137098499Y-47475839D01*
X136861839Y-47394120D01*
X136861838Y-47394120D01*
X136857321Y-47392560D01*
X136601612Y-47345859D01*
X136518439Y-47341500D01*
X136356401Y-47341500D01*
X136354022Y-47341681D01*
X136354021Y-47341681D01*
X136168077Y-47355825D01*
X136168072Y-47355826D01*
X136163310Y-47356188D01*
X136158656Y-47357267D01*
X136158654Y-47357267D01*
X135954298Y-47404634D01*
X135910085Y-47414882D01*
X135668652Y-47511205D01*
X135444566Y-47642938D01*
X135242985Y-47807051D01*
X135068547Y-47999767D01*
X135065906Y-48003765D01*
X135065905Y-48003766D01*
X135044892Y-48035574D01*
X134925267Y-48216651D01*
X134923266Y-48220991D01*
X134923264Y-48220995D01*
X134851013Y-48377719D01*
X134816441Y-48452712D01*
X134744574Y-48702518D01*
X134711320Y-48960321D01*
X91508500Y-48960321D01*
X91508500Y-46132703D01*
X93390743Y-46132703D01*
X93428268Y-46417734D01*
X93504129Y-46695036D01*
X93616923Y-46959476D01*
X93764561Y-47206161D01*
X93944313Y-47430528D01*
X93961397Y-47446740D01*
X94086556Y-47565511D01*
X94152851Y-47628423D01*
X94386317Y-47796186D01*
X94390112Y-47798195D01*
X94390113Y-47798196D01*
X94411869Y-47809715D01*
X94640392Y-47930712D01*
X94910373Y-48029511D01*
X95191264Y-48090755D01*
X95219841Y-48093004D01*
X95414282Y-48108307D01*
X95414291Y-48108307D01*
X95416739Y-48108500D01*
X95572271Y-48108500D01*
X95574407Y-48108354D01*
X95574418Y-48108354D01*
X95782548Y-48094165D01*
X95782554Y-48094164D01*
X95786825Y-48093873D01*
X95791020Y-48093004D01*
X95791022Y-48093004D01*
X95927584Y-48064723D01*
X96068342Y-48035574D01*
X96339343Y-47939607D01*
X96594812Y-47807750D01*
X96598313Y-47805289D01*
X96598317Y-47805287D01*
X96712417Y-47725096D01*
X96830023Y-47642441D01*
X96958091Y-47523433D01*
X97037479Y-47449661D01*
X97037481Y-47449658D01*
X97040622Y-47446740D01*
X97222713Y-47224268D01*
X97372927Y-46979142D01*
X97488483Y-46715898D01*
X97567244Y-46439406D01*
X97607751Y-46154784D01*
X97607845Y-46136951D01*
X97607867Y-46132703D01*
X183890743Y-46132703D01*
X183928268Y-46417734D01*
X184004129Y-46695036D01*
X184116923Y-46959476D01*
X184264561Y-47206161D01*
X184444313Y-47430528D01*
X184461397Y-47446740D01*
X184586556Y-47565511D01*
X184652851Y-47628423D01*
X184886317Y-47796186D01*
X184890112Y-47798195D01*
X184890113Y-47798196D01*
X184911869Y-47809715D01*
X185140392Y-47930712D01*
X185410373Y-48029511D01*
X185691264Y-48090755D01*
X185719841Y-48093004D01*
X185914282Y-48108307D01*
X185914291Y-48108307D01*
X185916739Y-48108500D01*
X186072271Y-48108500D01*
X186074407Y-48108354D01*
X186074418Y-48108354D01*
X186282548Y-48094165D01*
X186282554Y-48094164D01*
X186286825Y-48093873D01*
X186291020Y-48093004D01*
X186291022Y-48093004D01*
X186427584Y-48064723D01*
X186568342Y-48035574D01*
X186839343Y-47939607D01*
X187094812Y-47807750D01*
X187098313Y-47805289D01*
X187098317Y-47805287D01*
X187212417Y-47725096D01*
X187330023Y-47642441D01*
X187458091Y-47523433D01*
X187537479Y-47449661D01*
X187537481Y-47449658D01*
X187540622Y-47446740D01*
X187722713Y-47224268D01*
X187872927Y-46979142D01*
X187988483Y-46715898D01*
X188067244Y-46439406D01*
X188107751Y-46154784D01*
X188107845Y-46136951D01*
X188109235Y-45871583D01*
X188109235Y-45871576D01*
X188109257Y-45867297D01*
X188071732Y-45582266D01*
X188056918Y-45528113D01*
X188049585Y-45501311D01*
X187995871Y-45304964D01*
X187912560Y-45109646D01*
X187884763Y-45044476D01*
X187884761Y-45044472D01*
X187883077Y-45040524D01*
X187768910Y-44849765D01*
X187737643Y-44797521D01*
X187737640Y-44797517D01*
X187735439Y-44793839D01*
X187555687Y-44569472D01*
X187347149Y-44371577D01*
X187113683Y-44203814D01*
X187091843Y-44192250D01*
X187063044Y-44177002D01*
X186859608Y-44069288D01*
X186693494Y-44008499D01*
X186593658Y-43971964D01*
X186593656Y-43971963D01*
X186589627Y-43970489D01*
X186308736Y-43909245D01*
X186277685Y-43906801D01*
X186085718Y-43891693D01*
X186085709Y-43891693D01*
X186083261Y-43891500D01*
X185927729Y-43891500D01*
X185925593Y-43891646D01*
X185925582Y-43891646D01*
X185717452Y-43905835D01*
X185717446Y-43905836D01*
X185713175Y-43906127D01*
X185708980Y-43906996D01*
X185708978Y-43906996D01*
X185581000Y-43933499D01*
X185431658Y-43964426D01*
X185160657Y-44060393D01*
X185156848Y-44062359D01*
X184934731Y-44177002D01*
X184905188Y-44192250D01*
X184901687Y-44194711D01*
X184901683Y-44194713D01*
X184891594Y-44201804D01*
X184669977Y-44357559D01*
X184657098Y-44369527D01*
X184516765Y-44499933D01*
X184459378Y-44553260D01*
X184277287Y-44775732D01*
X184127073Y-45020858D01*
X184125347Y-45024791D01*
X184125346Y-45024792D01*
X184023892Y-45255911D01*
X184011517Y-45284102D01*
X183932756Y-45560594D01*
X183892249Y-45845216D01*
X183892227Y-45849505D01*
X183892226Y-45849512D01*
X183890765Y-46128417D01*
X183890743Y-46132703D01*
X97607867Y-46132703D01*
X97609235Y-45871583D01*
X97609235Y-45871576D01*
X97609257Y-45867297D01*
X97571732Y-45582266D01*
X97556918Y-45528113D01*
X97549585Y-45501311D01*
X97495871Y-45304964D01*
X97412560Y-45109646D01*
X97384763Y-45044476D01*
X97384761Y-45044472D01*
X97383077Y-45040524D01*
X97268910Y-44849765D01*
X97237643Y-44797521D01*
X97237640Y-44797517D01*
X97235439Y-44793839D01*
X97055687Y-44569472D01*
X96847149Y-44371577D01*
X96613683Y-44203814D01*
X96591843Y-44192250D01*
X96563044Y-44177002D01*
X96359608Y-44069288D01*
X96207518Y-44013631D01*
X139934360Y-44013631D01*
X139934657Y-44018783D01*
X139934657Y-44018787D01*
X139944802Y-44194713D01*
X139948403Y-44257171D01*
X139949540Y-44262217D01*
X139949541Y-44262223D01*
X139971684Y-44360478D01*
X140002033Y-44495147D01*
X140003975Y-44499929D01*
X140003976Y-44499933D01*
X140065145Y-44650573D01*
X140093811Y-44721169D01*
X140221272Y-44929166D01*
X140380992Y-45113553D01*
X140568683Y-45269377D01*
X140779304Y-45392453D01*
X141007198Y-45479478D01*
X141012264Y-45480509D01*
X141012265Y-45480509D01*
X141241167Y-45527080D01*
X141241171Y-45527080D01*
X141246246Y-45528113D01*
X141251422Y-45528303D01*
X141251424Y-45528303D01*
X141484863Y-45536863D01*
X141484867Y-45536863D01*
X141490027Y-45537052D01*
X141495147Y-45536396D01*
X141495149Y-45536396D01*
X141571877Y-45526567D01*
X141731994Y-45506055D01*
X141736943Y-45504570D01*
X141736949Y-45504569D01*
X141960700Y-45437440D01*
X141960699Y-45437440D01*
X141965650Y-45435955D01*
X142184719Y-45328634D01*
X142188924Y-45325634D01*
X142188930Y-45325631D01*
X142379114Y-45189974D01*
X142379116Y-45189972D01*
X142383318Y-45186975D01*
X142556114Y-45014781D01*
X142698466Y-44816677D01*
X142707934Y-44797521D01*
X142804256Y-44602626D01*
X142804257Y-44602624D01*
X142806550Y-44597984D01*
X142862114Y-44415105D01*
X142875962Y-44369527D01*
X142875963Y-44369521D01*
X142877466Y-44364575D01*
X142898300Y-44206321D01*
X142908870Y-44126038D01*
X142908870Y-44126034D01*
X142909307Y-44122717D01*
X142911084Y-44050000D01*
X142908094Y-44013631D01*
X144934360Y-44013631D01*
X144934657Y-44018783D01*
X144934657Y-44018787D01*
X144944802Y-44194713D01*
X144948403Y-44257171D01*
X144949540Y-44262217D01*
X144949541Y-44262223D01*
X144971684Y-44360478D01*
X145002033Y-44495147D01*
X145003975Y-44499929D01*
X145003976Y-44499933D01*
X145065145Y-44650573D01*
X145093811Y-44721169D01*
X145221272Y-44929166D01*
X145380992Y-45113553D01*
X145568683Y-45269377D01*
X145779304Y-45392453D01*
X146007198Y-45479478D01*
X146012264Y-45480509D01*
X146012265Y-45480509D01*
X146241167Y-45527080D01*
X146241171Y-45527080D01*
X146246246Y-45528113D01*
X146251422Y-45528303D01*
X146251424Y-45528303D01*
X146484863Y-45536863D01*
X146484867Y-45536863D01*
X146490027Y-45537052D01*
X146495147Y-45536396D01*
X146495149Y-45536396D01*
X146571877Y-45526567D01*
X146731994Y-45506055D01*
X146736943Y-45504570D01*
X146736949Y-45504569D01*
X146960700Y-45437440D01*
X146960699Y-45437440D01*
X146965650Y-45435955D01*
X147184719Y-45328634D01*
X147188924Y-45325634D01*
X147188930Y-45325631D01*
X147379114Y-45189974D01*
X147379116Y-45189972D01*
X147383318Y-45186975D01*
X147556114Y-45014781D01*
X147698466Y-44816677D01*
X147707934Y-44797521D01*
X147804256Y-44602626D01*
X147804257Y-44602624D01*
X147806550Y-44597984D01*
X147862114Y-44415105D01*
X147875962Y-44369527D01*
X147875963Y-44369521D01*
X147877466Y-44364575D01*
X147898300Y-44206321D01*
X147908870Y-44126038D01*
X147908870Y-44126034D01*
X147909307Y-44122717D01*
X147911084Y-44050000D01*
X147901928Y-43938631D01*
X167461860Y-43938631D01*
X167462157Y-43943783D01*
X167462157Y-43943787D01*
X167468881Y-44060393D01*
X167475903Y-44182171D01*
X167477040Y-44187217D01*
X167477041Y-44187223D01*
X167500107Y-44289575D01*
X167529533Y-44420147D01*
X167531475Y-44424929D01*
X167531476Y-44424933D01*
X167599733Y-44593030D01*
X167621311Y-44646169D01*
X167748772Y-44854166D01*
X167908492Y-45038553D01*
X168069049Y-45171850D01*
X168090880Y-45189974D01*
X168096183Y-45194377D01*
X168306804Y-45317453D01*
X168534698Y-45404478D01*
X168539764Y-45405509D01*
X168539765Y-45405509D01*
X168768667Y-45452080D01*
X168768671Y-45452080D01*
X168773746Y-45453113D01*
X168778922Y-45453303D01*
X168778924Y-45453303D01*
X169012363Y-45461863D01*
X169012367Y-45461863D01*
X169017527Y-45462052D01*
X169022647Y-45461396D01*
X169022649Y-45461396D01*
X169099377Y-45451567D01*
X169259494Y-45431055D01*
X169264443Y-45429570D01*
X169264449Y-45429569D01*
X169488200Y-45362440D01*
X169488199Y-45362440D01*
X169493150Y-45360955D01*
X169712219Y-45253634D01*
X169716424Y-45250634D01*
X169716430Y-45250631D01*
X169906614Y-45114974D01*
X169906616Y-45114972D01*
X169910818Y-45111975D01*
X170083614Y-44939781D01*
X170225966Y-44741677D01*
X170238468Y-44716382D01*
X170331756Y-44527626D01*
X170331757Y-44527624D01*
X170334050Y-44522984D01*
X170366827Y-44415105D01*
X170403462Y-44294527D01*
X170403463Y-44294521D01*
X170404966Y-44289575D01*
X170426933Y-44122717D01*
X170436370Y-44051038D01*
X170436370Y-44051034D01*
X170436807Y-44047717D01*
X170437640Y-44013631D01*
X170438502Y-43978365D01*
X170438502Y-43978361D01*
X170438584Y-43975000D01*
X170435594Y-43938631D01*
X172461860Y-43938631D01*
X172462157Y-43943783D01*
X172462157Y-43943787D01*
X172468881Y-44060393D01*
X172475903Y-44182171D01*
X172477040Y-44187217D01*
X172477041Y-44187223D01*
X172500107Y-44289575D01*
X172529533Y-44420147D01*
X172531475Y-44424929D01*
X172531476Y-44424933D01*
X172599733Y-44593030D01*
X172621311Y-44646169D01*
X172748772Y-44854166D01*
X172908492Y-45038553D01*
X173069049Y-45171850D01*
X173090880Y-45189974D01*
X173096183Y-45194377D01*
X173306804Y-45317453D01*
X173534698Y-45404478D01*
X173539764Y-45405509D01*
X173539765Y-45405509D01*
X173768667Y-45452080D01*
X173768671Y-45452080D01*
X173773746Y-45453113D01*
X173778922Y-45453303D01*
X173778924Y-45453303D01*
X174012363Y-45461863D01*
X174012367Y-45461863D01*
X174017527Y-45462052D01*
X174022647Y-45461396D01*
X174022649Y-45461396D01*
X174099377Y-45451567D01*
X174259494Y-45431055D01*
X174264443Y-45429570D01*
X174264449Y-45429569D01*
X174488200Y-45362440D01*
X174488199Y-45362440D01*
X174493150Y-45360955D01*
X174712219Y-45253634D01*
X174716424Y-45250634D01*
X174716430Y-45250631D01*
X174906614Y-45114974D01*
X174906616Y-45114972D01*
X174910818Y-45111975D01*
X175083614Y-44939781D01*
X175225966Y-44741677D01*
X175238468Y-44716382D01*
X175331756Y-44527626D01*
X175331757Y-44527624D01*
X175334050Y-44522984D01*
X175366827Y-44415105D01*
X175403462Y-44294527D01*
X175403463Y-44294521D01*
X175404966Y-44289575D01*
X175426933Y-44122717D01*
X175436370Y-44051038D01*
X175436370Y-44051034D01*
X175436807Y-44047717D01*
X175437640Y-44013631D01*
X175438502Y-43978365D01*
X175438502Y-43978361D01*
X175438584Y-43975000D01*
X175418596Y-43731876D01*
X175359167Y-43495280D01*
X175261894Y-43271568D01*
X175129390Y-43066748D01*
X175030543Y-42958116D01*
X174968690Y-42890141D01*
X174968688Y-42890140D01*
X174965212Y-42886319D01*
X174961161Y-42883120D01*
X174961157Y-42883116D01*
X174777825Y-42738329D01*
X174777821Y-42738327D01*
X174773770Y-42735127D01*
X174560205Y-42617233D01*
X174555336Y-42615509D01*
X174555332Y-42615507D01*
X174335127Y-42537528D01*
X174335123Y-42537527D01*
X174330252Y-42535802D01*
X174325159Y-42534895D01*
X174325156Y-42534894D01*
X174095177Y-42493928D01*
X174095171Y-42493927D01*
X174090088Y-42493022D01*
X174010380Y-42492048D01*
X173851332Y-42490105D01*
X173851330Y-42490105D01*
X173846162Y-42490042D01*
X173605024Y-42526941D01*
X173373150Y-42602729D01*
X173368558Y-42605119D01*
X173368559Y-42605119D01*
X173229077Y-42677729D01*
X173156769Y-42715370D01*
X173152636Y-42718473D01*
X173152633Y-42718475D01*
X173030565Y-42810127D01*
X172961690Y-42861840D01*
X172793153Y-43038204D01*
X172790239Y-43042476D01*
X172790238Y-43042477D01*
X172770719Y-43071091D01*
X172655684Y-43239726D01*
X172638705Y-43276305D01*
X172603891Y-43351305D01*
X172552974Y-43460995D01*
X172487783Y-43696067D01*
X172461860Y-43938631D01*
X170435594Y-43938631D01*
X170418596Y-43731876D01*
X170359167Y-43495280D01*
X170261894Y-43271568D01*
X170129390Y-43066748D01*
X170030543Y-42958116D01*
X169968690Y-42890141D01*
X169968688Y-42890140D01*
X169965212Y-42886319D01*
X169961161Y-42883120D01*
X169961157Y-42883116D01*
X169777825Y-42738329D01*
X169777821Y-42738327D01*
X169773770Y-42735127D01*
X169560205Y-42617233D01*
X169555336Y-42615509D01*
X169555332Y-42615507D01*
X169335127Y-42537528D01*
X169335123Y-42537527D01*
X169330252Y-42535802D01*
X169325159Y-42534895D01*
X169325156Y-42534894D01*
X169095177Y-42493928D01*
X169095171Y-42493927D01*
X169090088Y-42493022D01*
X169010380Y-42492048D01*
X168851332Y-42490105D01*
X168851330Y-42490105D01*
X168846162Y-42490042D01*
X168605024Y-42526941D01*
X168373150Y-42602729D01*
X168368558Y-42605119D01*
X168368559Y-42605119D01*
X168229077Y-42677729D01*
X168156769Y-42715370D01*
X168152636Y-42718473D01*
X168152633Y-42718475D01*
X168030565Y-42810127D01*
X167961690Y-42861840D01*
X167793153Y-43038204D01*
X167790239Y-43042476D01*
X167790238Y-43042477D01*
X167770719Y-43071091D01*
X167655684Y-43239726D01*
X167638705Y-43276305D01*
X167603891Y-43351305D01*
X167552974Y-43460995D01*
X167487783Y-43696067D01*
X167461860Y-43938631D01*
X147901928Y-43938631D01*
X147891096Y-43806876D01*
X147831667Y-43570280D01*
X147734394Y-43346568D01*
X147601890Y-43141748D01*
X147511561Y-43042477D01*
X147441190Y-42965141D01*
X147441188Y-42965140D01*
X147437712Y-42961319D01*
X147433661Y-42958120D01*
X147433657Y-42958116D01*
X147250325Y-42813329D01*
X147250321Y-42813327D01*
X147246270Y-42810127D01*
X147032705Y-42692233D01*
X147027836Y-42690509D01*
X147027832Y-42690507D01*
X146807627Y-42612528D01*
X146807623Y-42612527D01*
X146802752Y-42610802D01*
X146797659Y-42609895D01*
X146797656Y-42609894D01*
X146567677Y-42568928D01*
X146567671Y-42568927D01*
X146562588Y-42568022D01*
X146482880Y-42567048D01*
X146323832Y-42565105D01*
X146323830Y-42565105D01*
X146318662Y-42565042D01*
X146077524Y-42601941D01*
X145845650Y-42677729D01*
X145629269Y-42790370D01*
X145625136Y-42793473D01*
X145625133Y-42793475D01*
X145505743Y-42883116D01*
X145434190Y-42936840D01*
X145430618Y-42940578D01*
X145337325Y-43038204D01*
X145265653Y-43113204D01*
X145262739Y-43117476D01*
X145262738Y-43117477D01*
X145243219Y-43146091D01*
X145128184Y-43314726D01*
X145111205Y-43351305D01*
X145042047Y-43500292D01*
X145025474Y-43535995D01*
X144960283Y-43771067D01*
X144934360Y-44013631D01*
X142908094Y-44013631D01*
X142891096Y-43806876D01*
X142831667Y-43570280D01*
X142734394Y-43346568D01*
X142601890Y-43141748D01*
X142511561Y-43042477D01*
X142441190Y-42965141D01*
X142441188Y-42965140D01*
X142437712Y-42961319D01*
X142433661Y-42958120D01*
X142433657Y-42958116D01*
X142250325Y-42813329D01*
X142250321Y-42813327D01*
X142246270Y-42810127D01*
X142032705Y-42692233D01*
X142027836Y-42690509D01*
X142027832Y-42690507D01*
X141807627Y-42612528D01*
X141807623Y-42612527D01*
X141802752Y-42610802D01*
X141797659Y-42609895D01*
X141797656Y-42609894D01*
X141567677Y-42568928D01*
X141567671Y-42568927D01*
X141562588Y-42568022D01*
X141482880Y-42567048D01*
X141323832Y-42565105D01*
X141323830Y-42565105D01*
X141318662Y-42565042D01*
X141077524Y-42601941D01*
X140845650Y-42677729D01*
X140629269Y-42790370D01*
X140625136Y-42793473D01*
X140625133Y-42793475D01*
X140505743Y-42883116D01*
X140434190Y-42936840D01*
X140430618Y-42940578D01*
X140337325Y-43038204D01*
X140265653Y-43113204D01*
X140262739Y-43117476D01*
X140262738Y-43117477D01*
X140243219Y-43146091D01*
X140128184Y-43314726D01*
X140111205Y-43351305D01*
X140042047Y-43500292D01*
X140025474Y-43535995D01*
X139960283Y-43771067D01*
X139934360Y-44013631D01*
X96207518Y-44013631D01*
X96193494Y-44008499D01*
X96093658Y-43971964D01*
X96093656Y-43971963D01*
X96089627Y-43970489D01*
X95808736Y-43909245D01*
X95777685Y-43906801D01*
X95585718Y-43891693D01*
X95585709Y-43891693D01*
X95583261Y-43891500D01*
X95427729Y-43891500D01*
X95425593Y-43891646D01*
X95425582Y-43891646D01*
X95217452Y-43905835D01*
X95217446Y-43905836D01*
X95213175Y-43906127D01*
X95208980Y-43906996D01*
X95208978Y-43906996D01*
X95081000Y-43933499D01*
X94931658Y-43964426D01*
X94660657Y-44060393D01*
X94656848Y-44062359D01*
X94434731Y-44177002D01*
X94405188Y-44192250D01*
X94401687Y-44194711D01*
X94401683Y-44194713D01*
X94391594Y-44201804D01*
X94169977Y-44357559D01*
X94157098Y-44369527D01*
X94016765Y-44499933D01*
X93959378Y-44553260D01*
X93777287Y-44775732D01*
X93627073Y-45020858D01*
X93625347Y-45024791D01*
X93625346Y-45024792D01*
X93523892Y-45255911D01*
X93511517Y-45284102D01*
X93432756Y-45560594D01*
X93392249Y-45845216D01*
X93392227Y-45849505D01*
X93392226Y-45849512D01*
X93390765Y-46128417D01*
X93390743Y-46132703D01*
X91508500Y-46132703D01*
X91508500Y-41634500D01*
X91528502Y-41566379D01*
X91582158Y-41519886D01*
X91634500Y-41508500D01*
X190365500Y-41508500D01*
X190433621Y-41528502D01*
G37*
%TD.AperFunction*%
%TD*%
M02*
